<svg width="24" height="24" viewBox="0 0 24 24" fill="none" xmlns="http://www.w3.org/2000/svg">
<g clip-path="url(#clip0_10_485)">
<path d="M16.46 5.79L16.76 5.8C17.6243 5.83155 18.4695 6.06285 19.2294 6.47577C19.9893 6.88869 20.6433 7.47201 21.14 8.18C21.04 8.25 18.52 9.71 18.55 12.75C18.59 16.38 21.74 17.59 21.77 17.61C21.75 17.69 21.27 19.33 20.11 21.02C19.11 22.48 18.07 23.94 16.44 23.97C14.84 24 14.31 23.01 12.48 23.01C10.64 23.01 10.06 23.94 8.54 24C6.97 24.06 5.76 22.42 4.76 20.96C2.69 17.98 1.12 12.54 3.23 8.86C3.72726 7.972 4.44686 7.22855 5.31818 6.7026C6.1895 6.17666 7.18259 5.88629 8.2 5.86C9.75 5.83 11.21 6.9 12.16 6.9C13.11 6.9 14.89 5.61 16.76 5.8L16.46 5.79ZM16.78 0C16.8837 1.39143 16.4346 2.76764 15.53 3.83C15.1067 4.3674 14.5655 4.80024 13.9482 5.09502C13.3309 5.3898 12.654 5.53863 11.97 5.53C11.9225 4.85807 12.0104 4.18344 12.2286 3.54614C12.4467 2.90884 12.7907 2.32185 13.24 1.82C14.1439 0.783073 15.4107 0.131786 16.78 0V0Z" fill="black"/>
</g>
<defs>
<clipPath id="clip0_10_485">
<rect width="24" height="24" fill="white"/>
</clipPath>
</defs>
</svg>
