<svg width="325" height="473" viewBox="0 0 325 473" fill="none" xmlns="http://www.w3.org/2000/svg">
<g clip-path="url(#clip0_143_210)">
<rect width="558.457" height="350.659" rx="23.0607" transform="matrix(0.866044 -0.499967 0.866044 0.499967 -9.99976 329.21)" fill="white"/>
<mask id="mask0_143_210" style="mask-type:alpha" maskUnits="userSpaceOnUse" x="1" y="56" width="765" height="442">
<rect width="558.457" height="350.659" rx="23.0607" transform="matrix(0.866044 -0.499967 0.866044 0.499967 -10 329.21)" fill="black"/>
</mask>
<g mask="url(#mask0_143_210)">
<path d="M395.28 -24.235L410.45 94.9221L465.844 126.901L643.397 119.003L672.327 187.579L813.067 234.245L635.637 323.351L709.495 365.989L624.285 440.497L454.85 479.684L513.783 564.25L251.195 762.478L33.0826 636.561L-69.4969 662.469L-228.754 570.53L-250.771 497.964L-497.599 444.588L-497.696 380.687L-353.695 297.555L-331.904 221.017L-150.941 180.505L-25.3719 108.014L-80.8303 33.4343L111.555 -77.63L395.28 -24.235Z" stroke="#F8F8F8" stroke-width="1.38364"/>
<path d="M173.347 298.934L203.614 304.593L230.041 319.849L229.124 341.667L209.755 358.383L216.01 367.403L187.89 388.603L164.659 375.192L134.415 360.437L108.087 354.774L108.104 347.952L123.514 339.056L158.648 318.773L152.76 310.819L173.347 298.934Z" stroke="#F8F8F8" stroke-width="1.38364"/>
<path d="M379.766 0.614435L394.934 110.823L448.099 141.516L611.959 135.065L638.628 199.204L767.797 242.924L603.27 325.818L671.928 365.87L592.191 435.463L434.708 472.451L488.214 549.996L244.932 732.459L42.4344 615.661L-53.4176 639.009L-202.449 553.706L-222.773 486.46L-450.613 436.927L-450.11 377.599L-316.593 300.52L-293.775 228.31L-126.959 190.608L-11.2757 123.387L-61.6763 54.0871L116.702 -48.8909L379.766 0.614435Z" stroke="#F8F8F8" stroke-width="1.38364"/>
<path d="M364.251 25.4644L379.416 126.725L430.353 156.131L580.52 151.127L604.929 210.83L722.526 251.603L570.903 328.286L634.361 365.752L560.097 430.429L414.566 465.218L462.645 535.742L238.668 702.441L51.7853 594.762L-37.3393 615.549L-176.145 536.883L-194.774 474.956L-403.627 429.267L-402.524 374.512L-279.492 303.486L-255.648 235.603L-102.978 200.711L2.81963 138.761L-42.5231 74.7405L121.849 -20.1512L364.251 25.4644Z" stroke="#F8F8F8" stroke-width="1.38364"/>
<path d="M348.738 50.3138L363.9 142.626L412.609 170.746L549.082 167.188L571.23 222.456L677.257 260.282L538.537 330.753L596.795 365.634L528.004 425.394L394.425 457.984L437.077 521.487L232.406 672.423L61.1375 573.861L-21.2595 592.088L-149.84 520.059L-166.775 463.452L-356.641 421.606L-354.937 371.425L-242.389 306.45L-217.519 242.895L-78.996 210.814L16.9163 154.134L-23.3686 95.3932L126.996 8.58777L348.738 50.3138Z" stroke="#F8F8F8" stroke-width="1.38364"/>
<path d="M333.224 75.1634L348.383 158.527L394.864 185.361L517.644 183.25L537.531 234.082L631.987 268.961L506.171 333.221L559.228 365.515L495.91 420.36L374.283 450.751L411.509 507.233L226.143 642.404L70.4892 552.961L-5.18025 568.627L-123.536 503.235L-138.776 451.948L-309.654 413.945L-307.351 368.337L-205.287 309.416L-179.39 250.187L-55.0142 220.917L31.0124 169.507L-4.2146 116.046L132.143 37.327L333.224 75.1634Z" stroke="#F8F8F8" stroke-width="1.38364"/>
<path d="M317.709 100.013L332.866 174.429L377.118 199.976L486.205 199.312L503.832 245.707L586.716 277.64L473.804 335.689L521.661 365.397L463.816 415.325L354.141 443.517L385.939 492.979L219.879 612.386L79.8402 532.061L10.8982 545.167L-97.2322 486.411L-110.778 440.444L-262.669 406.285L-259.765 365.25L-168.186 312.381L-141.263 257.48L-31.0332 231.02L45.1078 184.88L14.9387 136.699L137.289 66.0665L317.709 100.013Z" stroke="#F8F8F8" stroke-width="1.38364"/>
<path d="M302.195 124.863L317.349 190.33L359.373 214.591L454.767 215.373L470.133 257.333L541.446 286.319L441.437 338.156L484.094 365.278L431.722 410.291L333.999 436.284L360.371 478.725L213.617 582.368L89.1919 511.161L26.9775 521.707L-70.9276 469.588L-82.7793 428.939L-215.683 398.624L-212.179 362.163L-131.083 315.346L-103.134 264.772L-7.05138 241.123L59.2039 200.253L34.0927 157.352L142.436 94.8057L302.195 124.863Z" stroke="#F8F8F8" stroke-width="1.38364"/>
<path d="M286.682 149.712L301.832 206.231L341.628 229.206L423.329 231.435L436.434 268.959L496.176 294.997L409.071 340.624L446.527 365.16L399.629 405.256L313.857 429.05L334.803 464.47L207.354 552.349L98.5439 490.261L43.0569 498.246L-44.6229 452.764L-54.7802 417.435L-168.696 390.963L-164.592 359.075L-93.9812 318.311L-65.0054 272.065L16.9306 251.225L73.3003 215.626L53.2469 178.005L147.583 123.545L286.682 149.712Z" stroke="#F8F8F8" stroke-width="1.38364"/>
<path d="M271.168 174.562L286.315 222.133L323.883 243.821L391.891 247.496L402.735 280.584L450.906 303.676L376.704 343.091L408.96 365.041L367.535 400.221L293.715 421.817L309.234 450.216L201.091 522.33L107.895 469.361L59.1359 474.785L-18.3186 435.939L-26.7816 405.93L-121.71 383.302L-117.006 355.987L-56.8793 321.276L-26.8771 279.357L40.9122 261.328L87.3962 230.999L72.4006 198.658L152.73 152.284L271.168 174.562Z" stroke="#F8F8F8" stroke-width="1.38364"/>
<path d="M255.653 199.412L270.798 238.034L306.138 258.436L360.452 263.558L369.036 292.21L405.636 312.356L344.337 345.559L371.393 364.923L335.441 395.187L273.573 414.584L283.665 435.962L194.827 492.312L117.247 448.461L75.2146 451.325L7.98536 419.116L1.21671 394.427L-74.7243 375.642L-69.42 352.9L-19.7778 324.242L11.2508 286.65L64.8935 271.431L101.492 246.373L91.5541 219.311L157.876 181.023L255.653 199.412Z" stroke="#F8F8F8" stroke-width="1.38364"/>
<path d="M240.139 224.261L255.281 253.936L288.392 273.051L329.013 279.62L335.337 303.836L360.366 321.034L311.971 348.027L333.826 364.804L303.347 390.153L253.431 407.35L258.096 421.707L188.564 462.294L126.598 427.561L91.2936 427.865L34.2896 402.292L29.2153 382.922L-27.7383 367.981L-21.8338 349.813L17.324 327.207L49.3791 293.942L88.875 281.534L115.588 261.746L110.708 239.964L163.023 209.763L240.139 224.261Z" stroke="#F8F8F8" stroke-width="1.38364"/>
<path d="M224.626 249.111L239.765 269.837L270.648 287.666L297.576 295.681L301.638 315.461L315.096 329.713L279.605 350.494L296.26 364.686L271.254 385.118L233.29 400.117L232.528 407.453L182.302 432.275L135.95 406.661L107.373 404.404L60.5946 385.468L57.2146 371.418L19.2485 360.32L25.7531 346.725L54.4266 330.172L87.508 301.234L112.857 291.637L129.684 277.119L129.862 260.617L168.17 238.502L224.626 249.111Z" stroke="#F8F8F8" stroke-width="1.38364"/>
<path d="M209.111 273.961L224.247 285.738L252.902 302.281L266.137 311.743L267.939 327.087L269.825 338.392L247.237 352.962L258.693 364.568L239.159 380.084L213.148 392.883L206.959 393.199L176.038 402.257L145.301 385.761L123.452 380.944L86.8984 368.645L85.2127 359.914L66.234 352.659L73.3387 343.638L91.5279 333.137L125.636 308.527L136.838 301.74L143.78 292.492L149.016 281.27L173.316 267.241L209.111 273.961Z" stroke="#F8F8F8" stroke-width="1.38364"/>
</g>
<path d="M262.571 422.451C260.888 423.424 259.122 424.078 257.275 424.416C255.427 424.753 253.615 424.814 251.837 424.598C250.06 424.382 248.411 423.916 246.891 423.201L249.908 421.459C251.451 422.107 253.135 422.391 254.959 422.31C256.76 422.215 258.409 421.736 259.905 420.872C261.659 419.859 262.478 418.739 262.361 417.51C262.221 416.268 261.285 415.148 259.555 414.149C257.731 413.096 255.79 412.569 253.732 412.569C251.65 412.556 249.791 413.021 248.154 413.966C246.844 414.722 246.026 415.546 245.699 416.437C245.371 417.301 245.383 418.158 245.734 419.009L242.927 420.629L231.457 411.577L244.576 404.003L247.277 405.562L236.473 411.799L242.471 416.761L242.647 416.66C242.6 416.012 242.81 415.296 243.278 414.513C243.769 413.717 244.623 412.967 245.839 412.265C247.453 411.334 249.206 410.726 251.101 410.443C252.995 410.132 254.924 410.152 256.889 410.503C258.83 410.841 260.654 411.502 262.361 412.488C263.951 413.406 265.074 414.446 265.728 415.607C266.383 416.741 266.465 417.909 265.974 419.11C265.506 420.298 264.372 421.412 262.571 422.451ZM275.256 414.643L272.941 413.306C273.455 410.687 273.806 408.351 273.993 406.299C274.204 404.234 274.04 402.451 273.502 400.953C272.964 399.454 271.877 398.233 270.24 397.288C268.767 396.437 267.188 396.012 265.504 396.012C263.821 395.985 262.277 396.376 260.874 397.186C259.798 397.807 259.12 398.469 258.839 399.171C258.559 399.873 258.617 400.555 259.015 401.216C259.412 401.878 260.055 402.465 260.944 402.978L258.033 404.659C256.442 403.714 255.413 402.715 254.946 401.662C254.478 400.582 254.525 399.529 255.086 398.503C255.671 397.463 256.711 396.511 258.208 395.647C260.617 394.257 263.154 393.561 265.82 393.561C268.486 393.561 270.942 394.209 273.187 395.505C274.66 396.356 275.759 397.355 276.484 398.503C277.186 399.637 277.63 400.865 277.817 402.188C278.004 403.511 278.016 404.882 277.852 406.299C277.688 407.717 277.466 409.114 277.186 410.491L288.832 403.768L291.463 405.287L275.256 414.643ZM304.954 397.984C303.34 398.915 301.598 399.584 299.727 399.989C297.857 400.367 295.962 400.448 294.045 400.232C292.127 400.016 290.303 399.449 288.572 398.531L291.589 396.789C293.039 397.572 294.746 397.964 296.711 397.964C298.652 397.95 300.499 397.437 302.253 396.425C303.96 395.439 304.849 394.427 304.919 393.387C304.966 392.334 304.229 391.369 302.709 390.491C301.657 389.884 300.523 389.539 299.306 389.458C298.067 389.364 296.828 389.485 295.588 389.823C294.349 390.133 293.179 390.606 292.08 391.24L289.94 392.476L287.274 390.937L289.134 389.863C290.724 388.945 291.648 388.02 291.905 387.089C292.185 386.144 291.671 385.293 290.361 384.537C289.262 383.903 287.976 383.606 286.503 383.646C285.053 383.673 283.626 384.092 282.223 384.902C280.867 385.685 280.153 386.542 280.083 387.474C279.99 388.392 280.493 389.236 281.592 390.005L278.645 391.706C277.359 390.91 276.54 390.032 276.19 389.074C275.815 388.101 275.897 387.123 276.435 386.137C276.996 385.138 278.025 384.207 279.522 383.343C281.136 382.411 282.761 381.797 284.398 381.5C286.058 381.189 287.649 381.149 289.169 381.378C290.665 381.594 291.987 382.033 293.133 382.695C294.349 383.397 295.05 384.234 295.237 385.206C295.401 386.164 295.155 387.048 294.501 387.858L294.711 387.98C296.512 387.426 298.371 387.177 300.289 387.231C302.206 387.285 304.007 387.798 305.691 388.77C307.117 389.593 308.064 390.532 308.532 391.585C309.023 392.624 308.976 393.704 308.392 394.825C307.831 395.932 306.685 396.985 304.954 397.984ZM325.672 386.024C323.988 386.996 322.222 387.65 320.375 387.988C318.528 388.325 316.715 388.386 314.938 388.17C313.161 387.954 311.512 387.488 309.992 386.773L313.008 385.031C314.552 385.679 316.236 385.963 318.06 385.882C319.861 385.787 321.509 385.308 323.006 384.444C324.76 383.431 325.578 382.311 325.461 381.082C325.321 379.84 324.386 378.72 322.655 377.721C320.831 376.668 318.89 376.141 316.832 376.141C314.751 376.128 312.892 376.593 311.255 377.538C309.945 378.294 309.126 379.118 308.799 380.009C308.472 380.873 308.483 381.73 308.834 382.581L306.028 384.201L294.557 375.149L307.677 367.575L310.378 369.134L299.573 375.372L305.572 380.333L305.747 380.232C305.7 379.584 305.911 378.868 306.379 378.085C306.87 377.289 307.723 376.539 308.939 375.837C310.553 374.906 312.307 374.298 314.201 374.015C316.095 373.704 318.025 373.725 319.989 374.076C321.93 374.413 323.754 375.075 325.461 376.06C327.052 376.978 328.174 378.018 328.829 379.179C329.484 380.313 329.566 381.481 329.075 382.682C328.607 383.87 327.473 384.984 325.672 386.024ZM370.335 359.754L364.652 356.473L352.901 363.257L350.62 361.941L345.218 345.902L348.726 343.877L364.933 353.233L368.44 351.208L371.106 352.747L367.599 354.772L373.281 358.053L370.335 359.754ZM353.532 359.814L362.126 354.853L349.358 347.482L353.532 359.814ZM380.424 353.929L378.108 352.593C378.623 349.974 378.974 347.638 379.161 345.586C379.371 343.52 379.208 341.738 378.67 340.24C378.132 338.741 377.044 337.519 375.407 336.574C373.934 335.724 372.356 335.299 370.672 335.299C368.988 335.272 367.445 335.663 366.041 336.473C364.966 337.094 364.287 337.756 364.007 338.458C363.726 339.16 363.785 339.841 364.182 340.503C364.58 341.165 365.223 341.752 366.112 342.265L363.2 343.946C361.61 343.001 360.581 342.002 360.113 340.949C359.645 339.868 359.692 338.815 360.253 337.789C360.838 336.75 361.879 335.798 363.375 334.934C365.784 333.543 368.322 332.848 370.987 332.848C373.653 332.848 376.109 333.496 378.354 334.792C379.827 335.643 380.926 336.642 381.651 337.789C382.353 338.923 382.797 340.152 382.984 341.475C383.171 342.798 383.183 344.168 383.019 345.586C382.856 347.004 382.634 348.401 382.353 349.778L393.999 343.055L396.63 344.573L380.424 353.929ZM409.806 337.453C407.958 338.52 405.807 339.168 403.351 339.397C400.919 339.613 398.359 339.404 395.669 338.769C393.003 338.121 390.361 337.041 387.741 335.529C385.122 334.017 383.251 332.492 382.129 330.952C381.03 329.4 380.667 327.922 381.041 326.518C381.439 325.1 382.561 323.858 384.409 322.791C386.28 321.711 388.431 321.063 390.863 320.847C393.295 320.631 395.845 320.847 398.511 321.495C401.2 322.13 403.854 323.203 406.473 324.715C409.093 326.227 410.952 327.76 412.051 329.312C413.173 330.851 413.548 332.323 413.173 333.727C412.799 335.131 411.677 336.373 409.806 337.453ZM390.758 333.788C392.348 334.706 393.95 335.441 395.564 335.995C397.178 336.521 398.721 336.859 400.194 337.008L390.127 323.338C389.004 323.527 388.01 323.871 387.145 324.371C385.906 325.086 385.216 325.957 385.075 326.983C384.912 327.996 385.309 329.089 386.268 330.264C387.203 331.425 388.7 332.6 390.758 333.788ZM407.105 335.894C408.344 335.178 409.046 334.314 409.21 333.302C409.35 332.276 408.941 331.175 407.982 330.001C407.023 328.826 405.515 327.645 403.457 326.457C401.866 325.539 400.264 324.816 398.651 324.29C397.037 323.736 395.494 323.385 394.02 323.237L404.088 336.947C405.234 336.744 406.24 336.393 407.105 335.894ZM430.839 325.31C428.992 326.377 426.84 327.025 424.385 327.254C421.953 327.47 419.392 327.261 416.703 326.627C414.037 325.979 411.394 324.899 408.775 323.387C406.156 321.874 404.285 320.349 403.162 318.81C402.063 317.257 401.701 315.779 402.075 314.375C402.472 312.957 403.595 311.715 405.442 310.649C407.313 309.569 409.465 308.921 411.897 308.705C414.329 308.489 416.878 308.705 419.544 309.353C422.233 309.987 424.888 311.061 427.507 312.573C430.126 314.085 431.985 315.617 433.084 317.17C434.207 318.709 434.581 320.18 434.207 321.584C433.833 322.988 432.71 324.23 430.839 325.31ZM411.792 321.645C413.382 322.563 414.984 323.299 416.597 323.852C418.211 324.379 419.754 324.716 421.228 324.865L411.16 311.196C410.038 311.385 409.044 311.729 408.179 312.228C406.939 312.944 406.249 313.815 406.109 314.841C405.945 315.853 406.343 316.947 407.302 318.121C408.237 319.282 409.734 320.457 411.792 321.645ZM428.138 323.751C429.378 323.036 430.079 322.172 430.243 321.159C430.383 320.133 429.974 319.033 429.015 317.858C428.056 316.684 426.548 315.502 424.49 314.314C422.9 313.396 421.298 312.674 419.684 312.147C418.071 311.594 416.527 311.243 415.054 311.094L425.122 324.804C426.267 324.602 427.273 324.251 428.138 323.751ZM464.558 305.359L462.242 304.022C462.757 301.403 463.108 299.068 463.295 297.015C463.505 294.95 463.342 293.168 462.804 291.669C462.266 290.171 461.178 288.949 459.541 288.004C458.068 287.153 456.489 286.728 454.806 286.728C453.122 286.701 451.578 287.093 450.175 287.903C449.1 288.524 448.421 289.185 448.141 289.887C447.86 290.589 447.919 291.271 448.316 291.932C448.714 292.594 449.357 293.181 450.245 293.694L447.334 295.375C445.744 294.43 444.715 293.431 444.247 292.378C443.779 291.298 443.826 290.245 444.387 289.219C444.972 288.179 446.013 287.228 447.509 286.363C449.918 284.973 452.455 284.278 455.121 284.278C457.787 284.278 460.243 284.926 462.488 286.222C463.961 287.072 465.06 288.071 465.785 289.219C466.487 290.353 466.931 291.581 467.118 292.905C467.305 294.228 467.317 295.598 467.153 297.015C466.99 298.433 466.768 299.83 466.487 301.207L478.133 294.484L480.764 296.003L464.558 305.359ZM496.536 286.898L490.853 283.617L479.102 290.401L476.821 289.085L471.419 273.046L474.927 271.021L491.134 280.377L494.641 278.352L497.307 279.891L493.799 281.916L499.482 285.197L496.536 286.898ZM479.733 286.959L488.327 281.997L475.559 274.626L479.733 286.959ZM515.289 276.558C513.675 277.489 511.933 278.157 510.062 278.562C508.191 278.94 506.297 279.021 504.38 278.805C502.462 278.589 500.638 278.022 498.907 277.104L501.924 275.363C503.374 276.146 505.081 276.537 507.046 276.537C508.987 276.524 510.834 276.011 512.588 274.998C514.295 274.013 515.184 273 515.254 271.961C515.301 270.908 514.564 269.942 513.044 269.065C511.992 268.457 510.857 268.113 509.641 268.032C508.402 267.937 507.162 268.059 505.923 268.396C504.684 268.707 503.514 269.18 502.415 269.814L500.275 271.049L497.609 269.51L499.469 268.437C501.059 267.519 501.983 266.594 502.24 265.663C502.52 264.718 502.006 263.867 500.696 263.111C499.597 262.476 498.311 262.179 496.838 262.22C495.388 262.247 493.961 262.665 492.558 263.476C491.202 264.259 490.488 265.116 490.418 266.047C490.325 266.965 490.827 267.809 491.927 268.579L488.98 270.28C487.694 269.483 486.875 268.606 486.525 267.647C486.15 266.675 486.232 265.696 486.77 264.711C487.331 263.712 488.36 262.78 489.857 261.916C491.471 260.985 493.096 260.37 494.733 260.073C496.393 259.763 497.984 259.722 499.504 259.952C501 260.168 502.322 260.607 503.467 261.268C504.684 261.97 505.385 262.807 505.572 263.779C505.736 264.738 505.49 265.622 504.836 266.432L505.046 266.554C506.847 266 508.706 265.75 510.624 265.804C512.541 265.858 514.342 266.371 516.026 267.343C517.452 268.167 518.399 269.105 518.867 270.158C519.358 271.198 519.311 272.278 518.727 273.398C518.165 274.506 517.02 275.559 515.289 276.558ZM527.658 268.931L525.343 267.594C525.857 264.975 526.208 262.64 526.395 260.588C526.606 258.522 526.442 256.74 525.904 255.241C525.366 253.743 524.279 252.521 522.642 251.576C521.169 250.725 519.59 250.3 517.906 250.3C516.222 250.273 514.679 250.665 513.276 251.475C512.2 252.096 511.522 252.757 511.241 253.459C510.961 254.161 511.019 254.843 511.417 255.505C511.814 256.166 512.457 256.753 513.346 257.266L510.434 258.947C508.844 258.002 507.815 257.003 507.348 255.95C506.88 254.87 506.927 253.817 507.488 252.791C508.072 251.751 509.113 250.8 510.61 249.936C513.019 248.545 515.556 247.85 518.222 247.85C520.888 247.85 523.343 248.498 525.588 249.794C527.062 250.644 528.161 251.643 528.886 252.791C529.587 253.925 530.032 255.154 530.219 256.477C530.406 257.8 530.418 259.17 530.254 260.588C530.09 262.005 529.868 263.402 529.587 264.779L541.233 258.056L543.864 259.575L527.658 268.931ZM569.725 244.646L567.41 243.309C567.924 240.69 568.275 238.354 568.462 236.302C568.673 234.237 568.509 232.455 567.971 230.956C567.433 229.457 566.346 228.236 564.709 227.291C563.235 226.44 561.657 226.015 559.973 226.015C558.289 225.988 556.746 226.379 555.343 227.189C554.267 227.81 553.589 228.472 553.308 229.174C553.028 229.876 553.086 230.558 553.484 231.219C553.881 231.881 554.524 232.468 555.413 232.981L552.501 234.662C550.911 233.717 549.882 232.718 549.414 231.665C548.947 230.585 548.994 229.532 549.555 228.506C550.139 227.466 551.18 226.514 552.677 225.65C555.086 224.26 557.623 223.564 560.289 223.564C562.955 223.564 565.41 224.212 567.655 225.509C569.129 226.359 570.228 227.358 570.953 228.506C571.654 229.64 572.099 230.868 572.286 232.191C572.473 233.514 572.485 234.885 572.321 236.302C572.157 237.72 571.935 239.117 571.654 240.494L583.3 233.771L585.931 235.29L569.725 244.646ZM590.759 232.503L588.443 231.166C588.958 228.547 589.309 226.212 589.496 224.16C589.706 222.094 589.542 220.312 589.005 218.813C588.467 217.315 587.379 216.093 585.742 215.148C584.269 214.297 582.69 213.872 581.007 213.872C579.323 213.845 577.779 214.237 576.376 215.047C575.301 215.668 574.622 216.329 574.342 217.031C574.061 217.733 574.12 218.415 574.517 219.077C574.915 219.738 575.558 220.325 576.446 220.838L573.535 222.519C571.945 221.574 570.916 220.575 570.448 219.522C569.98 218.442 570.027 217.389 570.588 216.363C571.173 215.323 572.214 214.372 573.71 213.508C576.119 212.117 578.656 211.422 581.322 211.422C583.988 211.422 586.444 212.07 588.689 213.366C590.162 214.216 591.261 215.215 591.986 216.363C592.688 217.497 593.132 218.726 593.319 220.049C593.506 221.372 593.518 222.742 593.354 224.16C593.191 225.577 592.968 226.975 592.688 228.352L604.334 221.628L606.965 223.147L590.759 232.503ZM611.792 220.36L609.477 219.024C609.991 216.405 610.342 214.069 610.529 212.017C610.74 209.951 610.576 208.169 610.038 206.671C609.5 205.172 608.413 203.95 606.776 203.005C605.302 202.155 603.724 201.73 602.04 201.73C600.356 201.703 598.813 202.094 597.41 202.904C596.334 203.525 595.656 204.187 595.375 204.889C595.095 205.591 595.153 206.272 595.551 206.934C595.948 207.596 596.591 208.183 597.48 208.696L594.568 210.377C592.978 209.432 591.949 208.433 591.481 207.38C591.014 206.299 591.061 205.246 591.622 204.22C592.206 203.181 593.247 202.229 594.744 201.365C597.153 199.974 599.69 199.279 602.356 199.279C605.022 199.279 607.477 199.927 609.722 201.223C611.196 202.074 612.295 203.073 613.02 204.22C613.721 205.354 614.166 206.583 614.353 207.906C614.54 209.229 614.552 210.599 614.388 212.017C614.224 213.435 614.002 214.832 613.721 216.209L625.367 209.486L627.998 211.004L611.792 220.36Z" fill="#0F0F0F"/>
<path d="M276.606 435.363L288.178 442.043L286.029 443.284L276.259 437.644L273.812 439.056L272.01 438.016L276.606 435.363ZM297.036 434.83L298.854 435.88L290.324 440.804L288.886 439.974L289.118 434.801C289.14 434.216 289.057 433.767 288.87 433.456C288.682 433.131 288.407 432.864 288.043 432.654C287.503 432.342 286.908 432.209 286.258 432.253C285.608 432.298 284.93 432.523 284.225 432.931C283.045 433.611 282.544 434.365 282.72 435.192L280.059 435.393C279.904 434.782 280.042 434.162 280.472 433.532C280.902 432.889 281.591 432.294 282.538 431.747C283.795 431.022 285.095 430.615 286.44 430.526C287.784 430.437 288.969 430.688 289.994 431.28C290.622 431.642 291.079 432.059 291.366 432.53C291.652 433.001 291.774 433.656 291.73 434.496L291.581 437.979L297.036 434.83ZM290.569 424.592L292.42 423.523L302.537 435.662L300.686 436.731L290.569 424.592ZM312.953 425.641L314.772 426.69L306.242 431.615L304.804 430.784L305.035 425.612C305.057 425.027 304.975 424.578 304.787 424.266C304.6 423.942 304.324 423.675 303.961 423.465C303.421 423.153 302.826 423.019 302.175 423.064C301.525 423.108 300.847 423.334 300.142 423.741C298.963 424.422 298.461 425.176 298.638 426.003L295.976 426.204C295.822 425.593 295.96 424.973 296.389 424.343C296.819 423.7 297.508 423.105 298.456 422.558C299.712 421.833 301.013 421.426 302.357 421.337C303.702 421.247 304.886 421.499 305.911 422.09C306.539 422.453 306.997 422.87 307.283 423.341C307.57 423.811 307.691 424.467 307.647 425.307L307.498 428.79L312.953 425.641ZM323.457 418.642L321.407 419.825L324.036 421.342L321.953 422.545L319.324 421.028L312.976 424.692L311.489 423.833L309.736 416.237L312.034 414.91L313.786 422.125L317.572 419.94L315.241 418.594L317.258 417.43L319.589 418.775L321.639 417.592L323.457 418.642Z" fill="#0F0F0F"/>
<rect width="558.457" height="69.2893" transform="matrix(0.866044 -0.499967 0.866044 0.499967 46.4202 361.781)" fill="#E9FF6B"/>
<rect width="558.457" height="350.659" rx="23.0607" transform="matrix(0.866044 -0.499967 0.866044 0.499967 -8.70898 135.21)" fill="black"/>
<mask id="mask1_143_210" style="mask-type:alpha" maskUnits="userSpaceOnUse" x="2" y="-138" width="765" height="442">
<rect width="558.457" height="350.659" rx="23.0607" transform="matrix(0.866044 -0.499967 0.866044 0.499967 -8.70923 135.21)" fill="black"/>
</mask>
<g mask="url(#mask1_143_210)">
<path d="M396.571 -218.235L411.741 -99.0778L467.135 -67.099L644.688 -74.9968L673.618 -6.42122L814.357 40.2448L636.928 129.351L710.786 171.989L625.575 246.497L456.141 285.684L515.074 370.25L252.486 568.478L34.3734 442.561L-68.2061 468.469L-227.463 376.53L-249.481 303.965L-496.308 250.588L-496.405 186.687L-352.404 103.555L-330.613 27.0175L-149.65 -13.4948L-24.0811 -85.9858L-79.5395 -160.566L112.846 -271.63L396.571 -218.235Z" stroke="#373737" stroke-width="1.38364"/>
<path d="M174.638 104.934L204.905 110.593L231.332 125.849L230.414 147.667L211.046 164.383L217.3 173.403L189.18 194.604L165.949 181.192L135.705 166.437L109.377 160.774L109.395 153.952L124.805 145.056L159.939 124.773L154.05 116.819L174.638 104.934Z" stroke="#373737" stroke-width="1.38364"/>
<path d="M381.057 -193.385L396.224 -83.1766L449.39 -52.4842L613.25 -58.9352L639.919 5.20436L769.088 48.9237L604.561 131.818L673.219 171.87L593.482 241.463L435.999 278.451L489.505 355.996L246.223 538.459L43.7252 421.661L-52.1268 445.009L-201.158 359.706L-221.482 292.46L-449.322 242.927L-448.819 183.599L-315.302 106.52L-292.485 34.3098L-125.668 -3.39206L-9.98496 -70.6128L-60.3855 -139.913L117.993 -242.891L381.057 -193.385Z" stroke="#373737" stroke-width="1.38364"/>
<path d="M365.542 -168.536L380.707 -67.275L431.644 -37.8689L581.811 -42.8734L606.219 16.8303L723.817 57.6029L572.194 134.286L635.651 171.752L561.387 236.429L415.856 271.218L463.936 341.742L239.959 508.441L53.0758 400.762L-36.0487 421.549L-174.855 342.883L-193.484 280.956L-402.337 235.267L-401.234 180.512L-278.201 109.486L-254.357 41.6026L-101.688 6.71109L4.11016 -55.2394L-41.2325 -119.26L123.139 -214.151L365.542 -168.536Z" stroke="#373737" stroke-width="1.38364"/>
<path d="M350.029 -143.686L365.191 -51.3738L413.9 -23.2541L550.373 -26.8118L572.521 28.456L678.547 66.2817L539.828 136.753L598.085 171.634L529.294 231.394L395.716 263.984L438.368 327.487L233.697 478.423L62.4283 379.861L-19.9687 398.088L-148.55 326.059L-165.484 269.452L-355.35 227.606L-353.647 177.425L-241.098 112.451L-216.228 48.8949L-77.7052 16.8138L18.207 -39.8663L-22.0778 -98.6067L128.287 -185.412L350.029 -143.686Z" stroke="#373737" stroke-width="1.38364"/>
<path d="M334.515 -118.836L349.674 -35.4724L396.155 -8.63906L518.935 -10.7502L538.822 40.0817L633.277 74.9607L507.462 139.221L560.519 171.515L497.201 226.36L375.574 256.751L412.799 313.233L227.434 448.404L71.78 358.961L-3.88948 374.628L-122.245 309.235L-137.486 257.948L-308.364 219.945L-306.06 174.337L-203.996 115.416L-178.099 56.1874L-53.7234 26.9167L32.3032 -24.4931L-2.92383 -77.9537L133.434 -156.673L334.515 -118.836Z" stroke="#373737" stroke-width="1.38364"/>
<path d="M319 -93.9866L334.156 -19.5708L378.409 5.97613L487.496 5.31163L505.123 51.7076L588.007 83.6399L475.094 141.689L522.951 171.397L465.106 221.325L355.431 249.517L387.23 298.979L221.17 418.386L81.1309 338.062L12.1889 351.167L-95.9414 292.412L-109.487 246.444L-261.378 212.285L-258.474 171.25L-166.895 118.381L-139.972 63.4801L-29.7424 37.0198L46.3986 -9.11972L16.2294 -57.3005L138.58 -127.933L319 -93.9866Z" stroke="#373737" stroke-width="1.38364"/>
<path d="M303.486 -69.137L318.64 -3.66949L360.664 20.5911L456.058 21.3733L471.424 63.3333L542.737 92.3188L442.728 144.156L485.385 171.279L433.013 216.291L335.29 242.284L361.662 284.725L214.907 388.368L90.4827 317.162L28.2682 327.707L-69.6368 275.588L-81.4886 234.939L-214.392 204.624L-210.888 168.163L-129.793 121.346L-101.843 70.7725L-5.76061 47.1227L60.4947 6.25346L35.3834 -36.6476L143.727 -99.1941L303.486 -69.137Z" stroke="#373737" stroke-width="1.38364"/>
<path d="M287.973 -44.2878L303.123 12.2315L342.919 35.2058L424.62 37.4346L437.725 74.9587L497.467 100.997L410.362 146.624L447.818 171.16L400.92 211.256L315.148 235.05L336.093 270.47L208.645 358.349L99.8347 296.261L44.3476 304.246L-43.3322 258.764L-53.4895 223.435L-167.405 196.963L-163.301 165.075L-92.6904 124.311L-63.7146 78.0646L18.2214 57.2252L74.5911 21.6263L54.5377 -15.995L148.874 -70.4553L287.973 -44.2878Z" stroke="#373737" stroke-width="1.38364"/>
<path d="M272.458 -19.4383L287.606 28.1327L325.174 49.8206L393.181 53.4961L404.026 86.5843L452.197 109.676L377.995 149.091L410.251 171.041L368.826 206.222L295.006 227.817L310.525 256.216L202.381 328.33L109.186 275.361L60.4266 280.785L-17.0279 241.94L-25.4909 211.931L-120.419 189.302L-115.715 161.987L-55.5886 127.276L-25.5864 85.357L42.2029 67.3279L88.687 36.9993L73.6914 4.65786L154.021 -41.7161L272.458 -19.4383Z" stroke="#373737" stroke-width="1.38364"/>
<path d="M256.944 5.4118L272.089 44.0345L307.428 64.4361L361.743 69.5582L370.327 98.2104L406.926 118.356L345.628 151.559L372.684 170.923L336.732 201.188L274.864 220.584L284.956 241.962L196.118 298.313L118.537 254.461L76.5054 257.325L9.27614 225.116L2.50748 200.427L-73.4335 181.642L-68.1293 158.9L-18.487 130.242L12.5416 92.6499L66.1842 77.4313L102.783 52.373L92.8449 25.3113L159.167 -12.9764L256.944 5.4118Z" stroke="#373737" stroke-width="1.38364"/>
<path d="M241.43 30.2613L256.572 59.9357L289.683 79.051L330.304 85.6197L336.627 109.836L361.656 127.034L313.261 154.027L335.117 170.805L304.638 196.153L254.722 213.35L259.387 227.707L189.855 268.294L127.889 233.561L92.5843 233.865L35.5804 208.292L30.5061 188.922L-26.4475 173.981L-20.5431 155.813L18.6148 133.207L50.6698 99.9423L90.1658 87.534L116.879 67.746L111.999 45.9641L164.314 15.7627L241.43 30.2613Z" stroke="#373737" stroke-width="1.38364"/>
<path d="M225.916 55.1107L241.056 75.8368L271.939 93.6657L298.866 101.681L302.929 121.461L316.387 135.713L280.895 156.494L297.551 170.686L272.545 191.118L234.581 206.117L233.819 213.453L183.592 238.275L137.241 212.661L108.664 210.404L61.8854 191.468L58.5054 177.418L20.5393 166.32L27.0438 152.725L55.7174 136.172L88.7988 107.234L114.148 97.6366L130.975 83.119L131.153 66.6169L169.461 44.5017L225.916 55.1107Z" stroke="#373737" stroke-width="1.38364"/>
<path d="M210.401 79.9606L225.538 91.7386L254.193 108.281L267.427 117.743L269.229 133.088L271.116 144.393L248.528 158.962L259.983 170.568L240.45 186.084L214.438 198.884L208.249 199.199L177.328 208.257L146.592 191.761L124.742 186.944L88.1889 174.645L86.5033 165.914L67.5245 158.66L74.6293 149.638L92.8185 139.138L126.926 114.527L138.129 107.74L145.07 98.4925L150.306 87.2702L174.607 73.2413L210.401 79.9606Z" stroke="#373737" stroke-width="1.38364"/>
</g>
<path d="M252.223 222.163L256.27 224.499L261.037 221.747L257.066 219.454C258.404 218.475 259.403 217.463 260.063 216.418C261.007 214.891 261.229 213.413 260.73 211.983C260.23 210.536 258.978 209.233 256.973 208.076C254.68 206.752 252.227 206.047 249.613 205.96C247 205.874 243.899 206.393 240.312 207.517L232.513 209.994C230.339 210.67 228.515 211.031 227.041 211.075C225.567 211.12 224.329 210.853 223.326 210.274C222.415 209.748 221.877 209.121 221.71 208.393C221.544 207.647 221.735 206.889 222.283 206.116C222.831 205.327 223.721 204.594 224.953 203.918C226.245 203.189 227.651 202.675 229.171 202.376C230.707 202.069 232.257 201.98 233.822 202.111C235.402 202.233 236.883 202.571 238.265 203.123L242.258 199.818C239.828 198.907 237.344 198.359 234.807 198.176C232.284 197.984 229.807 198.152 227.375 198.679C225.966 198.982 224.598 199.403 223.271 199.944L219.171 197.577L214.403 200.33L218.414 202.645C217.251 203.518 216.376 204.417 215.788 205.343C214.889 206.755 214.682 208.137 215.167 209.488C215.667 210.83 216.874 212.053 218.787 213.158C222.841 215.499 227.856 215.76 233.83 213.941L243.909 210.858C245.87 210.269 247.519 209.984 248.856 210.001C250.209 210.009 251.432 210.329 252.525 210.96C254.059 211.845 254.665 212.95 254.345 214.275C254.039 215.591 252.852 216.846 250.784 218.04C248.701 219.243 246.344 219.946 243.715 220.148C241.071 220.342 238.549 220.01 236.149 219.151L232.179 222.311C234.594 223.302 237.131 223.906 239.79 224.124C242.449 224.325 245.086 224.144 247.7 223.581C249.268 223.244 250.775 222.771 252.223 222.163Z" fill="#E9FF6B"/>
<path fill-rule="evenodd" clip-rule="evenodd" d="M295.065 196.5C296.965 196.175 298.828 195.485 300.653 194.432C302.949 193.106 304.424 191.728 305.08 190.298C305.57 189.214 305.635 188.066 305.274 186.855L308.842 188.915L313.062 186.479L297.915 177.734C296.882 177.138 295.872 176.608 294.885 176.143C293.898 175.679 292.804 175.328 291.604 175.092C289.219 174.593 286.833 174.602 284.447 175.121C282.06 175.622 279.764 176.509 277.56 177.782C274.716 179.424 273.057 181.1 272.584 182.811C272.126 184.513 272.649 186.149 274.151 187.718L279.966 185.94C279.01 184.896 278.775 183.892 279.263 182.926C279.735 181.953 280.617 181.092 281.91 180.346C283.963 179.161 285.878 178.599 287.656 178.66C289.208 178.697 290.806 179.149 292.449 180.016C291.646 180.63 290.837 181.248 290.023 181.869C288.715 182.87 287.49 183.84 286.35 184.779C285.209 185.718 284.25 186.596 283.474 187.412C282.622 188.377 282.097 189.303 281.898 190.189C281.684 191.067 281.828 191.904 282.328 192.702C282.829 193.501 283.701 194.259 284.947 194.978C286.283 195.749 287.825 196.28 289.572 196.568C291.319 196.84 293.15 196.817 295.065 196.5ZM300.385 189.274C299.883 190.107 298.955 190.915 297.601 191.696C296.583 192.284 295.587 192.675 294.614 192.869C293.641 193.062 292.729 193.097 291.879 192.975C291.012 192.844 290.261 192.594 289.623 192.226C288.97 191.849 288.56 191.445 288.393 191.016C288.242 190.577 288.258 190.121 288.441 189.647C288.639 189.164 288.951 188.669 289.377 188.16C289.91 187.572 290.587 186.944 291.408 186.277C292.229 185.593 293.165 184.842 294.214 184.026C294.888 183.502 295.609 182.939 296.377 182.339C296.767 182.577 297.209 182.854 297.703 183.169C298.584 183.713 299.259 184.269 299.73 184.839C300.352 185.409 300.739 186.08 300.89 186.852C301.041 187.624 300.873 188.431 300.385 189.274Z" fill="#E9FF6B"/>
<path d="M324.755 179.729L291.213 170.689L296.026 167.91L321.205 174.888L309.119 160.352L313.932 157.573L329.591 176.937L324.755 179.729Z" fill="#E9FF6B"/>
<path d="M315.761 156.517L349.303 165.557L354.139 162.765L338.48 143.402L333.667 146.18L345.753 160.716L320.574 153.739L315.761 156.517Z" fill="#E9FF6B"/>
<path d="M381.231 159.749L374.253 151.032L339.789 142.646L344.762 139.775L370.534 146.245L358.996 131.558L363.831 128.766L385.77 157.128L381.231 159.749Z" fill="#E9FF6B"/>
<path d="M384.139 139.634L389.173 142.54L394.214 139.63L389.18 136.724L384.139 139.634Z" fill="#E9FF6B"/>
<path d="M267.09 208.659C264.983 208.487 262.987 208.01 261.106 207.239L260.495 206.988L264.297 203.963L264.883 204.173C266.531 204.762 268.235 204.983 270.022 204.852C271.796 204.714 273.403 204.24 274.85 203.404C276.306 202.564 277.089 201.713 277.29 200.85L277.29 200.848C277.5 199.985 277.113 199.301 276.15 198.745C275.454 198.343 274.724 198.163 273.941 198.159L273.932 198.159C273.119 198.149 272.025 198.325 270.614 198.748L270.612 198.749L263.118 201.044C260.811 201.746 258.624 202.068 256.575 201.963C254.514 201.856 252.672 201.32 251.061 200.39C249.553 199.519 248.576 198.538 248.172 197.449L248.171 197.446C247.781 196.356 247.954 195.247 248.666 194.128C249.38 193.008 250.614 191.951 252.337 190.956L252.341 190.954L252.345 190.952C254.024 190.01 255.817 189.327 257.726 188.916C259.646 188.499 261.61 188.365 263.607 188.516C265.619 188.661 267.57 189.093 269.457 189.8L270.1 190.042L266.265 193.214L265.657 192.971C264.72 192.598 263.729 192.374 262.677 192.293L262.669 192.292C261.627 192.205 260.594 192.264 259.561 192.471L259.557 192.472C258.544 192.672 257.591 193.017 256.698 193.52L256.695 193.522L256.691 193.524C255.84 193.991 255.245 194.487 254.882 195.009L254.88 195.012C254.515 195.525 254.397 196.014 254.502 196.487C254.603 196.933 254.928 197.312 255.491 197.637C256.08 197.977 256.792 198.135 257.688 198.107C258.624 198.079 259.866 197.844 261.441 197.353L267.243 195.509C269.971 194.653 272.42 194.227 274.559 194.297C276.725 194.368 278.711 194.953 280.512 195.993C282.093 196.906 283.102 197.948 283.505 199.116C283.904 200.263 283.72 201.442 282.976 202.642L282.974 202.645C282.216 203.844 280.903 204.973 279.065 206.033C277.304 207.05 275.395 207.787 273.336 208.23C271.283 208.673 269.2 208.818 267.098 208.66L267.09 208.659Z" fill="#E9FF6B"/>
<path d="M285.968 249.507C285.229 249.933 284.403 250.245 283.488 250.442C282.573 250.626 281.653 250.68 280.727 250.604L280.48 249.048C282 249.188 283.207 249.001 284.1 248.485C285.301 247.792 285.191 247.035 283.769 246.214L277.785 242.759L273.669 245.136L271.867 244.095L278.132 240.479L285.802 244.907C287.158 245.689 287.847 246.469 287.869 247.245C287.88 248.015 287.246 248.769 285.968 249.507ZM296.603 243.31C295.71 243.825 294.713 244.178 293.611 244.369C292.509 244.56 291.412 244.576 290.321 244.417C289.23 244.245 288.249 243.908 287.379 243.405C286.508 242.902 285.929 242.339 285.643 241.716C285.367 241.086 285.395 240.453 285.726 239.817C286.056 239.181 286.668 238.605 287.56 238.089C288.464 237.568 289.467 237.211 290.569 237.021C291.671 236.83 292.762 236.817 293.842 236.982C294.933 237.142 295.914 237.472 296.785 237.975C297.655 238.478 298.234 239.047 298.52 239.683C298.807 240.307 298.785 240.937 298.454 241.573C298.124 242.209 297.507 242.788 296.603 243.31ZM294.834 242.289C295.594 241.85 295.969 241.341 295.958 240.762C295.947 240.183 295.528 239.655 294.702 239.177C293.875 238.7 292.961 238.458 291.958 238.452C290.955 238.446 290.073 238.662 289.313 239.101C288.552 239.54 288.178 240.049 288.189 240.628C288.211 241.201 288.635 241.725 289.462 242.203C290.288 242.68 291.197 242.925 292.189 242.937C293.192 242.944 294.074 242.728 294.834 242.289ZM302.37 229.654L307.776 237.547C308.349 238.323 308.553 238.981 308.387 239.522C308.233 240.069 307.765 240.569 306.982 241.02C306.542 241.275 306.035 241.485 305.462 241.65C304.888 241.816 304.337 241.905 303.808 241.917L303.114 240.562C303.5 240.556 303.88 240.508 304.255 240.419C304.64 240.324 304.971 240.196 305.247 240.037C305.61 239.827 305.814 239.602 305.858 239.36C305.913 239.112 305.82 238.803 305.577 238.434L305.379 238.148L292.667 235.256L294.816 234.016L304.123 236.182L300.387 230.8L302.37 229.654ZM292.348 255.27L294.497 254.03L304.25 259.66L310.301 256.167L312.119 257.217L303.92 261.951L292.348 255.27ZM308.144 249.205C309.444 248.455 310.75 248.063 312.061 248.032C313.373 247.987 314.657 248.327 315.913 249.053L321.087 252.04L319.137 253.166L318.062 252.546C318.194 252.915 318.128 253.296 317.864 253.691C317.599 254.072 317.136 254.454 316.475 254.836C315.814 255.218 315.125 255.488 314.409 255.647C313.681 255.8 312.982 255.841 312.309 255.771C311.637 255.688 311.047 255.501 310.541 255.208C309.747 254.75 309.405 254.216 309.516 253.605C309.626 252.981 310.315 252.304 311.582 251.572L313.863 250.255L313.731 250.179C313.114 249.822 312.453 249.657 311.747 249.683C311.053 249.702 310.342 249.921 309.615 250.341C309.119 250.627 308.706 250.955 308.375 251.324C308.055 251.687 307.868 252.043 307.813 252.393L305.499 251.992C305.609 251.521 305.895 251.044 306.358 250.561C306.821 250.077 307.416 249.625 308.144 249.205ZM315.401 253.719C315.919 253.42 316.26 253.089 316.426 252.727C316.591 252.351 316.536 251.989 316.26 251.639L315.235 251.047L313.103 252.278C311.913 252.965 311.709 253.535 312.491 253.987C312.866 254.203 313.312 254.289 313.83 254.244C314.348 254.2 314.872 254.025 315.401 253.719ZM318.168 245.021C317.838 244.143 318.422 243.272 319.921 242.406L321.888 243.542C321.678 243.625 321.502 243.708 321.359 243.79C320.554 244.255 320.163 244.754 320.185 245.289C320.196 245.817 320.642 246.335 321.524 246.844L325.806 249.316L323.739 250.509L314.912 245.413L316.879 244.277L318.168 245.021ZM334.603 244.371C333.71 244.886 332.713 245.239 331.611 245.43C330.508 245.621 329.412 245.637 328.321 245.478C327.23 245.306 326.249 244.969 325.378 244.466C324.508 243.964 323.929 243.401 323.643 242.777C323.367 242.147 323.395 241.514 323.725 240.878C324.056 240.242 324.668 239.666 325.56 239.151C326.464 238.629 327.467 238.273 328.569 238.082C329.671 237.891 330.762 237.878 331.842 238.044C332.933 238.203 333.914 238.534 334.784 239.036C335.655 239.539 336.234 240.108 336.52 240.744C336.807 241.368 336.785 241.998 336.454 242.634C336.123 243.27 335.506 243.849 334.603 244.371ZM332.834 243.35C333.594 242.911 333.969 242.402 333.958 241.823C333.947 241.244 333.528 240.716 332.702 240.239C331.875 239.761 330.96 239.52 329.957 239.513C328.955 239.507 328.073 239.723 327.312 240.162C326.552 240.601 326.177 241.11 326.188 241.689C326.21 242.262 326.635 242.787 327.461 243.264C328.288 243.741 329.197 243.986 330.189 243.999C331.192 244.005 332.073 243.789 332.834 243.35ZM340.37 230.716L345.776 238.608C346.349 239.384 346.553 240.043 346.387 240.583C346.233 241.13 345.765 241.63 344.982 242.082C344.541 242.336 344.034 242.546 343.461 242.712C342.888 242.877 342.337 242.966 341.808 242.979L341.114 241.624C341.5 241.617 341.88 241.569 342.254 241.48C342.64 241.385 342.971 241.258 343.246 241.099C343.61 240.889 343.814 240.663 343.858 240.421C343.913 240.173 343.819 239.864 343.577 239.495L343.379 239.209L330.666 236.317L332.815 235.077L342.122 237.243L338.386 231.861L340.37 230.716Z" fill="#FAFAFA"/>
</g>
<defs>
<clipPath id="clip0_143_210">
<rect width="325" height="473" fill="white"/>
</clipPath>
</defs>
</svg>
