<svg width="356" height="473" viewBox="0 0 356 473" fill="none" xmlns="http://www.w3.org/2000/svg">
<mask id="mask0_48_675" style="mask-type:alpha" maskUnits="userSpaceOnUse" x="0" y="0" width="356" height="473">
<rect width="356" height="473" rx="36" fill="#F9F9F9"/>
</mask>
<g mask="url(#mask0_48_675)">
<g filter="url(#filter0_d_48_675)">
<g clip-path="url(#clip0_48_675)">
<rect x="238.581" y="172.523" width="304.677" height="191.309" transform="rotate(45 238.581 172.523)" fill="black"/>
<mask id="mask1_48_675" style="mask-type:alpha" maskUnits="userSpaceOnUse" x="103" y="172" width="352" height="352">
<rect x="238.581" y="172.522" width="304.677" height="191.309" transform="rotate(45 238.581 172.522)" fill="black"/>
</mask>
<g mask="url(#mask1_48_675)">
<path d="M511.3 353.053L419.358 359.81L394.683 384.485L400.777 463.575L347.864 476.462L311.857 539.154L243.102 460.119L210.202 493.018L152.712 455.062L122.475 379.588L57.2235 405.839L-95.7293 288.871L1.42807 191.713L-18.5626 146.019L52.3778 75.0792L108.37 65.2715L149.555 -44.677L198.861 -44.7203L263.006 19.4246L322.063 29.1313L353.322 109.741L409.256 165.675L466.802 140.971L552.5 226.669L511.3 353.053Z" stroke="#373737" stroke-width="0.616339"/>
<path d="M261.942 254.194L257.576 267.676L245.804 279.448L228.97 279.039L216.071 270.411L209.112 273.197L192.753 260.671L203.101 250.323L214.487 236.851L218.856 225.123L224.12 225.131L230.984 231.995L246.634 247.646L252.772 245.023L261.942 254.194Z" stroke="#373737" stroke-width="0.616339"/>
<path d="M492.126 346.142L407.089 352.898L383.407 376.581L388.384 449.572L338.894 461.451L305.16 518.989L241.199 445.701L210.294 476.285L156.596 440.766L128.056 370.616L68.2224 394.45L-72.5668 286.081L17.5548 195.879L-0.460222 153.182L65.3593 86.7967L117.247 77.7437L155.466 -23.7469L201.244 -23.5228L260.719 35.9518L316.436 46.1157L345.527 120.423L397.395 171.954L450.867 149.503L530.325 228.961L492.126 346.142Z" stroke="#373737" stroke-width="0.616339"/>
<path d="M472.952 339.231L394.819 345.986L372.129 368.676L375.991 435.567L329.923 446.44L298.463 498.823L239.294 431.283L210.385 459.55L160.48 426.47L133.637 361.644L79.2204 383.06L-49.4052 283.291L33.6807 200.044L17.6413 160.344L78.34 98.5135L126.123 90.2153L161.377 -2.81745L203.626 -2.32604L258.43 52.4784L310.809 63.0995L337.731 131.106L385.532 178.233L434.93 158.035L508.149 231.254L472.952 339.231Z" stroke="#373737" stroke-width="0.616339"/>
<path d="M453.778 332.321L382.549 339.075L360.852 360.772L363.597 421.563L320.953 431.429L291.766 478.658L237.39 416.866L210.476 442.817L164.365 412.174L139.219 352.672L90.2193 371.671L-26.2427 280.501L49.8074 204.21L35.7437 167.507L91.3215 110.231L135 102.687L167.288 18.1126L206.008 18.8713L256.142 69.0055L305.182 80.0839L329.936 141.788L373.67 184.512L418.995 166.567L485.974 233.547L453.778 332.321Z" stroke="#373737" stroke-width="0.616339"/>
<path d="M434.604 325.41L370.28 332.163L349.575 352.867L351.204 407.559L311.982 416.418L285.07 458.493L235.486 402.448L210.568 426.083L168.25 397.878L144.8 343.7L101.218 360.281L-3.08033 277.711L65.9341 208.376L53.846 174.669L104.303 121.948L143.876 115.159L173.199 39.0422L208.39 40.0683L253.854 85.5323L299.555 97.0679L322.141 152.471L361.809 190.791L403.059 175.099L463.799 235.839L434.604 325.41Z" stroke="#373737" stroke-width="0.616339"/>
<path d="M415.43 318.499L358.011 325.25L338.298 344.962L338.811 393.555L303.012 401.406L278.373 438.327L233.582 388.031L210.659 409.348L172.134 383.581L150.381 334.727L112.217 348.892L20.0819 274.921L82.0606 212.541L71.9481 181.831L117.284 133.665L152.753 127.631L179.11 59.9718L210.773 61.2652L251.566 102.059L293.928 114.052L314.345 163.153L349.946 197.07L387.123 183.631L441.623 238.131L415.43 318.499Z" stroke="#373737" stroke-width="0.616339"/>
<path d="M396.256 311.588L345.741 318.338L327.021 337.058L326.418 379.551L294.041 386.395L271.676 418.162L231.678 373.613L210.751 392.614L176.019 369.286L155.963 325.755L123.215 337.502L43.244 272.131L98.1869 216.707L90.0502 188.994L130.265 145.382L161.63 140.103L185.021 80.9016L213.155 82.4624L249.278 118.586L288.301 131.036L306.55 173.836L338.084 203.349L371.187 192.163L419.448 240.424L396.256 311.588Z" stroke="#373737" stroke-width="0.616339"/>
<path d="M377.082 304.678L333.472 311.427L315.745 329.154L314.025 365.547L285.071 371.385L264.98 397.997L229.774 359.196L210.842 375.881L179.904 354.99L161.544 316.783L134.214 326.113L66.4065 269.342L114.314 220.873L108.153 196.156L143.247 157.1L170.507 152.575L190.932 101.832L215.537 103.66L246.991 135.113L282.675 148.02L298.754 184.518L326.223 209.628L355.251 200.695L397.273 242.717L377.082 304.678Z" stroke="#373737" stroke-width="0.616339"/>
<path d="M357.908 297.767L321.202 304.515L304.468 321.249L301.632 351.543L276.101 356.374L258.283 377.831L227.87 344.778L210.934 359.147L183.788 340.694L167.126 307.811L145.213 314.724L89.569 266.552L130.44 225.038L126.255 203.319L156.228 168.817L179.383 165.047L196.844 122.762L217.92 124.857L244.703 151.64L277.048 165.005L290.959 195.201L314.361 215.907L339.316 209.227L375.098 245.01L357.908 297.767Z" stroke="#373737" stroke-width="0.616339"/>
<path d="M338.734 290.856L308.932 297.603L293.191 313.345L289.238 337.539L267.13 341.362L251.586 357.666L225.966 330.36L211.025 342.412L187.673 326.397L172.707 298.839L156.211 303.334L112.731 263.762L146.567 229.204L144.357 210.481L169.209 180.534L188.26 177.519L202.754 143.691L220.302 146.054L242.415 168.167L271.421 181.988L283.163 205.883L302.498 222.186L323.379 217.759L352.922 247.302L338.734 290.856Z" stroke="#373737" stroke-width="0.616339"/>
<path d="M319.56 283.946L296.663 290.691L281.914 305.44L276.845 323.535L258.16 326.351L244.889 337.5L224.062 315.943L211.116 325.678L191.557 312.101L178.288 289.867L167.21 291.945L135.893 260.972L162.693 233.369L162.459 217.643L182.191 192.251L197.136 189.991L208.665 164.621L222.684 167.251L240.127 184.694L265.794 198.972L275.368 216.566L290.636 228.465L307.443 226.291L330.747 249.595L319.56 283.946Z" stroke="#373737" stroke-width="0.616339"/>
<path d="M300.386 277.035L284.394 283.779L270.637 297.536L264.452 309.531L249.189 311.34L238.193 317.335L222.158 301.525L211.208 308.945L195.442 297.806L183.869 280.895L178.209 280.555L159.056 258.182L178.82 237.535L180.561 224.806L195.172 203.968L206.013 202.463L214.577 185.551L225.066 188.448L237.839 201.221L260.167 215.957L267.573 227.248L278.775 234.744L291.508 234.823L308.572 251.887L300.386 277.035Z" stroke="#373737" stroke-width="0.616339"/>
<path d="M281.212 270.124L272.124 276.867L259.36 289.631L252.059 295.526L240.219 296.329L231.496 297.17L220.254 287.108L211.299 292.21L199.327 283.51L189.451 271.923L189.207 269.166L182.218 255.392L194.946 241.701L198.663 231.968L208.153 215.685L214.89 214.935L220.488 206.481L227.448 209.645L235.551 217.748L254.54 232.941L259.777 237.931L266.913 241.023L275.572 243.355L286.396 254.18L281.212 270.124Z" stroke="#373737" stroke-width="0.616339"/>
</g>
<path d="M171.488 288.753L169.686 290.556L171.809 292.68L173.578 290.911C174.334 291.507 175.115 291.952 175.921 292.246C177.099 292.666 178.24 292.765 179.343 292.543C180.46 292.32 181.465 291.763 182.358 290.87C183.379 289.848 183.923 288.755 183.99 287.591C184.057 286.427 183.657 285.046 182.789 283.448L180.878 279.974C180.356 279.005 180.078 278.193 180.043 277.536C180.009 276.88 180.215 276.328 180.662 275.882C181.068 275.476 181.551 275.236 182.113 275.162C182.688 275.088 183.274 275.173 183.87 275.417C184.479 275.661 185.045 276.057 185.566 276.606C186.129 277.182 186.525 277.808 186.756 278.485C186.993 279.169 187.061 279.86 186.96 280.557C186.866 281.261 186.606 281.921 186.18 282.536L188.73 284.315C189.433 283.232 189.855 282.126 189.996 280.996C190.145 279.872 190.015 278.769 189.608 277.685C189.375 277.057 189.05 276.448 188.632 275.857L190.459 274.031L188.335 271.907L186.549 273.693C185.875 273.176 185.181 272.786 184.467 272.524C183.377 272.123 182.311 272.031 181.268 272.247C180.233 272.47 179.289 273.007 178.437 273.86C176.631 275.666 176.429 277.899 177.832 280.561L180.211 285.05C180.665 285.924 180.886 286.658 180.873 287.254C180.866 287.856 180.62 288.401 180.133 288.888C179.45 289.571 178.597 289.841 177.575 289.699C176.559 289.562 175.591 289.034 174.67 288.113C173.742 287.185 173.199 286.135 173.043 284.964C172.893 283.786 173.149 282.662 173.812 281.593L171.374 279.825C170.61 280.901 170.144 282.031 169.975 283.215C169.82 284.4 169.96 285.574 170.394 286.739C170.654 287.437 171.019 288.109 171.488 288.753Z" fill="#E9FF6B"/>
<path fill-rule="evenodd" clip-rule="evenodd" d="M191.29 307.838C191.541 308.684 192.073 309.513 192.886 310.326C193.908 311.349 194.972 312.007 196.075 312.298C196.912 312.517 197.797 312.546 198.732 312.385L197.142 313.974L199.022 315.854L205.77 309.107C206.23 308.647 206.639 308.197 206.997 307.757C207.356 307.317 207.626 306.83 207.809 306.296C208.194 305.233 208.186 304.17 207.786 303.107C207.399 302.044 206.715 301.022 205.733 300.04C204.466 298.773 203.173 298.034 201.853 297.823C200.539 297.619 199.277 297.852 198.066 298.521L199.438 301.111C200.244 300.686 201.018 300.581 201.763 300.798C202.515 301.009 203.178 301.402 203.754 301.978C204.669 302.892 205.102 303.745 205.056 304.537C205.027 305.228 204.678 305.94 204.009 306.672C203.535 306.314 203.058 305.954 202.579 305.591C201.807 305.009 201.058 304.463 200.334 303.955C199.609 303.447 198.932 303.02 198.302 302.674C197.557 302.295 196.843 302.061 196.159 301.972C195.482 301.877 194.836 301.941 194.22 302.164C193.604 302.387 193.019 302.776 192.464 303.33C191.869 303.925 191.46 304.612 191.237 305.39C191.028 306.169 191.045 306.984 191.29 307.838ZM196.866 310.207C196.222 309.983 195.599 309.57 194.997 308.967C194.543 308.513 194.241 308.07 194.092 307.636C193.943 307.203 193.915 306.797 194.01 306.418C194.111 306.032 194.304 305.697 194.588 305.413C194.879 305.122 195.19 304.94 195.522 304.866C195.86 304.798 196.212 304.805 196.578 304.887C196.95 304.975 197.333 305.114 197.725 305.304C198.179 305.541 198.663 305.842 199.178 306.208C199.706 306.574 200.285 306.991 200.915 307.458C201.319 307.759 201.753 308.08 202.216 308.422C202.033 308.596 201.819 308.793 201.576 309.012C201.157 309.405 200.727 309.706 200.287 309.915C199.847 310.192 199.33 310.365 198.734 310.432C198.138 310.499 197.516 310.424 196.866 310.207Z" fill="#E9FF6B"/>
<path d="M204.231 321.063L211.206 306.121L213.35 308.265L207.966 319.481L219.182 314.098L221.326 316.242L206.385 323.217L204.231 321.063Z" fill="#E9FF6B"/>
<path d="M222.141 317.056L215.165 331.997L217.32 334.151L232.261 327.176L230.117 325.032L218.901 330.416L224.285 319.2L222.141 317.056Z" fill="#E9FF6B"/>
<path d="M219.647 346.22L226.373 343.111L232.844 327.76L235.059 329.975L230.067 341.455L241.399 336.315L243.553 338.469L221.669 348.242L219.647 346.22Z" fill="#E9FF6B"/>
<path d="M235.168 347.515L232.925 349.757L235.171 352.003L237.413 349.761L235.168 347.515Z" fill="#E9FF6B"/>
<path d="M181.908 295.376C182.041 294.438 182.409 293.549 183.004 292.711L183.197 292.438L185.531 294.132L185.369 294.393C184.915 295.127 184.744 295.886 184.846 296.682C184.952 297.472 185.318 298.188 185.963 298.833C186.611 299.481 187.268 299.83 187.933 299.92L187.935 299.92C188.601 300.013 189.129 299.841 189.557 299.412C189.868 299.102 190.007 298.776 190.01 298.428L190.01 298.424C190.018 298.062 189.882 297.574 189.555 296.946L189.554 296.945L187.784 293.607C187.242 292.579 186.993 291.605 187.075 290.692C187.157 289.774 187.571 288.954 188.288 288.236C188.96 287.564 189.717 287.129 190.558 286.949L190.56 286.948C191.401 286.775 192.257 286.852 193.12 287.169C193.984 287.487 194.8 288.037 195.567 288.804L195.569 288.806L195.571 288.808C196.298 289.556 196.825 290.354 197.142 291.205C197.463 292.06 197.567 292.935 197.45 293.825C197.339 294.721 197.005 295.59 196.459 296.43L196.273 296.717L193.825 295.008L194.013 294.737C194.301 294.32 194.474 293.879 194.536 293.41L194.537 293.407C194.604 292.942 194.558 292.482 194.398 292.022L194.398 292.021C194.244 291.569 193.977 291.145 193.589 290.747L193.587 290.745L193.586 290.744C193.226 290.365 192.843 290.1 192.441 289.938L192.438 289.937C192.042 289.775 191.665 289.722 191.3 289.769C190.956 289.814 190.663 289.958 190.412 290.209C190.15 290.472 190.029 290.789 190.05 291.188C190.072 291.605 190.253 292.158 190.631 292.86L192.055 295.444C192.715 296.659 193.044 297.75 192.99 298.703C192.935 299.668 192.483 300.553 191.681 301.355C190.977 302.059 190.173 302.509 189.272 302.688C188.386 302.866 187.477 302.784 186.551 302.452L186.548 302.452C185.624 302.114 184.752 301.529 183.934 300.71C183.149 299.926 182.581 299.075 182.239 298.158C181.897 297.244 181.786 296.316 181.907 295.379L181.908 295.376Z" fill="#E9FF6B"/>
<g clip-path="url(#clip1_48_675)">
<g filter="url(#filter1_b_48_675)">
<ellipse cx="306.967" cy="460.983" rx="13.2192" ry="13.2192" transform="rotate(45 306.967 460.983)" fill="#FAFAFA" fill-opacity="0.3"/>
</g>
<g filter="url(#filter2_b_48_675)">
<path d="M327.905 481.922C322.742 487.084 314.372 487.084 309.21 481.922C304.048 476.759 304.048 468.389 309.21 463.227C314.372 458.064 322.742 458.064 327.905 463.227C333.067 468.389 333.067 476.759 327.905 481.922Z" fill="#FAFAFA" fill-opacity="0.7"/>
</g>
<g filter="url(#filter3_b_48_675)">
<path d="M320.096 459.444C316.221 458.993 312.183 460.253 309.21 463.227C306.237 466.2 304.976 470.238 305.427 474.113C309.303 474.565 313.341 473.304 316.314 470.331C319.287 467.357 320.548 463.32 320.096 459.444Z" fill="#FAFAFA" fill-opacity="0.6"/>
</g>
</g>
<path d="M151.416 302.21C151.148 301.942 150.951 301.641 150.827 301.308C150.711 300.976 150.677 300.641 150.725 300.304L151.705 300.214C151.617 300.767 151.735 301.206 152.059 301.531C152.496 301.968 152.973 301.927 153.49 301.41L155.667 299.234L154.17 297.737L154.825 297.082L157.104 299.36L154.314 302.15C153.821 302.643 153.33 302.893 152.841 302.901C152.356 302.905 151.881 302.675 151.416 302.21ZM155.32 306.078C154.995 305.753 154.773 305.391 154.653 304.99C154.533 304.589 154.523 304.19 154.623 303.793C154.731 303.397 154.943 303.04 155.26 302.723C155.577 302.407 155.931 302.196 156.324 302.092C156.721 301.992 157.12 302.002 157.521 302.122C157.921 302.242 158.284 302.465 158.609 302.789C158.938 303.118 159.162 303.483 159.282 303.884C159.402 304.284 159.41 304.681 159.306 305.074C159.206 305.471 158.998 305.827 158.681 306.144C158.364 306.461 158.006 306.671 157.605 306.775C157.212 306.88 156.815 306.872 156.414 306.751C156.014 306.631 155.649 306.407 155.32 306.078ZM155.963 305.435C156.24 305.711 156.561 305.848 156.925 305.844C157.29 305.84 157.623 305.687 157.923 305.387C158.224 305.086 158.376 304.753 158.38 304.389C158.384 304.024 158.248 303.703 157.972 303.427C157.695 303.15 157.374 303.014 157.01 303.018C156.649 303.026 156.318 303.18 156.018 303.481C155.717 303.781 155.563 304.112 155.555 304.473C155.551 304.837 155.687 305.158 155.963 305.435ZM163.923 308.176L158.951 310.142C158.462 310.35 158.047 310.424 157.706 310.364C157.362 310.308 157.047 310.138 156.762 309.853C156.602 309.693 156.47 309.508 156.366 309.3C156.261 309.091 156.205 308.891 156.197 308.699L157.051 308.446C157.055 308.586 157.085 308.725 157.141 308.861C157.201 309.001 157.281 309.121 157.382 309.222C157.514 309.354 157.656 309.428 157.809 309.444C157.965 309.464 158.159 309.43 158.392 309.342L158.572 309.27L160.394 304.646L161.175 305.428L159.811 308.813L163.201 307.454L163.923 308.176ZM167.124 309.381L167.906 310.163L164.359 313.71L166.559 315.91L165.898 316.572L162.916 313.59L167.124 309.381ZM170.945 315.126C171.418 315.599 171.665 316.074 171.685 316.551C171.713 317.028 171.498 317.495 171.042 317.952L169.16 319.833L168.45 319.124L168.841 318.733C168.609 318.781 168.368 318.757 168.12 318.661C167.879 318.565 167.639 318.396 167.398 318.156C167.158 317.915 166.987 317.665 166.887 317.404C166.791 317.14 166.765 316.885 166.809 316.641C166.861 316.396 166.979 316.182 167.164 315.998C167.452 315.709 167.789 315.585 168.174 315.625C168.566 315.665 168.993 315.915 169.454 316.376L170.284 317.206L170.332 317.158C170.557 316.933 170.661 316.693 170.645 316.436C170.633 316.184 170.494 315.925 170.23 315.661C170.05 315.481 169.843 315.33 169.611 315.21C169.382 315.094 169.158 315.026 168.937 315.006L169.19 314.164C169.486 314.204 169.787 314.308 170.092 314.476C170.396 314.645 170.681 314.861 170.945 315.126ZM168.102 317.765C168.29 317.954 168.498 318.078 168.727 318.138C168.963 318.198 169.192 318.178 169.412 318.078L169.785 317.705L169.009 316.929C168.577 316.497 168.218 316.422 167.933 316.707C167.797 316.843 167.743 317.006 167.771 317.194C167.799 317.382 167.909 317.573 168.102 317.765ZM173.581 318.772C174.134 318.652 174.683 318.864 175.229 319.409L174.513 320.125C174.461 320.048 174.409 319.984 174.357 319.932C174.064 319.64 173.75 319.497 173.413 319.505C173.08 319.509 172.754 319.672 172.433 319.992L170.876 321.549L170.124 320.798L173.335 317.587L174.05 318.303L173.581 318.772ZM173.991 324.749C173.666 324.424 173.444 324.061 173.324 323.661C173.203 323.26 173.193 322.861 173.294 322.464C173.402 322.067 173.614 321.711 173.931 321.394C174.248 321.077 174.602 320.867 174.995 320.763C175.392 320.663 175.791 320.673 176.191 320.793C176.592 320.913 176.955 321.136 177.28 321.46C177.608 321.789 177.833 322.154 177.953 322.554C178.073 322.955 178.081 323.352 177.977 323.745C177.877 324.142 177.669 324.498 177.352 324.815C177.035 325.132 176.676 325.342 176.276 325.446C175.883 325.551 175.486 325.542 175.085 325.422C174.684 325.302 174.32 325.078 173.991 324.749ZM174.634 324.106C174.911 324.382 175.232 324.518 175.596 324.514C175.961 324.51 176.294 324.358 176.594 324.057C176.895 323.757 177.047 323.424 177.051 323.059C177.055 322.695 176.919 322.374 176.642 322.097C176.366 321.821 176.045 321.685 175.68 321.689C175.32 321.697 174.989 321.851 174.688 322.152C174.388 322.452 174.234 322.783 174.225 323.144C174.221 323.508 174.358 323.829 174.634 324.106ZM182.594 326.846L177.622 328.812C177.133 329.021 176.718 329.095 176.377 329.035C176.032 328.979 175.718 328.808 175.433 328.524C175.273 328.364 175.141 328.179 175.036 327.971C174.932 327.762 174.876 327.562 174.868 327.37L175.722 327.117C175.726 327.257 175.756 327.396 175.812 327.532C175.872 327.672 175.952 327.792 176.053 327.893C176.185 328.025 176.327 328.099 176.479 328.115C176.636 328.135 176.83 328.101 177.063 328.013L177.243 327.941L179.065 323.317L179.846 324.099L178.481 327.484L181.872 326.125L182.594 326.846Z" fill="#FAFAFA"/>
<path d="M195.764 338.021L191.556 342.23L190.774 341.448L194.327 337.895L193.438 337.005L194.093 336.35L195.764 338.021ZM196.1 345.451L195.439 346.113L192.337 343.01L192.86 342.487L196.118 342.571C196.487 342.579 196.77 342.549 196.966 342.481C197.17 342.413 197.339 342.313 197.471 342.181C197.667 341.984 197.752 341.768 197.724 341.531C197.695 341.295 197.553 341.048 197.297 340.792C196.868 340.363 196.393 340.18 195.872 340.245L195.746 339.277C196.13 339.221 196.521 339.271 196.918 339.427C197.323 339.583 197.697 339.834 198.042 340.178C198.499 340.635 198.756 341.108 198.812 341.597C198.868 342.086 198.71 342.517 198.337 342.89C198.108 343.118 197.846 343.285 197.549 343.389C197.253 343.493 196.84 343.537 196.311 343.521L194.116 343.467L196.1 345.451ZM202.55 343.099L203.224 343.773L195.576 347.452L194.903 346.779L202.55 343.099ZM201.889 351.24L201.228 351.902L198.126 348.799L198.649 348.276L201.907 348.361C202.276 348.369 202.559 348.338 202.755 348.27C202.96 348.202 203.128 348.102 203.26 347.97C203.457 347.773 203.541 347.557 203.513 347.32C203.485 347.084 203.342 346.837 203.086 346.581C202.657 346.152 202.182 345.97 201.661 346.034L201.535 345.066C201.919 345.01 202.31 345.06 202.707 345.216C203.112 345.372 203.487 345.623 203.831 345.968C204.288 346.425 204.545 346.898 204.601 347.387C204.657 347.876 204.499 348.306 204.126 348.679C203.897 348.908 203.635 349.074 203.338 349.178C203.042 349.282 202.629 349.326 202.1 349.31L199.905 349.256L201.889 351.24ZM206.299 355.06L205.553 354.315L204.597 355.271L203.84 354.513L204.796 353.557L202.487 351.249L203.028 350.708L207.814 350.07L208.649 350.906L204.104 351.543L205.481 352.92L206.329 352.072L207.062 352.806L206.214 353.654L206.96 354.399L206.299 355.06Z" fill="#FAFAFA"/>
</g>
</g>
<g filter="url(#filter4_d_48_675)">
<g clip-path="url(#clip2_48_675)">
<rect x="44.0005" y="67.3549" width="304.677" height="191.309" transform="rotate(-15 44.0005 67.3549)" fill="white"/>
<mask id="mask2_48_675" style="mask-type:alpha" maskUnits="userSpaceOnUse" x="44" y="-12" width="344" height="265">
<rect x="44" y="67.3549" width="304.677" height="191.309" transform="rotate(-15 44 67.3549)" fill="black"/>
</mask>
<g mask="url(#mask2_48_675)">
<path d="M336.704 -78.5618L296.585 4.4411L305.617 38.1476L377.158 72.4154L361.862 124.683L398.151 187.212L295.327 207.237L307.369 252.179L245.752 282.99L165.271 271.438L155.38 341.074L-22.3941 415.05L-57.9562 282.331L-107.523 276.796L-133.489 179.89L-113.987 126.496L-188.613 35.8541L-163.997 -6.86823L-76.3734 -30.3469L-38.4389 -76.6379L47.0005 -63.4048L123.408 -83.8782L130.787 -146.066L247.852 -177.434L336.704 -78.5618Z" stroke="#EEEEEE" stroke-width="0.616339"/>
<path d="M126.41 87.9588L135.903 98.4817L140.212 114.562L131.441 128.937L117.52 135.793L116.453 143.213L97.4257 151.117L93.6381 136.982L87.6636 120.386L79.6917 110.738L82.3304 106.183L91.7071 103.671L113.086 97.9421L113.883 91.3155L126.41 87.9588Z" stroke="#EEEEEE" stroke-width="0.616339"/>
<path d="M321.132 -65.412L284.464 11.6107L293.133 43.9614L358.833 76.146L344.376 124.946L377.338 182.929L281.889 201.677L292.923 243.733L235.314 272.477L160.292 262.119L151.016 325.854L-13.2292 393.596L-46.2855 270.447L-92.2696 264.701L-116.851 174.506L-98.7479 125.044L-167.531 41.1997L-144.449 1.66711L-63.2048 -20.1021L-26.5437 -63.273L52.354 -51.3126L122.915 -70.466L130.208 -127.999L238.75 -157.083L321.132 -65.412Z" stroke="#EEEEEE" stroke-width="0.616339"/>
<path d="M305.56 -52.2619L272.343 18.7807L280.648 49.7755L340.509 79.8771L326.891 125.209L356.526 178.646L268.45 196.118L278.476 235.287L224.875 261.966L155.312 252.799L146.651 310.634L-4.06458 372.142L-34.6152 258.565L-77.0162 252.605L-100.214 169.123L-83.5089 123.593L-146.451 46.5458L-124.901 10.2028L-50.0364 -9.85696L-14.6489 -49.9076L57.7072 -39.2201L122.421 -57.0534L129.628 -109.932L229.647 -136.732L305.56 -52.2619Z" stroke="#EEEEEE" stroke-width="0.616339"/>
<path d="M289.988 -39.1121L260.223 25.9504L268.165 55.5894L322.184 83.6078L309.406 125.472L335.714 174.363L255.013 190.558L264.03 226.841L214.437 251.453L150.333 243.48L142.287 295.414L5.10086 350.688L-22.9439 246.681L-61.7619 240.509L-83.5754 163.74L-68.2692 122.141L-125.369 51.8915L-105.352 18.7382L-36.8673 0.387853L-2.75328 -36.5426L63.0612 -27.1279L121.928 -43.6412L129.05 -91.8655L220.545 -116.382L289.988 -39.1121Z" stroke="#EEEEEE" stroke-width="0.616339"/>
<path d="M274.416 -25.9623L248.102 33.1201L255.681 61.4032L303.86 87.3385L291.921 125.735L314.902 170.08L241.575 184.998L249.583 218.395L203.998 240.941L145.354 234.16L137.923 280.194L14.266 329.234L-11.2731 234.798L-46.508 228.413L-66.9373 158.356L-53.0298 120.69L-104.288 57.2372L-85.8034 27.2737L-23.6984 10.6327L9.14206 -23.1776L68.415 -15.0356L121.435 -30.229L128.471 -73.7987L211.443 -96.031L274.416 -25.9623Z" stroke="#EEEEEE" stroke-width="0.616339"/>
<path d="M258.844 -12.8122L235.981 40.2901L243.197 67.2173L285.535 91.0695L274.435 125.998L294.09 165.797L228.137 179.438L235.137 209.949L193.56 230.429L140.374 224.841L133.559 264.975L23.4307 307.78L0.397372 222.915L-31.2545 216.318L-50.2996 152.973L-37.7908 119.239L-83.2067 62.5832L-66.2554 35.8094L-10.53 20.8778L21.0369 -9.81224L73.7683 -2.94311L120.942 -16.8165L127.892 -55.7315L202.341 -75.6801L258.844 -12.8122Z" stroke="#EEEEEE" stroke-width="0.616339"/>
<path d="M243.273 0.337416L223.861 47.4596L230.713 73.031L267.211 94.8001L256.95 126.261L273.278 161.513L214.699 173.878L220.69 201.503L183.121 219.917L135.395 215.521L129.194 249.755L32.5958 286.326L12.0683 211.032L-16.0005 204.222L-33.6615 147.589L-22.5513 117.787L-62.1254 67.9287L-46.7069 44.3446L2.63882 31.1225L32.9323 3.55261L79.122 9.14894L120.449 -3.4044L127.313 -37.6649L193.239 -55.3297L243.273 0.337416Z" stroke="#EEEEEE" stroke-width="0.616339"/>
<path d="M227.701 13.4871L211.74 54.6292L218.229 78.8447L248.887 98.5307L239.465 126.524L252.466 157.23L201.261 168.318L206.244 193.056L172.683 209.404L130.416 206.201L124.831 234.535L41.7612 264.872L23.7394 199.149L-0.746249 192.126L-17.0231 142.205L-7.31162 116.335L-41.0438 73.2743L-27.1581 52.8799L15.8079 41.3672L44.8279 16.9175L84.476 21.241L119.956 10.0077L126.734 -19.5982L184.137 -34.9792L227.701 13.4871Z" stroke="#EEEEEE" stroke-width="0.616339"/>
<path d="M212.129 26.6369L199.62 61.7989L205.745 84.6586L230.562 102.261L221.98 126.787L231.654 152.947L187.823 162.758L191.798 184.61L162.245 198.892L125.436 196.881L120.466 219.315L50.9261 243.418L35.4101 187.265L14.5075 180.03L-0.385175 136.822L7.92761 114.884L-19.9626 78.6201L-7.6099 61.4154L28.9766 51.6121L56.723 30.2826L89.8295 33.3333L119.462 23.42L126.155 -1.53132L175.034 -14.6285L212.129 26.6369Z" stroke="#EEEEEE" stroke-width="0.616339"/>
<path d="M196.557 39.7872L187.499 68.9691L193.261 90.4729L212.237 105.993L204.494 127.051L210.841 148.664L174.385 157.199L177.351 176.164L151.806 188.38L120.456 187.562L116.102 204.095L60.0907 221.964L47.0805 175.383L29.761 167.935L16.2524 131.438L23.1665 113.433L1.11822 83.9662L11.9381 69.9512L42.1449 61.8573L68.6178 43.6481L95.1828 45.426L118.969 36.8327L125.576 16.5359L165.932 5.72249L196.557 39.7872Z" stroke="#EEEEEE" stroke-width="0.616339"/>
<path d="M180.985 52.9369L175.378 76.1387L180.777 96.2867L193.913 109.723L187.01 127.314L190.03 144.381L160.947 151.639L162.905 167.718L141.368 177.868L115.477 178.243L111.738 188.875L69.2562 200.51L58.7517 163.499L45.0152 155.839L32.8909 126.055L38.4063 111.981L22.1998 89.3119L31.4868 78.4866L55.3141 72.1021L80.5134 57.013L100.537 57.5181L118.476 50.2448L124.997 34.6027L156.83 26.073L180.985 52.9369Z" stroke="#EEEEEE" stroke-width="0.616339"/>
<path d="M165.414 66.0865L163.258 83.3082L168.293 102.1L175.589 113.454L169.525 127.576L169.218 140.097L147.509 146.079L148.459 159.272L130.929 167.356L110.498 168.923L107.374 173.655L78.4213 179.056L70.4226 151.616L60.2692 143.743L49.529 120.671L53.6457 110.529L43.2812 94.6574L51.0353 87.0218L68.4829 82.3467L92.4088 70.3779L105.891 69.6102L117.983 63.6569L124.418 52.6693L147.728 46.4235L165.414 66.0865Z" stroke="#EEEEEE" stroke-width="0.616339"/>
<path d="M149.842 79.2365L151.137 90.4781L155.809 107.914L157.264 117.185L152.039 127.84L148.405 135.814L134.071 140.519L134.012 150.826L120.491 156.844L105.518 159.603L103.009 158.435L87.586 157.602L82.093 139.733L75.5227 131.647L66.1667 115.287L68.8847 109.078L64.3621 100.003L70.5833 95.5574L81.6513 92.5917L104.304 83.7431L111.244 81.7026L117.489 77.0693L123.839 70.7364L138.625 66.7742L149.842 79.2365Z" stroke="#EEEEEE" stroke-width="0.616339"/>
</g>
<g clip-path="url(#clip3_48_675)">
<g filter="url(#filter5_b_48_675)">
<ellipse cx="328.008" cy="152.361" rx="13.2192" ry="13.2192" transform="rotate(-15 328.008 152.361)" fill="black" fill-opacity="0.3"/>
</g>
<g filter="url(#filter6_b_48_675)">
<path d="M356.61 144.698C358.499 151.75 354.314 158.998 347.262 160.888C340.21 162.777 332.962 158.592 331.072 151.54C329.182 144.488 333.367 137.24 340.419 135.35C347.471 133.461 354.72 137.645 356.61 144.698Z" fill="black" fill-opacity="0.7"/>
</g>
<g filter="url(#filter7_b_48_675)">
<path d="M333.24 140.221C330.911 143.352 329.984 147.479 331.072 151.54C332.161 155.602 335.027 158.712 338.609 160.259C340.938 157.129 341.865 153.002 340.777 148.94C339.688 144.878 336.822 141.768 333.24 140.221Z" fill="black" fill-opacity="0.6"/>
</g>
</g>
<path d="M111 186.944C110.163 187.169 109.401 187.205 108.712 187.053C108.024 186.901 107.434 186.605 106.942 186.164C106.451 185.723 106.078 185.169 105.825 184.502L107.323 184.1C107.605 184.734 108.047 185.195 108.647 185.483C109.244 185.759 109.914 185.797 110.657 185.598C111.529 185.364 112.14 184.902 112.49 184.21C112.837 183.507 112.895 182.726 112.665 181.866C112.422 180.96 111.976 180.319 111.328 179.945C110.677 179.559 109.945 179.475 109.131 179.693C108.481 179.868 107.963 180.168 107.58 180.595C107.204 181.006 106.938 181.476 106.781 182.004L105.386 182.378L104.625 175.353L111.143 173.607L111.502 174.948L106.135 176.387L106.461 180.185L106.548 180.161C106.738 179.799 107.029 179.447 107.423 179.105C107.829 178.76 108.334 178.506 108.938 178.344C109.74 178.129 110.483 178.117 111.169 178.307C111.864 178.482 112.465 178.843 112.973 179.392C113.478 179.929 113.844 180.622 114.072 181.47C114.283 182.26 114.309 183.031 114.15 183.784C113.999 184.522 113.657 185.174 113.124 185.74C112.602 186.303 111.894 186.705 111 186.944ZM117.455 184.991L117.146 183.84C118.134 182.505 118.98 181.294 119.685 180.209C120.402 179.12 120.912 178.118 121.214 177.203C121.517 176.287 121.559 175.423 121.341 174.61C121.145 173.878 120.782 173.359 120.252 173.052C119.73 172.731 119.12 172.664 118.423 172.851C117.889 172.994 117.467 173.232 117.157 173.564C116.848 173.896 116.652 174.279 116.568 174.712C116.485 175.145 116.503 175.582 116.621 176.024L115.175 176.411C114.971 175.607 114.962 174.874 115.146 174.215C115.339 173.541 115.686 172.975 116.186 172.517C116.697 172.056 117.325 171.726 118.068 171.527C119.265 171.206 120.283 171.288 121.123 171.773C121.963 172.258 122.532 173.058 122.831 174.173C123.027 174.905 123.059 175.65 122.925 176.408C122.789 177.154 122.542 177.905 122.184 178.661C121.826 179.417 121.398 180.167 120.9 180.911C120.402 181.654 119.892 182.376 119.37 183.076L125.156 181.526L125.506 182.833L117.455 184.991ZM132.056 181.302C131.254 181.517 130.495 181.565 129.778 181.446C129.07 181.312 128.448 181.011 127.912 180.545C127.376 180.078 126.98 179.437 126.724 178.622L128.223 178.22C128.433 178.911 128.847 179.435 129.466 179.792C130.082 180.138 130.825 180.194 131.696 179.96C132.545 179.733 133.143 179.342 133.493 178.788C133.839 178.222 133.912 177.561 133.709 176.806C133.569 176.283 133.32 175.889 132.963 175.624C132.602 175.347 132.173 175.188 131.677 175.146C131.189 175.09 130.671 175.136 130.125 175.282L129.062 175.567L128.707 174.242L129.631 173.995C130.421 173.783 131.003 173.447 131.378 172.985C131.764 172.52 131.87 171.963 131.695 171.312C131.549 170.766 131.238 170.37 130.761 170.124C130.296 169.875 129.714 169.844 129.017 170.031C128.343 170.212 127.849 170.55 127.533 171.045C127.215 171.529 127.107 172.081 127.211 172.701L125.747 173.093C125.593 172.424 125.611 171.797 125.803 171.21C125.991 170.612 126.325 170.093 126.805 169.653C127.297 169.21 127.914 168.889 128.658 168.689C129.459 168.474 130.165 168.435 130.774 168.571C131.395 168.703 131.908 168.97 132.315 169.372C132.718 169.762 132.996 170.241 133.149 170.811C133.311 171.415 133.268 171.999 133.021 172.564C132.77 173.116 132.414 173.554 131.953 173.877L131.981 173.982C132.723 174.007 133.387 174.209 133.974 174.587C134.561 174.965 134.966 175.573 135.191 176.409C135.38 177.118 135.383 177.802 135.199 178.462C135.026 179.118 134.671 179.699 134.134 180.204C133.608 180.706 132.916 181.072 132.056 181.302ZM142.349 178.544C141.513 178.768 140.75 178.805 140.062 178.653C139.374 178.501 138.784 178.205 138.292 177.763C137.8 177.322 137.428 176.768 137.174 176.102L138.673 175.7C138.955 176.334 139.396 176.795 139.996 177.083C140.593 177.359 141.263 177.397 142.007 177.198C142.878 176.964 143.489 176.502 143.839 175.81C144.186 175.107 144.245 174.325 144.014 173.466C143.771 172.559 143.326 171.919 142.678 171.545C142.026 171.159 141.294 171.075 140.481 171.293C139.83 171.467 139.313 171.768 138.929 172.195C138.554 172.606 138.288 173.076 138.13 173.604L136.736 173.978L135.974 166.953L142.492 165.206L142.852 166.548L137.484 167.987L137.811 171.784L137.898 171.761C138.087 171.399 138.379 171.047 138.773 170.705C139.178 170.359 139.683 170.106 140.287 169.944C141.089 169.729 141.833 169.717 142.519 169.906C143.213 170.081 143.815 170.443 144.323 170.992C144.828 171.529 145.194 172.222 145.421 173.07C145.633 173.86 145.659 174.631 145.5 175.384C145.349 176.122 145.007 176.774 144.473 177.34C143.952 177.903 143.244 178.305 142.349 178.544ZM164.692 172.334L163.935 169.51L158.097 171.075L157.793 169.942L161.144 160.209L162.887 159.742L165.044 167.793L166.787 167.326L167.142 168.651L165.399 169.118L166.155 171.941L164.692 172.334ZM159.38 169.311L163.65 168.167L161.95 161.823L159.38 169.311ZM169.704 170.99L169.396 169.84C170.383 168.505 171.229 167.294 171.934 166.209C172.651 165.12 173.161 164.118 173.464 163.203C173.766 162.287 173.809 161.423 173.591 160.609C173.395 159.877 173.031 159.358 172.501 159.052C171.979 158.731 171.37 158.664 170.673 158.851C170.138 158.994 169.716 159.232 169.407 159.564C169.097 159.896 168.901 160.278 168.818 160.712C168.734 161.145 168.752 161.582 168.87 162.024L167.424 162.411C167.221 161.607 167.211 160.874 167.396 160.215C167.589 159.54 167.935 158.974 168.435 158.517C168.947 158.056 169.574 157.726 170.318 157.527C171.514 157.206 172.533 157.288 173.372 157.773C174.212 158.258 174.781 159.058 175.08 160.173C175.276 160.905 175.308 161.65 175.175 162.408C175.038 163.154 174.791 163.905 174.434 164.661C174.076 165.417 173.648 166.167 173.15 166.91C172.652 167.654 172.141 168.376 171.619 169.076L177.405 167.526L177.756 168.833L169.704 170.99ZM184.148 167.344C183.231 167.59 182.349 167.552 181.503 167.231C180.669 166.907 179.928 166.327 179.281 165.492C178.646 164.653 178.153 163.583 177.805 162.282C177.456 160.981 177.347 159.808 177.479 158.764C177.622 157.718 177.973 156.845 178.533 156.147C179.105 155.446 179.85 154.972 180.768 154.726C181.697 154.477 182.579 154.515 183.413 154.84C184.247 155.164 184.982 155.745 185.617 156.584C186.265 157.419 186.763 158.487 187.111 159.788C187.46 161.09 187.563 162.264 187.42 163.311C187.289 164.355 186.943 165.226 186.383 165.924C185.823 166.622 185.078 167.095 184.148 167.344ZM179.304 161.881C179.515 162.671 179.788 163.363 180.122 163.959C180.464 164.539 180.844 165.004 181.261 165.353L182.396 156.065C181.983 155.964 181.562 155.971 181.132 156.086C180.516 156.251 180.024 156.6 179.657 157.135C179.287 157.657 179.067 158.326 178.999 159.142C178.928 159.945 179.03 160.858 179.304 161.881ZM183.789 166.002C184.405 165.837 184.898 165.493 185.268 164.971C185.636 164.436 185.853 163.762 185.921 162.947C185.989 162.131 185.886 161.213 185.612 160.19C185.401 159.4 185.124 158.715 184.781 158.134C184.447 157.539 184.072 157.066 183.655 156.717L182.507 166.028C182.932 166.126 183.359 166.117 183.789 166.002ZM194.598 164.544C193.68 164.79 192.799 164.752 191.953 164.431C191.119 164.107 190.378 163.527 189.731 162.692C189.095 161.853 188.603 160.783 188.255 159.482C187.906 158.181 187.797 157.008 187.929 155.964C188.071 154.918 188.423 154.045 188.983 153.347C189.555 152.646 190.3 152.172 191.217 151.926C192.147 151.677 193.029 151.715 193.863 152.039C194.697 152.364 195.432 152.945 196.067 153.784C196.714 154.619 197.212 155.687 197.561 156.988C197.91 158.29 198.013 159.464 197.87 160.511C197.739 161.555 197.393 162.426 196.833 163.124C196.273 163.822 195.528 164.295 194.598 164.544ZM189.753 159.081C189.965 159.871 190.238 160.563 190.572 161.159C190.914 161.739 191.294 162.204 191.711 162.553L192.846 153.265C192.433 153.164 192.012 153.171 191.582 153.286C190.966 153.451 190.474 153.8 190.107 154.335C189.736 154.857 189.517 155.526 189.449 156.342C189.378 157.145 189.479 158.058 189.753 159.081ZM194.239 163.202C194.855 163.037 195.348 162.693 195.718 162.171C196.086 161.636 196.303 160.962 196.371 160.146C196.439 159.331 196.336 158.412 196.062 157.39C195.851 156.6 195.574 155.915 195.231 155.334C194.897 154.738 194.522 154.266 194.104 153.917L192.957 163.228C193.382 163.326 193.809 163.317 194.239 163.202ZM211.503 159.79L211.195 158.64C212.182 157.305 213.028 156.094 213.734 155.009C214.451 153.92 214.96 152.918 215.263 152.002C215.566 151.087 215.608 150.223 215.39 149.409C215.194 148.677 214.831 148.158 214.3 147.852C213.779 147.531 213.169 147.464 212.472 147.651C211.938 147.794 211.516 148.032 211.206 148.364C210.897 148.696 210.7 149.078 210.617 149.512C210.534 149.945 210.551 150.382 210.67 150.824L209.223 151.211C209.02 150.406 209.011 149.674 209.195 149.015C209.388 148.34 209.734 147.774 210.234 147.317C210.746 146.856 211.374 146.526 212.117 146.326C213.314 146.006 214.332 146.088 215.172 146.573C216.011 147.057 216.581 147.857 216.88 148.973C217.076 149.705 217.107 150.45 216.974 151.208C216.838 151.954 216.591 152.705 216.233 153.461C215.875 154.217 215.447 154.967 214.949 155.71C214.451 156.454 213.941 157.176 213.419 157.876L219.205 156.326L219.555 157.633L211.503 159.79ZM227.391 155.533L226.634 152.71L220.796 154.274L220.492 153.142L223.843 143.409L225.586 142.942L227.743 150.993L229.486 150.526L229.841 151.851L228.098 152.318L228.855 155.141L227.391 155.533ZM222.079 152.511L226.349 151.367L224.649 145.023L222.079 152.511ZM236.555 153.302C235.753 153.517 234.994 153.565 234.277 153.445C233.568 153.311 232.946 153.011 232.41 152.545C231.874 152.078 231.478 151.437 231.223 150.621L232.721 150.22C232.931 150.911 233.346 151.435 233.965 151.792C234.58 152.137 235.324 152.194 236.195 151.96C237.043 151.733 237.642 151.342 237.992 150.788C238.338 150.222 238.41 149.561 238.208 148.806C238.068 148.283 237.819 147.889 237.461 147.623C237.101 147.346 236.672 147.187 236.175 147.146C235.687 147.09 235.17 147.135 234.624 147.282L233.561 147.567L233.206 146.242L234.13 145.995C234.92 145.783 235.502 145.446 235.876 144.985C236.262 144.52 236.368 143.963 236.194 143.312C236.048 142.766 235.736 142.37 235.259 142.124C234.794 141.875 234.213 141.844 233.516 142.031C232.842 142.211 232.347 142.549 232.032 143.045C231.713 143.529 231.606 144.081 231.709 144.7L230.246 145.093C230.091 144.424 230.11 143.797 230.301 143.21C230.49 142.611 230.824 142.092 231.304 141.652C231.795 141.209 232.413 140.888 233.156 140.689C233.958 140.474 234.663 140.435 235.273 140.57C235.893 140.703 236.407 140.97 236.813 141.371C237.217 141.761 237.495 142.241 237.647 142.81C237.809 143.415 237.767 143.999 237.519 144.563C237.269 145.116 236.913 145.554 236.452 145.877L236.48 145.981C237.221 146.007 237.885 146.209 238.472 146.587C239.059 146.965 239.465 147.572 239.689 148.409C239.879 149.117 239.882 149.802 239.697 150.461C239.525 151.118 239.17 151.698 238.632 152.204C238.107 152.705 237.414 153.072 236.555 153.302ZM242.853 151.39L242.545 150.24C243.532 148.905 244.378 147.694 245.083 146.608C245.8 145.52 246.31 144.518 246.613 143.602C246.915 142.687 246.958 141.823 246.74 141.009C246.544 140.277 246.18 139.758 245.65 139.452C245.128 139.131 244.519 139.064 243.822 139.251C243.287 139.394 242.865 139.632 242.556 139.964C242.246 140.296 242.05 140.678 241.967 141.111C241.883 141.545 241.901 141.982 242.019 142.424L240.573 142.811C240.37 142.006 240.36 141.274 240.545 140.615C240.737 139.94 241.084 139.374 241.584 138.916C242.096 138.456 242.723 138.126 243.467 137.926C244.663 137.606 245.682 137.688 246.521 138.173C247.361 138.657 247.93 139.457 248.229 140.573C248.425 141.305 248.457 142.05 248.324 142.808C248.187 143.554 247.94 144.305 247.583 145.061C247.225 145.817 246.797 146.567 246.299 147.31C245.801 148.054 245.29 148.776 244.768 149.476L250.554 147.926L250.905 149.233L242.853 151.39ZM263.753 145.79L263.444 144.64C264.431 143.305 265.278 142.094 265.983 141.008C266.7 139.92 267.21 138.918 267.512 138.002C267.815 137.087 267.857 136.222 267.639 135.409C267.443 134.677 267.08 134.158 266.55 133.852C266.028 133.531 265.418 133.464 264.721 133.651C264.187 133.794 263.765 134.032 263.455 134.364C263.146 134.696 262.949 135.078 262.866 135.511C262.783 135.945 262.801 136.382 262.919 136.823L261.473 137.211C261.269 136.406 261.26 135.674 261.444 135.014C261.637 134.34 261.984 133.774 262.484 133.316C262.995 132.856 263.623 132.525 264.366 132.326C265.563 132.006 266.581 132.088 267.421 132.572C268.261 133.057 268.83 133.857 269.129 134.973C269.325 135.705 269.357 136.45 269.223 137.208C269.087 137.954 268.84 138.705 268.482 139.461C268.124 140.217 267.696 140.966 267.198 141.71C266.7 142.454 266.19 143.176 265.668 143.876L271.454 142.326L271.804 143.633L263.753 145.79ZM274.202 142.99L273.894 141.84C274.881 140.504 275.728 139.294 276.433 138.208C277.15 137.12 277.66 136.118 277.962 135.202C278.265 134.287 278.307 133.422 278.089 132.609C277.893 131.877 277.53 131.358 277 131.052C276.478 130.731 275.868 130.664 275.171 130.851C274.637 130.994 274.215 131.232 273.905 131.564C273.596 131.896 273.399 132.278 273.316 132.711C273.233 133.145 273.251 133.582 273.369 134.023L271.922 134.411C271.719 133.606 271.71 132.874 271.894 132.214C272.087 131.54 272.433 130.974 272.933 130.516C273.445 130.055 274.073 129.725 274.816 129.526C276.013 129.206 277.031 129.288 277.871 129.772C278.711 130.257 279.28 131.057 279.579 132.173C279.775 132.905 279.806 133.65 279.673 134.408C279.537 135.154 279.29 135.905 278.932 136.661C278.574 137.417 278.146 138.166 277.648 138.91C277.15 139.654 276.64 140.376 276.118 141.076L281.904 139.526L282.254 140.833L274.202 142.99ZM284.652 140.19L284.344 139.04C285.331 137.704 286.177 136.494 286.883 135.408C287.6 134.32 288.109 133.318 288.412 132.402C288.715 131.487 288.757 130.622 288.539 129.809C288.343 129.077 287.98 128.558 287.449 128.252C286.928 127.931 286.318 127.864 285.621 128.051C285.087 128.194 284.665 128.431 284.355 128.763C284.046 129.095 283.849 129.478 283.766 129.911C283.683 130.345 283.7 130.782 283.819 131.223L282.372 131.611C282.169 130.806 282.16 130.074 282.344 129.414C282.537 128.74 282.883 128.174 283.383 127.716C283.895 127.255 284.523 126.925 285.266 126.726C286.463 126.406 287.481 126.488 288.321 126.972C289.16 127.457 289.73 128.257 290.029 129.373C290.225 130.105 290.256 130.85 290.123 131.608C289.987 132.354 289.74 133.105 289.382 133.861C289.024 134.617 288.596 135.366 288.098 136.11C287.6 136.854 287.09 137.576 286.568 138.276L292.354 136.726L292.704 138.033L284.652 140.19Z" fill="black"/>
<path d="M112.957 201.798L114.498 207.547L113.43 207.833L112.129 202.98L110.914 203.305L110.674 202.41L112.957 201.798ZM119.56 205.223L119.802 206.126L115.564 207.262L115.373 206.547L117.075 203.767C117.266 203.452 117.381 203.192 117.421 202.988C117.464 202.777 117.461 202.581 117.413 202.4C117.341 202.132 117.196 201.951 116.977 201.857C116.758 201.763 116.473 201.763 116.123 201.857C115.537 202.014 115.142 202.334 114.937 202.817L114.035 202.443C114.179 202.081 114.418 201.768 114.752 201.502C115.089 201.23 115.494 201.031 115.965 200.904C116.589 200.737 117.127 200.752 117.578 200.947C118.03 201.143 118.324 201.496 118.46 202.005C118.544 202.317 118.556 202.628 118.498 202.937C118.44 203.246 118.272 203.625 117.994 204.075L116.85 205.949L119.56 205.223ZM120.748 198.461L121.668 198.214L121.031 206.677L120.111 206.924L120.748 198.461ZM127.468 203.104L127.71 204.007L123.472 205.143L123.281 204.428L124.983 201.648C125.174 201.333 125.29 201.073 125.329 200.869C125.372 200.658 125.369 200.462 125.321 200.281C125.249 200.013 125.104 199.832 124.885 199.738C124.666 199.644 124.381 199.644 124.031 199.738C123.445 199.895 123.05 200.215 122.845 200.698L121.943 200.324C122.087 199.962 122.326 199.649 122.66 199.383C122.997 199.111 123.402 198.912 123.873 198.786C124.497 198.618 125.035 198.633 125.486 198.828C125.938 199.024 126.232 199.377 126.368 199.886C126.452 200.198 126.465 200.509 126.407 200.818C126.348 201.127 126.18 201.506 125.902 201.956L124.758 203.83L127.468 203.104ZM132.981 201.195L131.963 201.468L132.312 202.774L131.278 203.051L130.928 201.745L127.774 202.59L127.576 201.851L129.417 197.388L130.558 197.082L128.838 201.337L130.718 200.833L130.408 199.675L131.41 199.407L131.72 200.565L132.739 200.292L132.981 201.195Z" fill="black"/>
<rect x="53.199" y="101.686" width="304.677" height="37.8021" transform="rotate(-15 53.199 101.686)" fill="#E9FF6B"/>
</g>
</g>
</g>
<defs>
<filter id="filter0_d_48_675" x="68.9254" y="155.333" width="419.475" height="419.475" filterUnits="userSpaceOnUse" color-interpolation-filters="sRGB">
<feFlood flood-opacity="0" result="BackgroundImageFix"/>
<feColorMatrix in="SourceAlpha" type="matrix" values="0 0 0 0 0 0 0 0 0 0 0 0 0 0 0 0 0 0 127 0" result="hardAlpha"/>
<feOffset dy="17.1899"/>
<feGaussianBlur stdDeviation="17.1899"/>
<feComposite in2="hardAlpha" operator="out"/>
<feColorMatrix type="matrix" values="0 0 0 0 0 0 0 0 0 0 0 0 0 0 0 0 0 0 0.25 0"/>
<feBlend mode="normal" in2="BackgroundImageFix" result="effect1_dropShadow_48_675"/>
<feBlend mode="normal" in="SourceGraphic" in2="effect1_dropShadow_48_675" result="shape"/>
</filter>
<filter id="filter1_b_48_675" x="258.32" y="412.337" width="97.2936" height="97.2936" filterUnits="userSpaceOnUse" color-interpolation-filters="sRGB">
<feFlood flood-opacity="0" result="BackgroundImageFix"/>
<feGaussianBlur in="BackgroundImage" stdDeviation="17.7138"/>
<feComposite in2="SourceAlpha" operator="in" result="effect1_backgroundBlur_48_675"/>
<feBlend mode="normal" in="SourceGraphic" in2="effect1_backgroundBlur_48_675" result="shape"/>
</filter>
<filter id="filter2_b_48_675" x="269.911" y="423.927" width="97.2936" height="97.2936" filterUnits="userSpaceOnUse" color-interpolation-filters="sRGB">
<feFlood flood-opacity="0" result="BackgroundImageFix"/>
<feGaussianBlur in="BackgroundImage" stdDeviation="17.7138"/>
<feComposite in2="SourceAlpha" operator="in" result="effect1_backgroundBlur_48_675"/>
<feBlend mode="normal" in="SourceGraphic" in2="effect1_backgroundBlur_48_675" result="shape"/>
</filter>
<filter id="filter3_b_48_675" x="269.911" y="423.927" width="85.7028" height="85.7028" filterUnits="userSpaceOnUse" color-interpolation-filters="sRGB">
<feFlood flood-opacity="0" result="BackgroundImageFix"/>
<feGaussianBlur in="BackgroundImage" stdDeviation="17.7138"/>
<feComposite in2="SourceAlpha" operator="in" result="effect1_backgroundBlur_48_675"/>
<feBlend mode="normal" in="SourceGraphic" in2="effect1_backgroundBlur_48_675" result="shape"/>
</filter>
<filter id="filter4_d_48_675" x="9.62019" y="-28.6913" width="412.569" height="332.406" filterUnits="userSpaceOnUse" color-interpolation-filters="sRGB">
<feFlood flood-opacity="0" result="BackgroundImageFix"/>
<feColorMatrix in="SourceAlpha" type="matrix" values="0 0 0 0 0 0 0 0 0 0 0 0 0 0 0 0 0 0 127 0" result="hardAlpha"/>
<feOffset dy="17.1899"/>
<feGaussianBlur stdDeviation="17.1899"/>
<feComposite in2="hardAlpha" operator="out"/>
<feColorMatrix type="matrix" values="0 0 0 0 0 0 0 0 0 0 0 0 0 0 0 0 0 0 0.25 0"/>
<feBlend mode="normal" in2="BackgroundImageFix" result="effect1_dropShadow_48_675"/>
<feBlend mode="normal" in="SourceGraphic" in2="effect1_dropShadow_48_675" result="shape"/>
</filter>
<filter id="filter5_b_48_675" x="279.358" y="103.711" width="97.2999" height="97.3002" filterUnits="userSpaceOnUse" color-interpolation-filters="sRGB">
<feFlood flood-opacity="0" result="BackgroundImageFix"/>
<feGaussianBlur in="BackgroundImage" stdDeviation="17.7138"/>
<feComposite in2="SourceAlpha" operator="in" result="effect1_backgroundBlur_48_675"/>
<feBlend mode="normal" in="SourceGraphic" in2="effect1_backgroundBlur_48_675" result="shape"/>
</filter>
<filter id="filter6_b_48_675" x="295.191" y="99.4688" width="97.3002" height="97.3002" filterUnits="userSpaceOnUse" color-interpolation-filters="sRGB">
<feFlood flood-opacity="0" result="BackgroundImageFix"/>
<feGaussianBlur in="BackgroundImage" stdDeviation="17.7138"/>
<feComposite in2="SourceAlpha" operator="in" result="effect1_backgroundBlur_48_675"/>
<feBlend mode="normal" in="SourceGraphic" in2="effect1_backgroundBlur_48_675" result="shape"/>
</filter>
<filter id="filter7_b_48_675" x="295.191" y="104.793" width="81.4667" height="90.8933" filterUnits="userSpaceOnUse" color-interpolation-filters="sRGB">
<feFlood flood-opacity="0" result="BackgroundImageFix"/>
<feGaussianBlur in="BackgroundImage" stdDeviation="17.7138"/>
<feComposite in2="SourceAlpha" operator="in" result="effect1_backgroundBlur_48_675"/>
<feBlend mode="normal" in="SourceGraphic" in2="effect1_backgroundBlur_48_675" result="shape"/>
</filter>
<clipPath id="clip0_48_675">
<rect x="238.581" y="172.522" width="304.677" height="191.309" rx="12.8924" transform="rotate(45 238.581 172.522)" fill="white"/>
</clipPath>
<clipPath id="clip1_48_675">
<rect x="306.219" y="435.558" width="52.877" height="35.4276" rx="8" transform="rotate(45 306.219 435.558)" fill="white"/>
</clipPath>
<clipPath id="clip2_48_675">
<rect x="44" y="67.3549" width="304.677" height="191.309" rx="12.8924" transform="rotate(-15 44 67.3549)" fill="white"/>
</clipPath>
<clipPath id="clip3_48_675">
<rect x="305.615" y="140.297" width="52.877" height="35.4276" rx="8" transform="rotate(-15 305.615 140.297)" fill="white"/>
</clipPath>
</defs>
</svg>
