<svg width="40" height="40" viewBox="0 0 40 40" fill="none" xmlns="http://www.w3.org/2000/svg">
<g clip-path="url(#clip0_46_1368)">
<path d="M40 20.1167C40 9.01667 31.05 0 20 0C8.95 0 0 9 0 20.1167C0 30.1667 7.31667 38.5 16.8833 40V25.9333H11.8V20.1167H16.8667V15.6833C16.8667 10.65 19.8667 7.85 24.4333 7.85C26.6167 7.85 28.9 8.25 28.9 8.25V13.2H26.4C23.9 13.2 23.1333 14.75 23.1333 16.35V20.1167H28.6667L27.7833 25.95H23.1167V40C32.7 38.5 40 30.1667 40 20.1167Z" fill="black"/>
</g>
<defs>
<clipPath id="clip0_46_1368">
<rect width="40" height="40" fill="white"/>
</clipPath>
</defs>
</svg>
