<svg width="562" height="361" viewBox="0 0 562 361" fill="none" xmlns="http://www.w3.org/2000/svg">
<rect y="72" width="562" height="289" rx="27" fill="#F3F3F3"/>
<g clip-path="url(#clip0_150_310)">
<rect x="134.497" y="-3" width="359.404" height="225.627" rx="22.1268" transform="rotate(11.1152 134.497 -3)" fill="black"/>
<mask id="mask0_150_310" style="mask-type:alpha" maskUnits="userSpaceOnUse" x="94" y="0" width="390" height="284">
<rect x="134.497" y="-3" width="359.404" height="225.627" rx="22.1268" transform="rotate(11.1152 134.497 -3)" fill="black"/>
</mask>
<g mask="url(#mask0_150_310)">
<path d="M520.29 -5.55417L434.701 61.5145L426.767 101.898L484.753 175.329L441.413 222.737L447.386 307.795L328.077 275.617L317.498 329.461L236.236 330.098L156.988 276.081L110.357 344.687L-116.352 330.729L-85.1112 171.72L-134.74 140.124L-111.929 24.0224L-63.5501 -22.3955L-95.5328 -157.127L-47.2781 -189.588L57.7233 -168.959L121.938 -198.285L205.565 -139.913L297.127 -121.924L337.23 -183.948L477.512 -156.387L520.29 -5.55417Z" stroke="#373737" stroke-width="0.727047"/>
<path d="M211.088 61.6057L215.68 77.6776L211.895 96.9434L195.141 107.612L176.836 107.645L171.853 114.949L147.596 113.441L150.923 96.5047L153.212 75.8281L149.777 61.4725L154.937 58.019L166.173 60.2266L191.792 65.2599L196.077 58.6564L211.088 61.6057Z" stroke="#373737" stroke-width="0.727047"/>
<path d="M496.97 0.286854L418.141 62.8145L410.526 101.573L463.406 169.767L422.757 213.938L427.565 292.454L316.73 262.752L306.582 313.017L230.638 313.547L156.553 263.627L113.637 326.304L-95.5047 312.768L-66.5794 165.195L-112.302 135.235L-91.5107 26.9598L-46.6545 -16.0202L-75.9786 -140.52L-31.0037 -170.4L66.3529 -151.273L127.599 -177.955L204.958 -124.327L289.641 -107.976L327.237 -165.116L457.305 -139.562L496.97 0.286854Z" stroke="#373737" stroke-width="0.727047"/>
<path d="M473.648 6.12696L401.58 64.1137L394.284 101.248L442.059 164.203L404.099 205.138L407.744 277.113L305.383 249.888L295.665 296.572L225.039 296.995L156.117 251.172L116.915 307.921L-74.6587 294.807L-48.0486 158.67L-89.8658 130.345L-71.0932 29.8965L-29.7599 -9.64583L-56.4254 -123.915L-14.7302 -151.213L74.9815 -133.587L133.258 -157.627L204.35 -108.743L282.154 -94.0297L317.243 -146.285L437.098 -122.737L473.648 6.12696Z" stroke="#373737" stroke-width="0.727047"/>
<path d="M450.327 11.9682L385.019 65.414L378.042 100.924L420.713 158.641L385.442 196.34L387.924 261.772L294.036 237.024L284.749 280.128L219.441 280.444L155.682 238.718L120.195 289.538L-53.812 276.847L-29.5169 152.146L-67.4285 125.456L-50.6747 32.8343L-12.8646 -3.27025L-36.8713 -107.308L1.54411 -132.024L83.611 -115.9L138.919 -137.297L203.742 -93.1575L274.668 -80.0819L307.249 -127.453L416.891 -105.912L450.327 11.9682Z" stroke="#373737" stroke-width="0.727047"/>
<path d="M427.006 17.8091L368.458 66.7138L361.801 100.599L399.367 153.078L366.785 187.54L368.104 246.431L282.689 224.159L273.832 263.684L213.842 263.892L155.246 226.264L123.475 271.155L-32.9653 258.886L-10.9853 145.622L-44.9914 120.567L-30.2564 35.7715L4.0307 3.10478L-17.3174 -90.7021L17.8183 -112.836L92.2403 -98.2143L144.579 -116.968L203.134 -77.5725L267.182 -66.1346L297.256 -108.621L396.684 -89.0864L427.006 17.8091Z" stroke="#373737" stroke-width="0.727047"/>
<path d="M403.684 23.6494L351.897 68.0131L345.559 100.274L378.02 147.515L348.128 178.74L348.283 231.09L271.342 211.294L262.916 247.239L208.244 247.34L154.811 213.809L126.754 252.771L-12.1188 240.925L7.54612 139.097L-22.5544 115.677L-9.83824 38.7083L20.9258 9.47933L2.23642 -74.0964L34.0924 -93.6482L100.87 -80.5286L150.24 -96.6395L202.527 -61.988L259.696 -52.1878L287.262 -89.7895L376.476 -72.2617L403.684 23.6494Z" stroke="#373737" stroke-width="0.727047"/>
<path d="M380.363 29.4902L335.336 69.313L329.317 99.9497L356.673 141.952L329.471 169.941L328.462 215.749L259.995 198.43L251.999 230.794L202.645 230.789L154.375 201.355L130.033 234.388L8.72748 222.964L26.0773 132.572L-0.117582 110.788L10.5797 41.6456L37.8207 15.8545L21.79 -57.4901L50.3662 -74.46L109.498 -62.8424L155.9 -76.3103L201.919 -46.4029L252.21 -38.2405L277.268 -70.9576L356.269 -55.4365L380.363 29.4902Z" stroke="#373737" stroke-width="0.727047"/>
<path d="M357.042 35.3305L318.776 70.6123L313.076 99.6246L335.328 136.388L310.814 161.141L308.642 200.408L248.649 185.565L241.083 214.349L197.047 214.237L153.94 188.9L133.313 216.005L29.5747 205.003L44.6094 126.047L22.3201 105.898L30.9985 44.5824L54.7166 22.229L41.3445 -40.8845L66.641 -55.2724L118.128 -45.1568L161.561 -55.9816L201.312 -30.8184L244.724 -24.2937L267.275 -52.1263L336.062 -38.6118L357.042 35.3305Z" stroke="#373737" stroke-width="0.727047"/>
<path d="M333.721 41.1713L302.215 71.9122L296.834 99.3L313.981 130.826L292.157 152.342L288.822 185.067L237.302 172.701L230.167 197.905L191.448 197.686L153.504 176.446L136.593 197.622L50.4214 187.042L63.141 119.523L44.7573 101.009L51.4168 47.5197L71.6119 28.6041L60.8985 -24.2783L82.9153 -36.0843L126.758 -27.4706L167.221 -35.6524L200.704 -15.2334L237.238 -10.3464L257.282 -33.2945L315.855 -21.7866L333.721 41.1713Z" stroke="#373737" stroke-width="0.727047"/>
<path d="M310.399 47.0121L285.653 73.212L280.592 98.9754L292.634 125.263L273.5 143.543L269.001 169.726L225.954 159.836L219.249 181.46L185.849 181.134L153.068 163.991L139.872 179.239L71.2671 169.081L81.6717 112.998L67.1936 96.1192L71.8343 50.457L88.5063 34.9791L80.4515 -7.67209L99.1886 -16.8961L135.386 -9.78443L172.881 -15.3232L200.095 0.351651L229.751 3.60087L247.287 -14.4626L295.647 -4.96142L310.399 47.0121Z" stroke="#373737" stroke-width="0.727047"/>
<path d="M287.078 52.8529L269.093 74.5118L264.35 98.6508L271.288 119.7L254.843 134.743L249.181 154.385L214.607 146.972L208.333 165.016L180.251 164.583L152.633 151.537L143.152 160.855L92.1141 151.121L100.204 106.474L89.6311 91.2298L92.2529 53.3943L105.402 41.3542L100.006 8.93409L115.463 2.29202L144.016 7.90173L178.541 5.00597L199.488 15.9367L222.266 17.5482L237.294 4.36919L275.441 11.8638L287.078 52.8529Z" stroke="#373737" stroke-width="0.727047"/>
<path d="M263.758 58.6937L252.533 75.8116L248.109 98.3262L249.942 114.137L236.186 125.944L229.361 139.044L203.261 134.107L197.417 148.572L174.653 148.031L152.198 139.083L146.432 142.472L112.961 133.16L118.735 99.9491L112.069 86.3405L112.672 56.3315L122.297 47.7293L119.56 25.5403L131.738 21.4802L152.646 25.5879L184.202 25.3352L198.881 31.5217L214.78 31.4954L227.301 23.201L255.234 28.689L263.758 58.6937Z" stroke="#373737" stroke-width="0.727047"/>
<path d="M240.436 64.534L235.971 77.111L231.867 98.0011L228.595 108.574L217.529 117.144L209.54 123.703L191.914 121.243L186.5 132.127L169.054 131.479L151.762 126.628L149.711 124.089L133.807 115.199L137.267 93.4241L134.505 81.4506L133.089 59.2683L139.192 54.1038L139.114 42.146L148.011 40.6678L161.274 43.2736L189.862 45.6638L198.273 47.1062L207.294 45.4422L217.307 42.0324L235.026 45.5137L240.436 64.534Z" stroke="#373737" stroke-width="0.727047"/>
</g>
<path d="M145.242 154.917L144.663 157.868L148.139 158.551L148.708 155.656C149.839 155.742 150.897 155.665 151.88 155.422C153.311 155.059 154.493 154.406 155.426 153.463C156.374 152.511 156.991 151.304 157.278 149.843C157.606 148.171 157.42 146.743 156.72 145.559C156.02 144.376 154.72 143.286 152.819 142.292L148.662 140.148C147.515 139.543 146.708 138.93 146.242 138.31C145.777 137.689 145.616 137.014 145.759 136.283C145.89 135.619 146.206 135.066 146.707 134.624C147.222 134.173 147.851 133.871 148.595 133.719C149.353 133.557 150.167 133.573 151.039 133.767C151.968 133.961 152.768 134.314 153.439 134.825C154.122 135.339 154.643 135.97 155.002 136.719C155.373 137.47 155.552 138.287 155.54 139.17L159.206 139.235C159.183 137.713 158.869 136.352 158.264 135.152C157.67 133.955 156.818 132.96 155.707 132.166C155.065 131.705 154.346 131.322 153.548 131.018L154.136 128.029L150.659 127.346L150.085 130.27C149.085 130.206 148.149 130.28 147.277 130.493C145.946 130.818 144.842 131.429 143.963 132.326C143.096 133.224 142.525 134.371 142.251 135.766C141.67 138.722 142.942 141.041 146.066 142.725L151.348 145.556C152.368 146.113 153.067 146.687 153.446 147.279C153.836 147.873 153.952 148.568 153.796 149.366C153.576 150.484 152.919 151.309 151.824 151.841C150.74 152.376 149.444 152.495 147.936 152.198C146.417 151.9 145.196 151.229 144.272 150.185C143.351 149.13 142.863 147.861 142.809 146.379L139.258 146.251C139.217 147.806 139.504 149.219 140.118 150.49C140.745 151.751 141.655 152.81 142.846 153.664C143.56 154.177 144.359 154.595 145.242 154.917Z" fill="#E9FF6B"/>
<path fill-rule="evenodd" clip-rule="evenodd" d="M177.184 160.583C177.987 161.247 179.053 161.709 180.384 161.971C182.058 162.3 183.532 162.244 184.804 161.805C185.767 161.469 186.653 160.914 187.463 160.142L186.952 162.744L190.029 163.348L192.198 152.306C192.346 151.553 192.451 150.843 192.513 150.177C192.575 149.511 192.519 148.856 192.346 148.213C192.024 146.919 191.318 145.883 190.227 145.106C189.149 144.319 187.807 143.768 186.199 143.452C184.125 143.045 182.373 143.172 180.942 143.833C179.521 144.497 178.438 145.555 177.692 147.007L180.74 148.64C181.248 147.694 181.939 147.082 182.811 146.805C183.685 146.517 184.593 146.465 185.536 146.65C187.033 146.944 188.019 147.495 188.494 148.301C188.92 148.997 189.046 149.923 188.873 151.079C188.174 151.041 187.47 151.002 186.762 150.961C185.623 150.899 184.531 150.857 183.487 150.836C182.443 150.814 181.499 150.842 180.655 150.917C179.676 151.035 178.823 151.276 178.095 151.639C177.37 151.991 176.779 152.478 176.322 153.101C175.866 153.725 175.548 154.49 175.37 155.398C175.179 156.372 175.23 157.313 175.523 158.222C175.83 159.122 176.384 159.909 177.184 160.583ZM184.203 159.237C183.426 159.441 182.544 159.446 181.557 159.252C180.814 159.106 180.227 158.87 179.796 158.544C179.365 158.218 179.071 157.838 178.914 157.405C178.76 156.961 178.728 156.506 178.819 156.041C178.913 155.565 179.098 155.182 179.374 154.891C179.661 154.602 180.01 154.378 180.422 154.217C180.844 154.059 181.31 153.943 181.82 153.871C182.42 153.805 183.093 153.782 183.837 153.802C184.595 153.813 185.436 153.84 186.36 153.884C186.954 153.912 187.59 153.941 188.268 153.971C188.203 154.262 188.123 154.595 188.03 154.97C187.877 155.63 187.654 156.207 187.362 156.702C187.113 157.262 186.719 157.771 186.18 158.229C185.641 158.686 184.982 159.023 184.203 159.237Z" fill="#E9FF6B"/>
<path d="M198.555 165.024L195.558 145.808L199.068 146.498L201.173 161.019L208.615 148.373L212.124 149.063L202.081 165.716L198.555 165.024Z" fill="#E9FF6B"/>
<path d="M213.458 149.325L216.454 168.54L219.98 169.233L230.024 152.58L226.514 151.89L219.072 164.536L216.967 150.014L213.458 149.325Z" fill="#E9FF6B"/>
<path d="M230.197 179.519L234.739 172.053L230.979 152.767L234.605 153.48L237.266 168.003L244.983 155.519L248.509 156.211L233.507 180.169L230.197 179.519Z" fill="#E9FF6B"/>
<path d="M246.248 170.582L245.527 174.252L249.202 174.974L249.923 171.304L246.248 170.582Z" fill="#E9FF6B"/>
<path d="M159.801 154.551C159.314 153.545 159.09 152.432 159.121 151.22L159.132 150.826L162.531 150.95L162.544 151.313C162.582 152.33 162.914 153.186 163.537 153.898C164.161 154.602 164.99 155.062 166.045 155.269C167.106 155.478 167.979 155.387 168.69 155.038L168.692 155.037C169.405 154.69 169.808 154.174 169.946 153.473C170.046 152.965 169.968 152.555 169.742 152.211L169.74 152.208C169.509 151.848 169.055 151.46 168.322 151.06L168.321 151.059L164.392 148.955C163.185 148.305 162.301 147.515 161.781 146.568C161.257 145.614 161.123 144.539 161.353 143.365C161.569 142.265 162.024 141.342 162.729 140.613L162.731 140.61C163.44 139.888 164.329 139.4 165.383 139.143C166.438 138.886 167.598 138.888 168.855 139.135L168.858 139.136L168.861 139.136C170.064 139.391 171.106 139.826 171.975 140.451C172.853 141.076 173.53 141.865 174.001 142.813C174.481 143.763 174.726 144.834 174.744 146.015L174.75 146.418L171.229 146.355L171.235 145.967C171.243 145.369 171.122 144.823 170.874 144.323L170.873 144.319C170.633 143.82 170.286 143.4 169.827 143.055L169.825 143.053C169.377 142.713 168.837 142.472 168.195 142.338L168.193 142.338L168.19 142.337C167.588 142.203 167.04 142.194 166.539 142.301L166.536 142.302C166.041 142.403 165.637 142.6 165.31 142.885C165.003 143.156 164.812 143.49 164.731 143.9C164.646 144.33 164.737 144.72 165.02 145.097C165.315 145.49 165.857 145.913 166.689 146.351L169.782 147.946C171.228 148.702 172.267 149.554 172.841 150.522C173.422 151.503 173.562 152.666 173.304 153.979C173.077 155.131 172.586 156.1 171.821 156.868C171.071 157.625 170.127 158.142 169.002 158.427L168.999 158.427C167.871 158.705 166.633 158.705 165.293 158.441C164.009 158.189 162.893 157.73 161.955 157.057C161.019 156.386 160.3 155.551 159.803 154.555L159.801 154.551Z" fill="#E9FF6B"/>
<g clip-path="url(#clip1_150_310)">
<path d="M423.21 98.2632C423.457 98.7376 423.606 99.2779 423.674 99.8021C423.741 100.326 423.71 100.916 423.598 101.49C423.485 102.064 423.29 102.622 423.029 103.082C422.769 103.542 422.426 103.985 422.017 104.331C421.495 104.824 421.415 105.661 421.909 106.183C422.403 106.706 423.239 106.785 423.762 106.292C424.383 105.732 424.84 105.141 425.329 104.385C425.818 103.63 426.061 102.826 426.222 102.006C426.383 101.186 426.38 100.334 426.295 99.4656C426.194 98.6792 425.929 97.8607 425.566 97.108C425.269 96.4535 424.465 96.2103 423.81 96.5075C423.155 96.8047 422.912 97.6086 423.21 98.2632Z" fill="#FAFAFA"/>
<path d="M428.188 96.7714C428.866 98.5228 429.069 100.521 428.683 102.489C428.296 104.457 427.351 106.231 426.061 107.595C425.538 108.089 425.623 108.957 426.117 109.48C426.692 110.019 427.479 109.918 428.002 109.424C429.618 107.698 430.808 105.547 431.307 103.005C431.79 100.545 431.519 98.0222 430.676 95.8125C430.378 95.158 429.607 94.7508 428.952 95.048C428.297 95.3452 427.906 96.0349 428.188 96.7714Z" fill="#FAFAFA"/>
<path d="M433.428 95.2461C434.371 97.8159 434.577 100.667 434.013 103.537C433.45 106.407 432.098 108.952 430.335 110.99C429.878 111.581 429.897 112.351 430.472 112.89C431.064 113.347 431.834 113.328 432.373 112.753C434.545 110.369 436.059 107.43 436.72 104.069C437.38 100.707 437.09 97.4135 435.982 94.3853C435.783 93.6648 434.995 93.3397 434.274 93.5388C433.537 93.8199 433.228 94.5256 433.428 95.2461Z" fill="#FAFAFA"/>
<path d="M438.668 93.7207C439.794 97.093 440.167 100.828 439.426 104.6C438.685 108.372 437.008 111.705 434.608 114.384C434.151 114.976 434.17 115.746 434.746 116.285C435.337 116.742 436.108 116.723 436.647 116.147C439.292 113.09 441.213 109.38 442.051 105.116C442.889 100.852 442.514 96.6905 441.222 92.8599C441.023 92.1394 440.235 91.8143 439.514 92.0134C438.794 92.2125 438.469 93.0002 438.668 93.7207Z" fill="#FAFAFA"/>
</g>
<g clip-path="url(#clip2_150_310)">
<g filter="url(#filter0_b_150_310)">
<ellipse cx="391.184" cy="234.472" rx="15.5937" ry="15.5906" transform="rotate(11.1152 391.184 234.472)" fill="#FAFAFA" fill-opacity="0.3"/>
</g>
<g filter="url(#filter1_b_150_310)">
<path d="M425.459 241.206C423.799 249.655 415.603 255.158 407.152 253.498C398.701 251.838 393.197 243.643 394.856 235.194C396.516 226.745 404.713 221.241 413.163 222.902C421.614 224.562 427.119 232.757 425.459 241.206Z" fill="#FAFAFA" fill-opacity="0.7"/>
</g>
<g filter="url(#filter2_b_150_310)">
<path d="M403.03 224.332C398.937 226.438 395.813 230.327 394.857 235.193C393.901 240.06 395.321 244.842 398.313 248.34C402.405 246.233 405.53 242.344 406.486 237.478C407.442 232.612 406.021 227.83 403.03 224.332Z" fill="#FAFAFA" fill-opacity="0.6"/>
</g>
</g>
<path d="M134.328 181.845C133.889 181.758 133.499 181.593 133.158 181.349C132.824 181.106 132.571 180.801 132.398 180.433L133.298 179.7C133.437 180 133.605 180.238 133.802 180.413C134.006 180.589 134.242 180.704 134.511 180.756C135.227 180.897 135.667 180.544 135.834 179.698L136.534 176.135L134.083 175.653L134.294 174.581L138.024 175.314L137.127 179.88C136.967 180.694 136.647 181.261 136.169 181.583C135.696 181.906 135.083 181.993 134.328 181.845ZM140.695 183.065C140.157 182.959 139.701 182.75 139.326 182.438C138.953 182.12 138.684 181.733 138.521 181.279C138.359 180.824 138.328 180.338 138.43 179.819C138.533 179.294 138.745 178.856 139.067 178.503C139.389 178.144 139.783 177.891 140.248 177.744C140.713 177.597 141.215 177.576 141.753 177.682C142.297 177.789 142.757 177.998 143.132 178.31C143.513 178.624 143.783 179.004 143.94 179.45C144.104 179.898 144.134 180.388 144.03 180.92C143.928 181.438 143.716 181.877 143.393 182.236C143.077 182.596 142.683 182.852 142.21 183.005C141.745 183.152 141.24 183.172 140.695 183.065ZM140.902 182.012C141.204 182.071 141.486 182.059 141.748 181.974C142.01 181.889 142.231 181.735 142.411 181.511C142.598 181.289 142.724 181.011 142.79 180.676C142.857 180.335 142.845 180.029 142.755 179.759C142.673 179.484 142.527 179.258 142.316 179.08C142.106 178.903 141.853 178.785 141.558 178.727C141.256 178.668 140.974 178.68 140.712 178.765C140.457 178.851 140.236 179.005 140.049 179.228C139.863 179.443 139.737 179.722 139.67 180.063C139.604 180.398 139.616 180.703 139.705 180.979C139.793 181.256 139.94 181.482 140.144 181.659C140.354 181.836 140.607 181.954 140.902 182.012ZM144.59 185.813C144.334 185.763 144.087 185.67 143.848 185.535C143.609 185.399 143.419 185.239 143.278 185.055L143.948 184.246C144.05 184.382 144.174 184.498 144.319 184.595C144.463 184.691 144.617 184.756 144.782 184.788C145.005 184.832 145.196 184.811 145.356 184.727C145.515 184.642 145.68 184.481 145.85 184.241L146.29 183.612L146.418 183.484L149.318 179.229L150.499 179.461L146.923 184.657C146.682 185.018 146.437 185.294 146.188 185.483C145.946 185.674 145.692 185.791 145.424 185.834C145.164 185.878 144.886 185.871 144.59 185.813ZM146.025 184.235L144.722 178.326L146.002 178.578L147.039 183.494L146.025 184.235ZM153.074 185.426L154.427 178.536L155.707 178.788L154.566 184.594L158.168 185.302L157.955 186.385L153.074 185.426ZM162.095 187.198L162.304 186.135L162.279 185.895L162.645 184.035C162.715 183.674 162.662 183.374 162.484 183.135C162.308 182.889 161.999 182.723 161.56 182.636C161.265 182.578 160.964 182.567 160.657 182.602C160.357 182.638 160.092 182.719 159.863 182.845L159.557 181.854C159.881 181.693 160.248 181.598 160.655 181.569C161.071 181.535 161.489 181.559 161.909 181.642C162.67 181.791 163.221 182.09 163.562 182.539C163.911 182.982 164.011 183.584 163.861 184.346L163.256 187.426L162.095 187.198ZM160.428 186.942C160.034 186.865 159.702 186.731 159.433 186.542C159.165 186.346 158.972 186.114 158.854 185.846C158.745 185.572 158.719 185.284 158.779 184.982C158.837 184.687 158.958 184.435 159.142 184.226C159.333 184.018 159.602 183.877 159.951 183.802C160.299 183.728 160.739 183.742 161.271 183.847L162.796 184.147L162.636 184.963L161.199 184.681C160.779 184.599 160.483 184.612 160.312 184.722C160.142 184.824 160.037 184.974 159.999 185.171C159.955 185.394 160.009 185.589 160.16 185.755C160.311 185.921 160.545 186.035 160.86 186.097C161.161 186.156 161.444 186.14 161.707 186.048C161.977 185.958 162.191 185.789 162.349 185.541L162.41 186.319C162.232 186.605 161.971 186.802 161.629 186.912C161.294 187.024 160.894 187.033 160.428 186.942ZM164.835 187.736L165.867 182.481L167.039 182.711L166.754 184.158L166.7 183.707C166.927 183.384 167.226 183.163 167.596 183.045C167.974 182.929 168.415 182.92 168.92 183.019L168.69 184.19C168.64 184.167 168.592 184.151 168.546 184.142C168.502 184.126 168.456 184.114 168.41 184.105C167.945 184.013 167.547 184.078 167.217 184.3C166.889 184.514 166.672 184.891 166.566 185.429L166.065 187.978L164.835 187.736ZM171.22 189.062C170.682 188.957 170.226 188.748 169.851 188.435C169.477 188.117 169.209 187.73 169.046 187.276C168.883 186.821 168.853 186.335 168.955 185.816C169.058 185.292 169.27 184.853 169.591 184.5C169.914 184.141 170.308 183.888 170.773 183.741C171.238 183.594 171.74 183.573 172.278 183.679C172.822 183.786 173.282 183.995 173.657 184.308C174.038 184.621 174.308 185.001 174.465 185.448C174.629 185.896 174.659 186.385 174.555 186.917C174.453 187.435 174.241 187.874 173.918 188.233C173.602 188.593 173.207 188.85 172.734 189.002C172.269 189.149 171.765 189.169 171.22 189.062ZM171.427 188.009C171.729 188.068 172.011 188.056 172.273 187.971C172.535 187.886 172.756 187.732 172.936 187.508C173.123 187.286 173.249 187.008 173.315 186.673C173.382 186.332 173.37 186.026 173.28 185.757C173.198 185.481 173.051 185.255 172.841 185.077C172.631 184.9 172.378 184.782 172.083 184.724C171.781 184.665 171.499 184.677 171.237 184.762C170.981 184.848 170.76 185.003 170.574 185.225C170.388 185.44 170.262 185.719 170.195 186.06C170.129 186.395 170.141 186.7 170.229 186.977C170.318 187.253 170.464 187.479 170.668 187.656C170.879 187.833 171.132 187.951 171.427 188.009ZM175.115 191.81C174.859 191.76 174.612 191.667 174.372 191.532C174.133 191.396 173.943 191.236 173.802 191.052L174.472 190.243C174.575 190.379 174.699 190.495 174.843 190.592C174.988 190.688 175.142 190.753 175.306 190.785C175.529 190.829 175.721 190.809 175.88 190.724C176.04 190.64 176.205 190.478 176.374 190.238L176.815 189.609L176.942 189.481L179.843 185.226L181.024 185.459L177.448 190.654C177.207 191.015 176.962 191.291 176.713 191.48C176.471 191.671 176.216 191.788 175.949 191.831C175.688 191.875 175.41 191.868 175.115 191.81ZM176.549 190.232L175.247 184.324L176.526 184.575L177.564 189.491L176.549 190.232Z" fill="#FAFAFA"/>
<path d="M198.676 194.385L199.933 187.988L200.38 188.679L198.362 188.282L198.573 187.21L201.309 187.747L199.956 194.636L198.676 194.385ZM201.234 194.888L201.402 194.031L204.648 191.971C204.92 191.799 205.128 191.642 205.272 191.5C205.416 191.358 205.518 191.221 205.578 191.09C205.645 190.954 205.691 190.823 205.716 190.698C205.778 190.383 205.717 190.119 205.534 189.906C205.353 189.686 205.052 189.535 204.632 189.453C204.297 189.387 203.98 189.386 203.682 189.45C203.39 189.515 203.121 189.65 202.877 189.854L202.116 188.989C202.456 188.681 202.872 188.473 203.363 188.365C203.863 188.252 204.394 188.251 204.959 188.362C205.457 188.46 205.874 188.627 206.209 188.863C206.552 189.094 206.793 189.377 206.932 189.711C207.078 190.046 207.11 190.417 207.03 190.824C206.987 191.047 206.913 191.264 206.81 191.475C206.709 191.68 206.552 191.888 206.34 192.099C206.129 192.309 205.836 192.534 205.461 192.774L202.67 194.546L202.499 194.012L206.525 194.803L206.312 195.885L201.234 194.888ZM206.225 196.89L211.294 188.257L212.396 188.474L207.327 197.107L206.225 196.89ZM210.71 196.749L210.878 195.893L214.125 193.832C214.397 193.661 214.605 193.504 214.749 193.362C214.892 193.22 214.994 193.083 215.054 192.952C215.122 192.815 215.168 192.685 215.192 192.56C215.254 192.245 215.194 191.981 215.011 191.768C214.829 191.548 214.528 191.397 214.108 191.315C213.774 191.249 213.457 191.248 213.158 191.312C212.866 191.377 212.598 191.512 212.353 191.716L211.593 190.851C211.933 190.543 212.348 190.335 212.84 190.227C213.339 190.114 213.871 190.113 214.435 190.224C214.934 190.322 215.351 190.489 215.686 190.725C216.029 190.956 216.27 191.239 216.409 191.572C216.554 191.908 216.587 192.279 216.507 192.685C216.463 192.909 216.39 193.126 216.287 193.337C216.185 193.542 216.029 193.75 215.817 193.96C215.605 194.171 215.312 194.396 214.938 194.636L212.147 196.408L211.976 195.874L216.001 196.664L215.788 197.747L210.71 196.749ZM216.592 196.28L216.766 195.394L221.033 191.622L222.401 191.891L218.183 195.672L217.582 195.35L223.044 196.423L222.831 197.506L216.592 196.28ZM220.063 198.587L220.371 197.022L220.623 195.947L220.896 194.56L222.096 194.796L221.304 198.831L220.063 198.587Z" fill="#FAFAFA"/>
<rect x="132" y="213.016" width="348.097" height="218.529" rx="22.1268" transform="rotate(-10.5972 132 213.016)" fill="#E9FF6B"/>
<g clip-path="url(#clip3_150_310)">
<g filter="url(#filter3_b_150_310)">
<ellipse cx="447.297" cy="341.577" rx="15.0633" ry="15.3668" transform="rotate(-10.5972 447.297 341.577)" fill="#232323" fill-opacity="0.3"/>
</g>
<g filter="url(#filter4_b_150_310)">
<path d="M480.464 335.372C482.024 343.714 476.66 351.717 468.483 353.247C460.306 354.777 452.411 349.254 450.851 340.912C449.29 332.57 454.654 324.567 462.831 323.037C471.008 321.507 478.903 327.03 480.464 335.372Z" fill="#232323" fill-opacity="0.7"/>
</g>
<g filter="url(#filter5_b_150_310)">
<path d="M454.26 328.008C451.35 331.415 449.952 336.108 450.851 340.912C451.75 345.717 454.75 349.586 458.695 351.712C461.604 348.304 463.003 343.612 462.104 338.807C461.205 334.002 458.205 330.133 454.26 328.008Z" fill="#232323" fill-opacity="0.6"/>
</g>
</g>
<path d="M195.972 353.674L193.404 339.95L188.503 340.867C187.987 340.963 187.564 341.336 187.7 342.064C187.836 342.793 188.366 342.987 188.882 342.891L191.799 342.345L193.988 354.045L191.071 354.591C190.555 354.688 190.132 355.06 190.268 355.789C190.404 356.518 190.933 356.712 191.449 356.615L199.267 355.153C199.783 355.056 200.207 354.684 200.07 353.955L199.116 348.854C199.006 348.267 198.669 347.89 197.934 348.027C197.2 348.165 197.022 348.638 197.132 349.225L197.897 353.314L195.972 353.674Z" fill="#232323"/>
<path d="M205.439 346.895L211.035 345.849C211.69 345.726 212.127 345.539 212.536 344.981C212.993 344.351 212.95 343.793 212.814 343.064L212.038 338.915C211.901 338.186 211.739 337.651 211.085 337.228C210.502 336.855 210.027 336.84 209.372 336.962L202.784 338.195C202.268 338.291 201.845 338.664 201.981 339.392C202.118 340.121 202.647 340.315 203.163 340.219L209.989 338.942L210.894 343.78L205.318 344.823C203.83 345.101 203.22 346.012 203.504 347.53L204.739 354.129L213.549 352.481C214.065 352.384 214.488 352.012 214.352 351.283C214.215 350.554 213.686 350.36 213.17 350.456L206.344 351.733L205.439 346.895Z" fill="#232323"/>
<path d="M224.27 336.27L224.899 339.63C225.111 340.764 224.739 341.189 224.183 341.293L220.294 342.021C219.778 342.118 219.355 342.49 219.491 343.219C219.628 343.948 220.157 344.142 220.673 344.045L224.562 343.318C225.118 343.214 225.619 343.476 225.831 344.61L226.459 347.97L219.633 349.247C219.118 349.344 218.694 349.716 218.831 350.445C218.967 351.174 219.496 351.368 220.012 351.271L226.838 349.994C227.969 349.783 228.66 348.753 228.444 347.599L227.716 343.712C227.565 342.902 227.296 342.345 226.575 341.893C227.084 341.212 227.133 340.595 226.982 339.785L226.255 335.899C226.039 334.745 225.023 334.034 223.892 334.246L217.066 335.523C216.55 335.619 216.127 335.992 216.263 336.72C216.399 337.449 216.928 337.643 217.444 337.547L224.27 336.27Z" fill="#232323"/>
<path d="M234.937 341.062L233.521 333.492C233.426 332.985 233.093 332.524 232.339 332.665C231.585 332.806 231.442 333.357 231.536 333.863L233.332 343.458L239.165 342.366L239.938 346.496C240.059 347.144 240.405 347.456 241.119 347.322C241.834 347.189 242.043 346.772 241.922 346.125L241.15 341.995C241.666 341.899 242.089 341.526 241.952 340.797C241.816 340.069 241.287 339.874 240.771 339.971L239.676 334.121C239.582 333.615 239.249 333.153 238.495 333.294C237.741 333.435 237.597 333.986 237.692 334.492L238.787 340.342L234.937 341.062Z" fill="#232323"/>
<path d="M263.245 328.978L268.107 328.068C268.623 327.972 269.046 327.599 268.909 326.871C268.773 326.142 268.244 325.947 267.728 326.044L260.882 327.325L262.545 336.211L268.398 335.116L269.304 339.954L264.72 340.812C264.402 340.871 263.893 340.673 263.592 340.604L262.948 340.452C262.711 340.391 262.521 340.364 262.283 340.409C261.767 340.505 261.421 341.073 261.52 341.599C261.652 342.307 262.281 342.378 262.863 342.521L263.681 342.724C264.219 342.854 264.543 342.94 265.059 342.843L269.464 342.019C270.178 341.886 270.679 341.708 271.062 341.008C271.384 340.424 271.36 339.967 271.242 339.34L270.432 335.008C270.299 334.3 270.149 333.825 269.495 333.402C268.932 333.026 268.436 333.014 267.801 333.133L264.15 333.816L263.245 328.978Z" fill="#232323"/>
<path d="M275.562 326.673C276.138 326.566 276.478 326.083 276.365 325.476C276.266 324.949 275.759 324.541 275.243 324.638L274.052 324.861C273.358 324.991 273.301 325.567 273.388 326.032L275.907 339.494C276.081 340.425 276.503 340.702 277.435 340.528L284.658 339.176C285.551 339.009 285.887 338.611 285.709 337.66L284.861 333.125C284.687 332.194 284.409 331.806 283.417 331.992L276.789 333.232L275.562 326.673ZM283.002 334.165L283.585 337.282L277.751 338.374L277.168 335.256L283.002 334.165Z" fill="#232323"/>
<path d="M295.677 322.91L296.2 325.703C296.367 326.594 296.402 326.566 295.857 327.276L293.57 330.197C293.157 330.735 293.149 330.8 293.274 331.468L294.186 336.346C294.308 336.994 294.653 337.306 295.368 337.173C296.082 337.039 296.292 336.623 296.171 335.975L295.436 332.048C295.303 331.339 295.335 331.291 295.764 330.729L298.084 327.76C298.549 327.17 298.514 327.093 298.381 326.385L297.283 320.514L288.473 322.163C287.838 322.282 287.587 322.915 287.67 323.361L287.859 324.373C287.943 324.818 288.406 325.318 289.041 325.199C289.676 325.08 289.927 324.447 289.843 324.001L295.677 322.91Z" fill="#232323"/>
<path d="M307.014 325.796L306.109 320.958L307.974 320.609L308.88 325.447L307.014 325.796ZM304.738 319.12C304.064 319.246 303.837 319.791 303.935 320.317L305.03 326.167C304.415 326.282 303.98 326.594 303.688 327.005C303.395 327.416 303.311 327.956 303.428 328.583L304.33 333.401C304.561 334.636 305.462 335.284 306.693 335.054L312.526 333.962C313.757 333.732 314.363 332.802 314.132 331.567L313.231 326.749C313.113 326.122 312.84 325.649 312.418 325.372C311.997 325.094 311.479 324.961 310.864 325.076L309.769 319.226C309.671 318.7 309.262 318.273 308.588 318.399L304.738 319.12ZM306.314 333.03L305.409 328.192L311.243 327.1L312.148 331.938L306.314 333.03Z" fill="#232323"/>
<path d="M340.71 326.594C340.135 326.702 339.794 327.185 339.908 327.792C340.01 328.338 340.494 328.73 341.089 328.618L342.081 328.433C342.677 328.321 342.986 327.782 342.884 327.235L340.316 313.511C340.218 312.984 339.69 312.58 339.135 312.684L331.317 314.147C330.761 314.251 330.416 314.818 330.514 315.345L331.484 320.527C331.582 321.053 332.109 321.457 332.665 321.353L339.491 320.076L340.71 326.594ZM333.278 319.143L332.688 315.985L338.521 314.894L339.112 318.052L333.278 319.143Z" fill="#232323"/>
<path d="M346.59 311.289C345.499 311.493 344.776 312.571 344.985 313.685L347.174 325.385C347.386 326.518 348.406 327.25 349.537 327.038L355.371 325.946C356.502 325.735 357.188 324.685 356.976 323.551L354.787 311.851C354.579 310.737 353.515 309.994 352.424 310.198L346.59 311.289ZM349.158 325.014L346.969 313.313L352.803 312.222L354.992 323.922L349.158 325.014Z" fill="#232323"/>
<path d="M360.872 308.617C359.78 308.821 359.058 309.899 359.266 311.013L361.455 322.713C361.667 323.847 362.687 324.578 363.818 324.366L369.652 323.274C370.783 323.063 371.47 322.013 371.258 320.879L369.068 309.179C368.86 308.065 367.797 307.322 366.705 307.526L360.872 308.617ZM363.439 322.342L361.25 310.641L367.084 309.55L369.273 321.25L363.439 322.342Z" fill="#232323"/>
<path d="M375.153 305.945C374.062 306.149 373.339 307.227 373.548 308.341L375.737 320.041C375.949 321.175 376.969 321.906 378.1 321.694L383.933 320.602C385.064 320.391 385.751 319.341 385.539 318.207L383.35 306.507C383.142 305.393 382.078 304.65 380.987 304.854L375.153 305.945ZM377.721 319.67L375.532 307.97L381.366 306.878L383.555 318.578L377.721 319.67Z" fill="#232323"/>
<path d="M403.716 300.601C402.625 300.805 401.902 301.883 402.11 302.997L404.299 314.697C404.511 315.831 405.531 316.562 406.662 316.35L412.496 315.259C413.627 315.047 414.314 313.997 414.102 312.863L411.913 301.163C411.704 300.05 410.641 299.306 409.55 299.51L403.716 300.601ZM406.284 314.326L404.095 302.626L409.928 301.534L412.117 313.234L406.284 314.326Z" fill="#232323"/>
<path d="M417.997 297.929C416.906 298.134 416.183 299.211 416.392 300.325L418.581 312.025C418.793 313.159 419.813 313.89 420.944 313.678L426.778 312.587C427.909 312.375 428.595 311.325 428.383 310.191L426.194 298.491C425.986 297.378 424.922 296.634 423.831 296.838L417.997 297.929ZM420.565 311.654L418.376 299.954L424.21 298.862L426.399 310.562L420.565 311.654Z" fill="#232323"/>
<path d="M432.279 295.257C431.187 295.462 430.465 296.54 430.673 297.653L432.862 309.353C433.074 310.487 434.094 311.218 435.225 311.006L441.059 309.915C442.19 309.703 442.877 308.653 442.664 307.519L440.475 295.819C440.267 294.706 439.204 293.962 438.112 294.166L432.279 295.257ZM434.846 308.982L432.657 297.282L438.491 296.19L440.68 307.89L434.846 308.982Z" fill="#232323"/>
<path d="M446.56 292.585C445.469 292.79 444.746 293.868 444.954 294.981L447.144 306.681C447.356 307.815 448.375 308.546 449.507 308.334L455.34 307.243C456.471 307.031 457.158 305.981 456.946 304.847L454.757 293.147C454.548 292.034 453.485 291.29 452.394 291.494L446.56 292.585ZM449.128 306.31L446.939 294.61L452.773 293.518L454.962 305.218L449.128 306.31Z" fill="#232323"/>
<path d="M362.719 214.024L363.215 216.677L366.275 216.104L365.787 213.501C366.739 213.201 367.576 212.789 368.298 212.263C369.346 211.49 370.095 210.557 370.547 209.462C371.007 208.356 371.114 207.146 370.868 205.832C370.587 204.328 369.966 203.198 369.006 202.44C368.046 201.681 366.627 201.2 364.751 200.994L360.656 200.57C359.521 200.443 358.662 200.196 358.078 199.832C357.495 199.467 357.142 198.956 357.019 198.299C356.907 197.701 356.983 197.136 357.247 196.602C357.519 196.057 357.933 195.598 358.489 195.226C359.054 194.842 359.724 194.588 360.498 194.464C361.32 194.32 362.089 194.351 362.804 194.558C363.529 194.762 364.161 195.118 364.7 195.625C365.25 196.13 365.664 196.753 365.944 197.494L368.956 196.343C368.437 195.08 367.734 194.048 366.846 193.245C365.968 192.441 364.946 191.89 363.779 191.593C363.105 191.419 362.392 191.336 361.642 191.344L361.139 188.656L358.079 189.228L358.571 191.857C357.735 192.133 356.996 192.502 356.355 192.967C355.376 193.675 354.676 194.548 354.254 195.585C353.841 196.621 353.753 197.766 353.987 199.02C354.485 201.679 356.284 203.197 359.385 203.575L364.623 204.202C365.638 204.332 366.396 204.582 366.9 204.951C367.413 205.319 367.737 205.861 367.871 206.578C368.059 207.584 367.794 208.488 367.076 209.293C366.367 210.095 365.349 210.62 364.022 210.869C362.685 211.119 361.469 210.96 360.372 210.392C359.274 209.814 358.46 208.916 357.929 207.696L354.991 208.756C355.468 210.068 356.166 211.153 357.085 212.012C358.011 212.859 359.1 213.443 360.352 213.766C361.103 213.959 361.892 214.045 362.719 214.024Z" fill="url(#paint0_linear_150_310)"/>
<path fill-rule="evenodd" clip-rule="evenodd" d="M390.632 208.255C391.504 208.545 392.526 208.581 393.697 208.362C395.171 208.086 396.355 207.555 397.248 206.77C397.923 206.173 398.464 205.419 398.87 204.508L399.308 206.848L402.016 206.341L400.158 196.41C400.032 195.733 399.884 195.106 399.716 194.53C399.547 193.954 399.287 193.425 398.934 192.945C398.247 191.971 397.331 191.339 396.185 191.048C395.048 190.746 393.772 190.727 392.357 190.992C390.532 191.333 389.144 192.015 388.194 193.038C387.254 194.059 386.718 195.298 386.586 196.755L389.609 197.117C389.712 196.159 390.074 195.422 390.695 194.904C391.313 194.376 392.037 194.034 392.867 193.879C394.184 193.633 395.169 193.768 395.821 194.285C396.398 194.726 396.805 195.457 397.044 196.479C396.46 196.677 395.873 196.876 395.283 197.075C394.333 197.397 393.429 197.721 392.57 198.046C391.712 198.372 390.951 198.705 390.288 199.045C389.528 199.466 388.911 199.947 388.437 200.489C387.96 201.021 387.639 201.622 387.471 202.293C387.303 202.963 387.296 203.706 387.449 204.523C387.613 205.399 387.964 206.168 388.502 206.83C389.048 207.48 389.758 207.955 390.632 208.255ZM395.914 204.824C395.348 205.25 394.63 205.544 393.761 205.706C393.107 205.829 392.551 205.825 392.092 205.694C391.633 205.564 391.269 205.343 390.999 205.033C390.727 204.713 390.552 204.344 390.474 203.926C390.393 203.498 390.418 203.117 390.548 202.784C390.687 202.448 390.898 202.146 391.181 201.877C391.474 201.606 391.816 201.356 392.208 201.128C392.676 200.876 393.217 200.635 393.83 200.407C394.452 200.167 395.147 199.914 395.915 199.646C396.409 199.475 396.937 199.29 397.5 199.092C397.542 199.357 397.587 199.661 397.634 200.005C397.726 200.606 397.734 201.161 397.658 201.67C397.639 202.219 397.485 202.774 397.196 203.333C396.907 203.892 396.479 204.389 395.914 204.824Z" fill="url(#paint1_linear_150_310)"/>
<path d="M409.521 204.937L400.764 189.882L403.853 189.304L410.34 200.734L412.256 187.732L415.345 187.154L412.624 204.357L409.521 204.937Z" fill="url(#paint2_linear_150_310)"/>
<path d="M416.519 186.935L425.275 201.99L428.378 201.409L431.099 184.207L428.011 184.785L426.095 197.787L419.608 186.357L416.519 186.935Z" fill="url(#paint3_linear_150_310)"/>
<path d="M440.09 206.637L441.342 198.912L431.94 184.049L435.131 183.452L442.073 194.701L444.266 181.743L447.37 181.163L443.003 206.092L440.09 206.637Z" fill="url(#paint4_linear_150_310)"/>
<path d="M450.245 193.902L450.863 197.202L454.098 196.597L453.481 193.297L450.245 193.902Z" fill="url(#paint5_linear_150_310)"/>
<path d="M374.472 208.932C373.745 208.253 373.196 207.398 372.824 206.376L372.703 206.044L375.516 205.03L375.646 205.328C376.011 206.165 376.563 206.77 377.305 207.16C378.045 207.542 378.872 207.654 379.801 207.48C380.735 207.305 381.417 206.943 381.882 206.417L381.883 206.416C382.351 205.893 382.511 205.329 382.393 204.698C382.307 204.242 382.109 203.925 381.812 203.712L381.809 203.71C381.503 203.486 381.005 203.311 380.275 203.218L380.274 203.218L376.378 202.753C375.181 202.607 374.2 202.238 373.464 201.618C372.724 200.994 372.261 200.141 372.064 199.085C371.879 198.096 371.947 197.175 372.282 196.335L372.283 196.333C372.624 195.496 373.188 194.798 373.964 194.237C374.74 193.675 375.687 193.296 376.793 193.089L376.795 193.088L376.798 193.088C377.863 192.904 378.856 192.925 379.77 193.161C380.691 193.395 381.502 193.831 382.198 194.467C382.901 195.103 383.453 195.916 383.856 196.896L383.994 197.231L381.101 198.335L380.978 198.009C380.788 197.507 380.51 197.092 380.144 196.755L380.141 196.753C379.782 196.415 379.361 196.178 378.873 196.041L378.871 196.04C378.394 195.903 377.874 195.88 377.307 195.979L377.305 195.979L377.302 195.98C376.767 196.066 376.317 196.239 375.944 196.492L375.941 196.494C375.571 196.741 375.306 197.038 375.134 197.384C374.972 197.711 374.925 198.052 374.994 198.422C375.067 198.808 375.268 199.104 375.623 199.326C375.994 199.557 376.574 199.732 377.397 199.824L380.443 200.139C381.871 200.294 382.999 200.664 383.784 201.284C384.58 201.911 385.077 202.836 385.297 204.017C385.491 205.054 385.409 206.024 385.037 206.916C384.674 207.794 384.074 208.537 383.25 209.144L383.248 209.145C382.419 209.748 381.409 210.154 380.23 210.375C379.1 210.586 378.039 210.57 377.053 210.317C376.069 210.065 375.208 209.604 374.475 208.935L374.472 208.932Z" fill="url(#paint6_linear_150_310)"/>
<path d="M238.389 272.54C240.44 274.444 241.821 276.98 242.32 279.754C242.818 282.528 242.405 285.386 241.144 287.884" stroke="url(#paint7_linear_150_310)" stroke-width="1.82115" stroke-linecap="round"/>
<path d="M243.47 266.851C246.759 269.904 248.974 273.97 249.772 278.417C250.571 282.865 249.909 287.447 247.888 291.451" stroke="url(#paint8_linear_150_310)" stroke-width="1.82115" stroke-linecap="round"/>
<path d="M248.487 261.236C252.996 265.423 256.034 270.999 257.13 277.099C258.225 283.199 257.317 289.482 254.546 294.974" stroke="url(#paint9_linear_150_310)" stroke-width="1.82115" stroke-linecap="round"/>
<rect x="168.411" y="270.634" width="53.5533" height="43.535" rx="6.07049" transform="rotate(-10.5972 168.411 270.634)" fill="#D7D7D7"/>
<rect x="168.411" y="270.634" width="53.5533" height="43.535" rx="6.07049" transform="rotate(-10.5972 168.411 270.634)" fill="url(#paint10_linear_150_310)"/>
<line x1="195.036" y1="309.943" x2="187.03" y2="267.15" stroke="#CDC7C7" stroke-width="0.607049"/>
<path d="M208.416 307.005L203.549 280.994L223.701 277.224" stroke="#CDC7C7" stroke-width="0.607049"/>
<path d="M205.982 294L226.545 290.153" stroke="#CDC7C7" stroke-width="0.607049"/>
<path d="M188.487 275.562L169.981 279.024" stroke="#CDC7C7" stroke-width="0.607049"/>
<path d="M190.842 288.148L172.336 291.611" stroke="#CDC7C7" stroke-width="0.607049"/>
<path d="M193.196 300.734L174.69 304.197" stroke="#CDC7C7" stroke-width="0.607049"/>
</g>
<defs>
<filter id="filter0_b_150_310" x="333.797" y="177.087" width="114.775" height="114.77" filterUnits="userSpaceOnUse" color-interpolation-filters="sRGB">
<feFlood flood-opacity="0" result="BackgroundImageFix"/>
<feGaussianBlur in="BackgroundImage" stdDeviation="20.8956"/>
<feComposite in2="SourceAlpha" operator="in" result="effect1_backgroundBlur_150_310"/>
<feBlend mode="normal" in="SourceGraphic" in2="effect1_backgroundBlur_150_310" result="shape"/>
</filter>
<filter id="filter1_b_150_310" x="352.77" y="180.815" width="114.775" height="114.77" filterUnits="userSpaceOnUse" color-interpolation-filters="sRGB">
<feFlood flood-opacity="0" result="BackgroundImageFix"/>
<feGaussianBlur in="BackgroundImage" stdDeviation="20.8956"/>
<feComposite in2="SourceAlpha" operator="in" result="effect1_backgroundBlur_150_310"/>
<feBlend mode="normal" in="SourceGraphic" in2="effect1_backgroundBlur_150_310" result="shape"/>
</filter>
<filter id="filter2_b_150_310" x="352.77" y="182.541" width="95.802" height="107.59" filterUnits="userSpaceOnUse" color-interpolation-filters="sRGB">
<feFlood flood-opacity="0" result="BackgroundImageFix"/>
<feGaussianBlur in="BackgroundImage" stdDeviation="20.8956"/>
<feComposite in2="SourceAlpha" operator="in" result="effect1_backgroundBlur_150_310"/>
<feBlend mode="normal" in="SourceGraphic" in2="effect1_backgroundBlur_150_310" result="shape"/>
</filter>
<filter id="filter3_b_150_310" x="402.934" y="296.931" width="88.7268" height="89.2925" filterUnits="userSpaceOnUse" color-interpolation-filters="sRGB">
<feFlood flood-opacity="0" result="BackgroundImageFix"/>
<feGaussianBlur in="BackgroundImage" stdDeviation="14.6434"/>
<feComposite in2="SourceAlpha" operator="in" result="effect1_backgroundBlur_150_310"/>
<feBlend mode="normal" in="SourceGraphic" in2="effect1_backgroundBlur_150_310" result="shape"/>
</filter>
<filter id="filter4_b_150_310" x="421.294" y="293.496" width="88.7268" height="89.2925" filterUnits="userSpaceOnUse" color-interpolation-filters="sRGB">
<feFlood flood-opacity="0" result="BackgroundImageFix"/>
<feGaussianBlur in="BackgroundImage" stdDeviation="14.6434"/>
<feComposite in2="SourceAlpha" operator="in" result="effect1_backgroundBlur_150_310"/>
<feBlend mode="normal" in="SourceGraphic" in2="effect1_backgroundBlur_150_310" result="shape"/>
</filter>
<filter id="filter5_b_150_310" x="421.294" y="298.721" width="70.3667" height="82.2776" filterUnits="userSpaceOnUse" color-interpolation-filters="sRGB">
<feFlood flood-opacity="0" result="BackgroundImageFix"/>
<feGaussianBlur in="BackgroundImage" stdDeviation="14.6434"/>
<feComposite in2="SourceAlpha" operator="in" result="effect1_backgroundBlur_150_310"/>
<feBlend mode="normal" in="SourceGraphic" in2="effect1_backgroundBlur_150_310" result="shape"/>
</filter>
<linearGradient id="paint0_linear_150_310" x1="376.767" y1="193.093" x2="380.008" y2="210.417" gradientUnits="userSpaceOnUse">
<stop stop-color="#010101"/>
<stop offset="1" stop-color="#222222"/>
</linearGradient>
<linearGradient id="paint1_linear_150_310" x1="376.767" y1="193.093" x2="380.008" y2="210.417" gradientUnits="userSpaceOnUse">
<stop stop-color="#010101"/>
<stop offset="1" stop-color="#222222"/>
</linearGradient>
<linearGradient id="paint2_linear_150_310" x1="376.767" y1="193.093" x2="380.008" y2="210.417" gradientUnits="userSpaceOnUse">
<stop stop-color="#010101"/>
<stop offset="1" stop-color="#222222"/>
</linearGradient>
<linearGradient id="paint3_linear_150_310" x1="376.767" y1="193.093" x2="380.008" y2="210.417" gradientUnits="userSpaceOnUse">
<stop stop-color="#010101"/>
<stop offset="1" stop-color="#222222"/>
</linearGradient>
<linearGradient id="paint4_linear_150_310" x1="376.767" y1="193.093" x2="380.008" y2="210.417" gradientUnits="userSpaceOnUse">
<stop stop-color="#010101"/>
<stop offset="1" stop-color="#222222"/>
</linearGradient>
<linearGradient id="paint5_linear_150_310" x1="376.767" y1="193.093" x2="380.008" y2="210.417" gradientUnits="userSpaceOnUse">
<stop stop-color="#010101"/>
<stop offset="1" stop-color="#222222"/>
</linearGradient>
<linearGradient id="paint6_linear_150_310" x1="376.767" y1="193.093" x2="380.008" y2="210.417" gradientUnits="userSpaceOnUse">
<stop stop-color="#010101"/>
<stop offset="1" stop-color="#222222"/>
</linearGradient>
<linearGradient id="paint7_linear_150_310" x1="220.648" y1="273.319" x2="239.606" y2="290.255" gradientUnits="userSpaceOnUse">
<stop stop-color="#F4F4F4"/>
<stop offset="1" stop-color="#BFBCBC"/>
</linearGradient>
<linearGradient id="paint8_linear_150_310" x1="215.028" y1="268.1" x2="245.423" y2="295.253" gradientUnits="userSpaceOnUse">
<stop stop-color="#F4F4F4"/>
<stop offset="1" stop-color="#BFBCBC"/>
</linearGradient>
<linearGradient id="paint9_linear_150_310" x1="209.48" y1="262.949" x2="251.164" y2="300.188" gradientUnits="userSpaceOnUse">
<stop stop-color="#F4F4F4"/>
<stop offset="1" stop-color="#BFBCBC"/>
</linearGradient>
<linearGradient id="paint10_linear_150_310" x1="167.446" y1="272.25" x2="225.85" y2="297.513" gradientUnits="userSpaceOnUse">
<stop stop-color="#F5F5F5"/>
<stop offset="1" stop-color="#E6E6E6" stop-opacity="0"/>
</linearGradient>
<clipPath id="clip0_150_310">
<rect width="431" height="361" fill="white" transform="translate(91)"/>
</clipPath>
<clipPath id="clip1_150_310">
<rect width="26.7463" height="26.741" fill="white" transform="translate(421.665 87.4844) rotate(11.1152)"/>
</clipPath>
<clipPath id="clip2_150_310">
<rect x="373.73" y="210.07" width="62.3748" height="41.7828" rx="6.68658" transform="rotate(11.1152 373.73 210.07)" fill="white"/>
</clipPath>
<clipPath id="clip3_150_310">
<rect x="422.838" y="325.517" width="60.2533" height="41.183" rx="4.6859" transform="rotate(-10.5972 422.838 325.517)" fill="white"/>
</clipPath>
</defs>
</svg>
