<svg width="178" height="61" viewBox="0 0 178 61" fill="none" xmlns="http://www.w3.org/2000/svg">
<path d="M84.1061 8.5L89.0654 0.707886L94.0233 8.5L89.0654 11.3329L84.1061 8.5Z" fill="white"/>
<path d="M89.0654 0.707886L94.0233 8.49999L89.0654 11.3329V0.707886Z" fill="white"/>
<path d="M84.1061 9.5625L89.0654 12.3954L94.0233 9.5625L89.0654 16.2921L84.1061 9.5625Z" fill="white"/>
<path d="M89.0654 12.3954L94.0233 9.5625L89.0654 16.2921V12.3954ZM84.1061 8.5L89.0654 6.375L94.0233 8.5L89.0654 11.3329L84.1061 8.5Z" fill="white"/>
<path d="M89.0654 6.375L94.0233 8.5L89.0654 11.3329V6.375Z" fill="white"/>
<path d="M12.528 17C15.76 17 18.48 18.088 20.688 20.264C22.896 22.44 24 25.112 24 28.28C24 31.448 22.896 34.12 20.688 36.296C18.48 38.472 15.76 39.56 12.528 39.56H6.624V50.6H0V17H12.528ZM12.528 33.368C13.936 33.368 15.104 32.888 16.032 31.928C16.96 30.936 17.424 29.72 17.424 28.28C17.424 26.808 16.96 25.592 16.032 24.632C15.104 23.672 13.936 23.192 12.528 23.192H6.624V33.368H12.528Z" fill="white"/>
<path d="M44.6707 26.6H50.8628V50.6H44.6707V47.768C42.8148 50.104 40.2068 51.272 36.8468 51.272C33.6468 51.272 30.8948 50.056 28.5907 47.624C26.3188 45.16 25.1828 42.152 25.1828 38.6C25.1828 35.048 26.3188 32.056 28.5907 29.624C30.8948 27.16 33.6468 25.928 36.8468 25.928C40.2068 25.928 42.8148 27.096 44.6707 29.432V26.6ZM33.2467 43.496C34.4948 44.744 36.0788 45.368 37.9987 45.368C39.9187 45.368 41.5028 44.744 42.7508 43.496C44.0308 42.216 44.6707 40.584 44.6707 38.6C44.6707 36.616 44.0308 35 42.7508 33.752C41.5028 32.472 39.9187 31.832 37.9987 31.832C36.0788 31.832 34.4948 32.472 33.2467 33.752C31.9987 35 31.3748 36.616 31.3748 38.6C31.3748 40.584 31.9987 42.216 33.2467 43.496Z" fill="white"/>
<path d="M74.6696 17H80.8616V50.6H74.6696V47.768C72.8456 50.104 70.2536 51.272 66.8936 51.272C63.6616 51.272 60.8936 50.056 58.5896 47.624C56.3176 45.16 55.1816 42.152 55.1816 38.6C55.1816 35.048 56.3176 32.056 58.5896 29.624C60.8936 27.16 63.6616 25.928 66.8936 25.928C70.2536 25.928 72.8456 27.096 74.6696 29.432V17ZM63.2456 43.496C64.5256 44.744 66.1256 45.368 68.0456 45.368C69.9656 45.368 71.5496 44.744 72.7976 43.496C74.0456 42.216 74.6696 40.584 74.6696 38.6C74.6696 36.616 74.0456 35 72.7976 33.752C71.5496 32.472 69.9656 31.832 68.0456 31.832C66.1256 31.832 64.5256 32.472 63.2456 33.752C61.9976 35 61.3736 36.616 61.3736 38.6C61.3736 40.584 61.9976 42.216 63.2456 43.496Z" fill="white"/>
<path d="M86.5245 50.6V26.6H92.7165V50.6H86.5245Z" fill="white"/>
<path d="M111.2 17C114.432 17 117.152 18.088 119.36 20.264C121.568 22.44 122.672 25.112 122.672 28.28C122.672 31.448 121.568 34.12 119.36 36.296C117.152 38.472 114.432 39.56 111.2 39.56H105.296V50.6H98.6719V17H111.2ZM111.2 33.368C112.608 33.368 113.776 32.888 114.704 31.928C115.632 30.936 116.096 29.72 116.096 28.28C116.096 26.808 115.632 25.592 114.704 24.632C113.776 23.672 112.608 23.192 111.2 23.192H105.296V33.368H111.2Z" fill="white"/>
<path d="M143.343 26.6H149.535V50.6H143.343V47.768C141.487 50.104 138.879 51.272 135.519 51.272C132.319 51.272 129.567 50.056 127.263 47.624C124.991 45.16 123.855 42.152 123.855 38.6C123.855 35.048 124.991 32.056 127.263 29.624C129.567 27.16 132.319 25.928 135.519 25.928C138.879 25.928 141.487 27.096 143.343 29.432V26.6ZM131.919 43.496C133.167 44.744 134.751 45.368 136.671 45.368C138.591 45.368 140.175 44.744 141.423 43.496C142.703 42.216 143.343 40.584 143.343 38.6C143.343 36.616 142.703 35 141.423 33.752C140.175 32.472 138.591 31.832 136.671 31.832C134.751 31.832 133.167 32.472 131.919 33.752C130.671 35 130.047 36.616 130.047 38.6C130.047 40.584 130.671 42.216 131.919 43.496Z" fill="white"/>
<path d="M170.798 26.6H177.421L168.686 50.6C167.438 54.056 165.773 56.552 163.693 58.088C161.645 59.656 159.086 60.36 156.014 60.2V54.44C157.678 54.472 158.989 54.12 159.949 53.384C160.941 52.648 161.725 51.464 162.301 49.832L152.462 26.6H159.23L165.469 42.728L170.798 26.6Z" fill="white"/>
</svg>
