<svg width="766" height="838" viewBox="0 0 766 838" fill="none" xmlns="http://www.w3.org/2000/svg">
<path d="M0 0H766V838H0V0Z" fill="black"/>
<mask id="mask0_223_363" style="mask-type:alpha" maskUnits="userSpaceOnUse" x="0" y="0" width="766" height="838">
<path d="M0 39C0 17.4609 17.4609 0 39 0H766V838H39C17.4609 838 0 820.539 0 799V39Z" fill="black"/>
</mask>
<g mask="url(#mask0_223_363)">
<path d="M1280.92 -24.7072L1079.48 208.692L1079.48 325.392L1280.92 498.01L1186.27 653.61L1249.37 887.009L899.883 862.697L899.883 1018.3L674.174 1064.49L424.195 957.515L331.97 1173.9L-306.326 1258.99L-306.326 799.484L-461.652 738.703L-461.652 403.192L-352.438 247.592L-515.046 -109.801L-398.551 -226.501L-95.1785 -226.5L67.4292 -343.2L331.97 -226.5L596.511 -226.5L674.174 -421L1079.48 -421L1280.92 -24.7072Z" stroke="#222222"/>
<path d="M457.473 331.184L479.029 373.393L479.029 429.067L438.254 467.91L387.35 478.009L377.481 501.055L309.177 510.118L309.177 461.177L304.242 402.395L286.841 364.33L299.307 351.9L331.772 351.9L405.79 351.9L414.101 331.184L457.473 331.184Z" stroke="#222222"/>
<path d="M1219.24 4.29251L1034.12 221.362L1034.12 333.367L1218.5 494.201L1129.56 639.325L1185.85 855.159L861.288 833.105L860.529 978.509L649.555 1021.5L416.178 923.1L331.047 1120.95L-258.149 1197.62L-258.339 771.2L-401.907 712.834L-403.246 400.202L-301.953 256.094L-451.573 -74.2853L-342.791 -182.008L-61.5059 -182.008L94.2874 -289.731L338.798 -182.805L583.31 -183.602L656.667 -363.14L1032.46 -363.14L1219.24 4.29251Z" stroke="#222222" stroke-width="1.5"/>
<path d="M1157.55 33.2922L988.76 234.031L988.76 341.342L1156.07 490.392L1072.85 625.041L1122.32 823.309L822.69 803.514L821.171 938.721L624.932 978.505L408.157 888.685L330.121 1068.01L-209.976 1136.25L-210.355 742.915L-342.165 686.964L-344.842 397.213L-251.471 264.596L-388.103 -38.7699L-287.033 -137.516L-27.8364 -137.516L121.142 -236.262L345.624 -139.109L570.105 -140.703L639.157 -305.279L985.444 -305.279L1157.55 33.2922Z" stroke="#222222" stroke-width="1.5"/>
<path d="M1095.87 62.2922L943.403 246.7L943.403 349.317L1093.65 486.582L1016.14 610.756L1058.8 791.459L784.095 773.923L781.818 898.933L600.314 935.513L400.141 854.27L329.199 1015.07L-161.798 1074.88L-162.367 714.631L-282.419 661.094L-286.434 394.224L-200.985 273.098L-324.63 -3.25404L-231.272 -93.0231L5.83727 -93.023L148.001 -182.792L352.453 -95.4133L556.905 -97.8036L621.65 -247.419L938.429 -247.419L1095.87 62.2922Z" stroke="#222222" stroke-width="1.5"/>
<path d="M1034.18 91.2919L898.043 259.37L898.043 357.292L1031.23 482.773L959.426 596.472L995.281 759.609L745.498 744.332L742.461 859.146L575.693 892.52L392.122 819.855L328.274 962.128L-113.623 1013.51L-114.383 686.347L-222.676 635.224L-228.03 391.235L-150.502 281.599L-261.159 32.2614L-175.514 -48.5307L39.5077 -48.5307L174.857 -129.323L359.279 -51.7177L543.702 -54.9048L604.141 -189.558L891.41 -189.558L1034.18 91.2919Z" stroke="#222222" stroke-width="1.5"/>
<path d="M972.5 120.291L852.683 272.039L852.683 365.267L968.804 478.964L902.715 582.187L931.758 727.759L706.901 714.74L703.105 819.358L551.071 849.527L384.103 785.44L327.349 909.185L-65.4487 952.139L-66.3975 658.062L-162.932 609.354L-169.625 388.245L-100.019 290.101L-197.688 67.7768L-119.755 -4.03844L73.1786 -4.03843L201.713 -75.8536L366.106 -8.02224L530.499 -12.0061L586.632 -131.698L844.392 -131.698L972.5 120.291Z" stroke="#222222" stroke-width="1.5"/>
<path d="M910.816 149.291L807.324 284.708L807.324 373.242L906.381 475.154L846.005 567.902L868.236 695.909L668.304 685.149L663.749 779.57L526.451 806.535L376.084 751.025L326.425 856.243L-17.273 890.769L-18.4117 629.778L-103.188 583.485L-111.219 385.256L-49.5347 298.603L-134.216 103.292L-63.9959 40.4541L106.85 40.4541L228.571 -22.3842L372.933 35.6735L517.296 30.8929L569.124 -73.8376L797.375 -73.8376L910.816 149.291Z" stroke="#222222" stroke-width="1.5"/>
<path opacity="0.2" d="M849.134 178.291L761.965 297.377L761.965 381.217L843.959 471.345L789.296 553.617L804.715 664.059L629.709 655.557L624.395 739.782L501.832 763.542L368.067 716.609L325.502 803.301L30.9037 829.398L29.5752 601.493L-43.4426 557.614L-52.8123 382.266L0.950547 307.104L-70.7429 138.807L-8.23548 84.946L140.523 84.9461L255.429 31.0846L379.762 79.3687L504.095 73.7913L551.617 -15.9777L750.358 -15.9777L849.134 178.291Z" stroke="#222222" stroke-width="1.5"/>
<path d="M787.451 207.29L716.607 310.046L716.607 389.192L781.538 467.535L732.587 539.333L741.194 632.209L591.114 625.965L585.04 699.994L477.212 720.549L360.05 682.194L324.579 750.358L79.0804 768.028L77.562 573.208L16.3027 531.744L5.59447 379.276L51.4357 315.606L-7.26996 174.323L47.5248 129.438L174.196 129.438L282.287 84.5537L386.59 123.064L490.894 116.69L534.11 41.8825L703.342 41.8825L787.451 207.29Z" stroke="#222222" stroke-width="1.5"/>
<path d="M725.766 236.29L671.246 322.716L671.246 397.167L719.113 463.726L675.875 525.048L677.67 600.359L552.516 596.374L545.683 660.206L452.59 677.557L352.03 647.779L323.653 697.416L127.254 706.658L125.546 544.924L76.045 505.875L63.9983 376.288L101.918 324.108L56.1999 209.839L103.282 173.931L207.865 173.931L309.142 138.023L393.416 166.76L477.69 159.589L516.6 99.7432L656.323 99.7432L725.766 236.29Z" stroke="#222222" stroke-width="1.5"/>
<path d="M664.082 265.29L625.887 335.385L625.887 405.142L656.69 459.916L619.165 510.763L614.148 568.509L513.919 566.783L506.328 620.418L427.97 634.564L344.011 613.364L322.729 644.474L175.43 645.287L173.532 516.64L135.789 480.005L122.404 373.298L152.402 332.61L119.672 245.354L159.042 218.423L241.537 218.423L335.999 191.493L400.243 210.456L464.488 202.488L499.091 157.603L609.305 157.603L664.082 265.29Z" stroke="#222222" stroke-width="1.5"/>
<path d="M602.399 294.289L580.529 348.055L580.529 413.117L594.268 456.107L562.455 496.479L550.627 536.659L475.324 537.191L466.973 580.631L403.351 591.572L335.994 578.949L321.806 591.532L223.606 583.917L221.519 488.355L195.534 454.135L180.811 370.309L202.887 341.112L183.145 280.869L214.802 262.916L275.209 262.916L362.857 244.962L407.072 254.151L451.286 245.387L481.584 215.464L562.289 215.464L602.399 294.289Z" stroke="#222222" stroke-width="1.5"/>
<path d="M540.715 323.289L535.169 360.724L535.169 421.092L531.845 452.298L505.744 482.194L487.104 504.809L436.727 507.6L427.617 540.843L378.729 548.579L327.975 544.533L320.881 538.59L271.781 522.547L269.503 460.071L255.278 428.265L239.215 367.319L253.37 349.613L246.616 316.385L270.56 307.408L308.88 307.408L389.713 298.431L413.898 297.847L438.083 288.286L464.075 273.324L515.27 273.324L540.715 323.289Z" stroke="#222222" stroke-width="1.5"/>
</g>
</svg>
