<svg width="42" height="42" viewBox="0 0 42 42" fill="none" xmlns="http://www.w3.org/2000/svg">
<g clip-path="url(#clip0_46_1386)">
<path d="M21.2625 41.125H20.7375C18.2525 41.125 16.6425 39.97 15.1025 38.85C14.0525 38.08 13.0375 37.3625 11.8475 37.1525C11.2807 37.0582 10.7071 37.0114 10.1325 37.0125C9.135 37.0125 8.3475 37.1875 7.77 37.2925C7.42 37.3625 7.105 37.415 6.895 37.415C6.6325 37.415 6.37 37.3625 6.265 36.9775C6.1775 36.6275 6.09 36.295 6.0375 35.98C5.8625 35.1575 5.7225 34.65 5.39 34.58C1.435 33.9675 0.315 33.11 0.07 32.515C0.0316359 32.4322 0.00795023 32.3434 0 32.2525C0 32.025 0.14 31.815 0.3675 31.78C6.44 30.765 9.1525 24.43 9.275 24.1675V24.15C9.66 23.38 9.73 22.715 9.5025 22.155C9.0825 21.1575 7.7175 20.72 6.825 20.4225L6.23 20.23C4.445 19.495 4.305 18.76 4.3575 18.375C4.48 17.7275 5.32 17.29 6.0025 17.29C6.195 17.29 6.3525 17.325 6.4925 17.3775C7.315 17.7625 8.0325 17.9725 8.6625 17.9725C9.5375 17.9725 9.905 17.5875 9.9575 17.5525L9.87 16.24C9.695 13.3 9.4675 9.67753 10.3775 7.59503C11.2154 5.58977 12.6318 3.87961 14.4458 2.68273C16.2598 1.48585 18.3893 0.856517 20.5625 0.875031H21.42C23.1175 0.875031 28.8925 1.36503 31.6225 7.59503C32.5325 9.66003 32.305 13.3 32.13 16.24V16.3625L32.0425 17.5525C32.095 17.5875 32.445 17.9375 33.2325 17.955C33.8275 17.955 34.51 17.745 35.2625 17.3775C35.4613 17.2919 35.6761 17.2501 35.8925 17.255C36.155 17.255 36.4175 17.3075 36.6275 17.395C37.24 17.6225 37.6425 18.06 37.66 18.515C37.66 18.9525 37.345 19.5825 35.77 20.23L35.175 20.4225C34.2825 20.72 32.9175 21.1575 32.4975 22.1725C32.27 22.6975 32.34 23.38 32.725 24.15C32.8475 24.43 35.56 30.765 41.6325 31.78C41.86 31.815 42.0175 32.025 42 32.2525C42 32.34 41.965 32.4275 41.93 32.515C41.685 33.11 40.565 33.9675 36.61 34.58C36.295 34.6325 36.155 35.07 35.9625 35.98C35.8983 36.3093 35.8224 36.6362 35.735 36.96C35.6475 37.24 35.4725 37.38 35.175 37.38H35.1225C34.9125 37.38 34.5975 37.345 34.2475 37.275C32.9007 36.9905 31.5139 36.949 30.1525 37.1525C28.9625 37.3625 27.965 38.08 26.8975 38.85C25.3575 39.97 23.7475 41.125 21.2625 41.125Z" fill="black"/>
</g>
<defs>
<clipPath id="clip0_46_1386">
<rect width="42" height="42" fill="white"/>
</clipPath>
</defs>
</svg>
