<svg width="124" height="40" viewBox="0 0 124 40" fill="none" xmlns="http://www.w3.org/2000/svg">
<path d="M8.24666 34.0615V29.725H12.1198V34.0615H8.24666ZM8.24666 4.35498V0H12.1198V4.35498H8.24666ZM10.3778 30.9296C8.52464 30.9296 6.86913 30.596 5.41129 29.9289C3.95346 29.2617 2.75506 28.3166 1.81612 27.0935C0.889527 25.8581 0.284155 24.4002 0 22.72L3.83609 22.1085C4.20672 23.6898 4.99742 24.95 6.20816 25.889C7.41891 26.8155 8.87057 27.2788 10.5631 27.2788C12.2434 27.2788 13.6085 26.8773 14.6587 26.0743C15.7212 25.2712 16.2524 24.2458 16.2524 22.998C16.2524 22.1085 15.9806 21.3857 15.437 20.8298C14.9058 20.2738 14.0348 19.8043 12.824 19.4214L6.56027 17.494C2.8539 16.3451 1.00072 14.1212 1.00072 10.8226C1.00072 9.26591 1.37136 7.91309 2.11263 6.76412C2.86626 5.61514 3.92257 4.72561 5.28157 4.09553C6.64057 3.46545 8.22813 3.15041 10.0442 3.15041C11.7862 3.17512 13.3306 3.49634 14.6772 4.11407C16.0362 4.73179 17.1605 5.62132 18.05 6.78265C18.9519 7.94398 19.5758 9.34004 19.9217 10.9708L15.9744 11.675C15.8015 10.7237 15.437 9.88364 14.8811 9.15472C14.3375 8.4258 13.6456 7.85749 12.8055 7.44979C11.9777 7.04209 11.045 6.83206 10.0072 6.81971C9.03118 6.795 8.154 6.94943 7.37567 7.28301C6.60968 7.60423 5.99813 8.06134 5.54102 8.65436C5.09625 9.23503 4.87387 9.89599 4.87387 10.6373C4.87387 11.4527 5.18891 12.1445 5.81899 12.7128C6.44908 13.2811 7.44362 13.7691 8.80262 14.1768L13.7135 15.6038C15.9621 16.2709 17.5867 17.1666 18.5874 18.2909C19.5881 19.4152 20.0885 20.9101 20.0885 22.7756C20.0885 24.4064 19.6808 25.8334 18.8654 27.0565C18.0623 28.2672 16.9319 29.2185 15.4741 29.9104C14.0162 30.5899 12.3175 30.9296 10.3778 30.9296Z" fill="#060606"/>
<path d="M47.4323 30.9296C45.9498 30.9296 44.7081 30.6578 43.7074 30.1142C42.7067 29.5583 41.9469 28.8293 41.428 27.9275C40.9214 27.0132 40.6682 26.0125 40.6682 24.9253C40.6682 23.9122 40.8473 23.0227 41.2056 22.2567C41.5639 21.4907 42.0951 20.8421 42.7993 20.3109C43.5036 19.7673 44.3684 19.3287 45.3938 18.9951C46.2833 18.7357 47.2902 18.5071 48.4145 18.3094C49.5388 18.1118 50.7186 17.9264 51.9541 17.7535C53.2019 17.5805 54.4373 17.4076 55.6604 17.2346L54.252 18.0129C54.2767 16.4439 53.9431 15.2826 53.2513 14.529C52.5718 13.763 51.3981 13.38 49.7302 13.38C48.6801 13.38 47.7165 13.6271 46.8393 14.1212C45.9621 14.6031 45.3506 15.4061 45.0046 16.5304L41.3909 15.4185C41.8851 13.7012 42.8241 12.336 44.2078 11.3229C45.6038 10.3099 47.457 9.80334 49.7673 9.80334C51.5587 9.80334 53.1154 10.1122 54.4373 10.7299C55.7716 11.3353 56.7476 12.299 57.3654 13.6209C57.6866 14.2757 57.8842 14.9675 57.9584 15.6965C58.0325 16.4254 58.0696 17.2099 58.0696 18.05V30.3737H54.6412V25.7963L55.3083 26.3893C54.4806 27.9213 53.4243 29.0641 52.1394 29.8177C50.8669 30.559 49.2978 30.9296 47.4323 30.9296ZM48.118 27.7607C49.2175 27.7607 50.1627 27.5692 50.9533 27.1862C51.744 26.7908 52.3803 26.2905 52.8621 25.6851C53.344 25.0797 53.659 24.4496 53.8072 23.7949C54.0173 23.2018 54.1346 22.5347 54.1594 21.7934C54.1964 21.0522 54.2149 20.4591 54.2149 20.0144L55.4751 20.4777C54.252 20.663 53.1401 20.8298 52.1394 20.978C51.1387 21.1263 50.2306 21.2745 49.4152 21.4228C48.6122 21.5587 47.8956 21.7255 47.2655 21.9231C46.7343 22.1085 46.2586 22.3308 45.8386 22.5903C45.4309 22.8497 45.1035 23.1648 44.8564 23.5354C44.6216 23.906 44.5043 24.357 44.5043 24.8882C44.5043 25.4071 44.634 25.889 44.8934 26.3337C45.1529 26.7661 45.5482 27.1121 46.0795 27.3715C46.6107 27.6309 47.2902 27.7607 48.118 27.7607Z" fill="#060606"/>
<path d="M67.5692 30.3737L60.3047 10.3593H64.2149L69.5335 25.5183L74.8522 10.3593H78.7624L71.4979 30.3737H67.5692Z" fill="#060606"/>
<path d="M87.5126 30.3737L80.2481 10.3593H84.1583L89.477 25.5183L94.7956 10.3593H98.7058L91.4413 30.3737H87.5126Z" fill="#060606"/>
<path d="M104.569 39.2689L108.443 28.7243L108.498 31.8377L99.7696 10.3593H103.81L110.333 26.9453H109.147L115.373 10.3593H119.302L108.257 39.2689H104.569Z" fill="#060606"/>
<path d="M119.904 30.3737V26.2781H124V30.3737H119.904Z" fill="#060606"/>
<path d="M22.3566 23.8666C22.5782 25.1753 23.0531 26.3237 23.7875 27.3016L23.7905 27.3055C24.5333 28.2718 25.4812 29.0171 26.6267 29.5405C27.7752 30.0654 29.0691 30.3228 30.4998 30.3228C31.9928 30.3228 33.3205 30.0616 34.4722 29.5255L34.4748 29.5242C35.6216 28.9808 36.5258 28.2255 37.1709 27.2543C37.8294 26.2678 38.1526 25.1231 38.1526 23.8366C38.1526 22.3716 37.7573 21.151 36.9274 20.2199C36.1081 19.3007 34.8135 18.6046 33.1032 18.0979L29.4485 17.0374C28.4632 16.742 27.7936 16.4023 27.3934 16.0418C27.0103 15.6967 26.8314 15.2961 26.8314 14.8168C26.8314 14.3589 26.9665 13.9595 27.2392 13.6037C27.5293 13.2282 27.9217 12.9315 28.4309 12.7183L28.4339 12.7169C28.9486 12.4967 29.539 12.3899 30.2132 12.407L30.2161 12.4071L30.2189 12.4071C30.9355 12.4156 31.5657 12.5599 32.1177 12.8315L32.12 12.8326C32.6853 13.1066 33.146 13.4854 33.5084 13.9707L33.5112 13.9744C33.8817 14.4594 34.1268 15.0203 34.2441 15.6645L34.3203 16.0831L38.1109 15.4077L38.0192 14.976C37.7502 13.7099 37.2619 12.6115 36.5467 11.6914C35.8414 10.7724 34.9492 10.0681 33.8762 9.58092C32.8117 9.09342 31.6026 8.84544 30.2576 8.82641L30.2546 8.82637H30.2516C28.8512 8.82637 27.6064 9.06901 26.5282 9.56819C25.4515 10.0667 24.6012 10.7779 23.9927 11.7042L23.991 11.707C23.3888 12.639 23.0952 13.7272 23.0952 14.9545C23.0952 16.2654 23.4662 17.3923 24.2286 18.3059C24.9861 19.2137 26.1014 19.8768 27.5329 20.3199L32.1914 21.7514L32.193 21.7519C33.0641 22.0272 33.6327 22.3483 33.9557 22.686L33.9592 22.6895C34.2742 23.0112 34.444 23.4352 34.444 24.0019C34.444 24.7848 34.1201 25.4245 33.4279 25.9469L33.426 25.9484C32.7372 26.4743 31.82 26.7558 30.6377 26.7558C29.4616 26.7558 28.4755 26.4363 27.6576 25.8116C26.8395 25.1776 26.3026 24.3286 26.0479 23.2433L25.9571 22.8566L22.2846 23.4413L22.3566 23.8666Z" fill="#060606"/>
</svg>
