<svg width="152" height="169" viewBox="0 0 152 169" fill="none" xmlns="http://www.w3.org/2000/svg">
<mask id="mask0_17_886" style="mask-type:alpha" maskUnits="userSpaceOnUse" x="0" y="0" width="152" height="169">
<rect width="152" height="169" fill="url(#paint0_linear_17_886)"/>
</mask>
<g mask="url(#mask0_17_886)">
<path d="M247.364 252.915L148.756 155.615L43.0812 158.386L9.5 -10.5004" stroke="#E9FF6B" stroke-width="1.5"/>
<path d="M-185.897 -17.5209L-25.513 -45.9703L32.2051 -12.6467L60.4167 123.628L158.683 120.677L249.959 208.858L332.358 41.5502L405.552 82.7196L487.888 -10.4747L506.894 -154.961L627.579 -141.247L831.998 -410.552L620.558 -532.899L631.396 -621.168L476.382 -712.585L376.058 -703.547L255.32 -871.24L170.823 -847.543L90.3338 -708.132L-9.04004 -658.666L-26.4947 -507.758L-97.0605 -387.514L-207.022 -401.48L-314.555 -215.227L-185.897 -17.5209Z" stroke="#E9FF6B" stroke-width="1.5"/>
<path d="M-151.144 -41.692L-4.61325 -66.4323L50.58 -34.5665L77.7521 88.8711L168.611 85.7394L252.554 164.802L328.428 11.6023L396.373 49.1971L472.41 -37.0671L490.873 -169.96L599.39 -158.183L784.03 -403.697L590.444 -515.872L598.929 -597.067L456.638 -682.099L364.954 -673.753L254.712 -826.072L177.438 -803.736L103.808 -676.204L11.3788 -627.617L-5.11275 -490.517L-69.8873 -381.293L-170.464 -392.929L-268.834 -222.548L-151.144 -41.692Z" stroke="#E9FF6B" stroke-width="1.5"/>
<path d="M-116.392 -65.8631L16.2867 -86.8944L68.9551 -56.4863L95.0876 54.1141L178.538 50.8021L255.149 120.746L324.497 -18.3456L387.194 15.6745L456.932 -63.6594L474.853 -184.959L571.202 -175.12L736.061 -396.842L560.33 -498.845L566.462 -572.966L436.893 -651.613L353.85 -643.959L254.104 -780.904L184.054 -759.928L117.283 -644.277L31.7979 -596.567L16.2693 -473.275L-42.714 -375.072L-133.907 -384.378L-223.113 -229.868L-116.392 -65.8631Z" stroke="#E9FF6B" stroke-width="1.5"/>
<path d="M-81.6391 -90.0358L37.1865 -107.358L87.3301 -78.4075L112.423 19.3556L188.465 15.8633L257.744 76.689L320.567 -48.295L378.015 -17.8494L441.453 -90.2531L458.832 -199.96L543.014 -192.058L688.093 -389.989L530.216 -481.82L533.995 -548.867L417.148 -621.128L342.746 -614.167L253.496 -735.738L190.67 -716.122L130.757 -612.351L52.2169 -565.519L37.6513 -456.035L-15.5407 -368.852L-97.3492 -375.829L-177.392 -237.191L-81.6391 -90.0358Z" stroke="#E9FF6B" stroke-width="1.5"/>
</g>
<defs>
<linearGradient id="paint0_linear_17_886" x1="76" y1="0" x2="76" y2="169" gradientUnits="userSpaceOnUse">
<stop stop-color="#010101"/>
<stop offset="1" stop-color="#222222"/>
</linearGradient>
</defs>
</svg>
