<svg width="707" height="448" viewBox="0 0 707 448" fill="none" xmlns="http://www.w3.org/2000/svg">
<g clip-path="url(#clip0_158_199)">
<path opacity="0.3" d="M1246.25 104.05L1106.44 266.043L1106.44 347.039L1246.25 466.847L1180.56 574.842L1224.35 736.835L981.791 719.96L981.791 827.956L825.136 860.017L651.636 785.77L587.626 935.951L144.612 995.011L144.612 676.087L36.806 633.902L36.806 401.037L112.607 293.042L-0.252329 44.9904L80.602 -36.0059L291.16 -36.0059L404.019 -117.002L587.626 -36.0059L771.233 -36.0059L825.136 -171L1106.44 -171L1246.25 104.05Z" stroke="#E9FF6B"/>
<path d="M674.734 351.06L689.695 380.355L689.695 418.996L661.395 445.955L626.064 452.964L619.215 468.96L571.807 475.25L571.807 441.282L568.382 400.484L556.305 374.065L564.957 365.438L587.489 365.438L638.863 365.438L644.631 351.06L674.734 351.06Z" stroke="#E9FF6B"/>
<path opacity="0.5" d="M1203.44 124.178L1074.96 274.836L1074.96 352.575L1202.93 464.203L1141.2 564.927L1180.27 714.729L955.003 699.422L954.476 800.341L808.048 830.177L646.071 761.884L586.985 899.206L178.049 952.416L177.917 656.456L78.2726 615.947L77.3435 398.962L147.646 298.943L43.8015 69.6403L119.303 -5.12564L314.531 -5.12563L422.66 -79.8915L592.365 -5.67862L762.07 -6.23162L812.984 -130.841L1073.81 -130.841L1203.44 124.178Z" stroke="#E9FF6B" stroke-width="1.5"/>
<path opacity="0.8" d="M1160.63 144.305L1043.48 283.63L1043.48 358.11L1159.6 461.559L1101.84 555.013L1136.18 692.623L928.214 678.884L927.16 772.725L790.959 800.338L640.504 737.998L586.342 862.461L211.484 909.822L211.22 636.825L119.737 597.991L117.879 396.887L182.684 304.843L87.8529 94.2899L158.001 25.7545L337.899 25.7546L441.299 -42.7809L597.102 24.6486L752.905 23.5426L800.831 -90.6831L1041.17 -90.6831L1160.63 144.305Z" stroke="#E9FF6B" stroke-width="1.5"/>
<path d="M1117.82 164.433L1012 292.423L1012 363.645L1116.28 458.915L1062.48 545.099L1092.09 670.518L901.427 658.346L899.846 745.111L773.872 770.499L634.941 714.112L585.702 825.716L244.922 867.227L244.527 617.194L161.204 580.036L158.417 394.813L217.724 310.744L131.908 118.94L196.703 56.6352L361.271 56.6352L459.941 -5.6697L601.842 54.9762L743.744 53.3172L788.681 -50.5243L1008.54 -50.5243L1117.82 164.433Z" stroke="#E9FF6B" stroke-width="1.5"/>
<path d="M1075 184.561L980.515 301.216L980.515 369.18L1072.95 456.271L1023.12 535.185L1048 648.412L874.64 637.808L872.532 717.496L756.785 740.66L629.376 690.226L585.062 788.971L278.359 824.633L277.832 597.563L202.671 562.081L198.955 392.738L252.763 316.645L175.961 143.59L235.404 87.5155L384.641 87.5155L478.582 31.4411L606.582 85.3035L734.581 83.0915L776.53 -10.3659L975.911 -10.3658L1075 184.561Z" stroke="#E9FF6B" stroke-width="1.5"/>
<path d="M1032.19 204.688L949.03 310.009L949.03 374.715L1029.63 453.627L983.756 525.27L1003.91 626.306L847.849 617.27L845.215 689.88L739.694 710.82L623.808 666.339L584.418 752.226L311.794 782.038L311.135 577.932L244.134 544.126L239.489 390.663L287.8 322.546L220.012 168.24L274.102 118.396L408.009 118.396L497.22 68.5518L611.318 115.631L725.416 112.866L764.376 29.7925L943.276 29.7925L1032.19 204.688Z" stroke="#E9FF6B" stroke-width="1.5"/>
<path d="M989.379 224.815L917.549 318.803L917.549 380.25L986.301 450.983L944.396 515.356L959.825 604.2L821.061 596.732L817.9 662.265L722.607 680.981L618.244 642.453L583.777 715.481L345.231 739.444L344.441 558.301L285.601 526.171L280.027 388.588L322.839 328.446L264.066 192.889L312.802 149.276L431.38 149.276L515.861 105.663L616.057 145.958L716.253 142.64L752.225 69.9509L910.644 69.9509L989.379 224.815Z" stroke="#E9FF6B" stroke-width="1.5"/>
<path d="M946.567 244.943L886.067 327.596L886.067 385.785L942.976 448.339L905.036 505.441L915.738 582.094L794.274 576.193L790.586 634.65L705.52 651.141L612.679 618.567L583.136 678.736L378.668 696.849L377.746 538.67L327.067 508.215L320.564 386.513L357.879 334.347L308.119 217.539L351.503 180.156L454.75 180.156L534.501 142.773L620.796 176.285L707.091 172.414L740.073 110.109L878.011 110.109L946.567 244.943Z" stroke="#E9FF6B" stroke-width="1.5"/>
<path d="M903.756 265.07L854.586 336.389L854.586 391.32L899.652 445.695L865.677 495.527L871.651 559.988L767.486 555.655L763.271 607.035L688.432 621.302L607.115 594.681L582.495 641.991L412.105 654.254L411.051 519.039L368.534 490.26L361.102 384.439L392.918 340.248L352.173 242.189L390.204 211.036L478.121 211.036L553.142 179.884L625.535 206.612L697.928 202.188L727.922 150.267L845.379 150.267L903.756 265.07Z" stroke="#E9FF6B" stroke-width="1.5"/>
<path d="M860.943 285.198L823.103 345.182L823.103 396.856L856.326 443.051L826.316 485.613L827.562 537.883L740.697 535.117L735.955 579.42L671.343 591.463L601.548 570.795L581.853 605.246L445.541 611.66L444.355 499.408L409.999 472.305L401.638 382.364L427.956 346.149L396.225 266.839L428.903 241.917L501.49 241.917L571.782 216.995L630.273 236.94L688.764 231.963L715.77 190.426L812.745 190.426L860.943 285.198Z" stroke="#E9FF6B" stroke-width="1.5"/>
<path d="M818.131 305.325L791.621 353.976L791.621 402.391L813 440.407L786.956 475.698L783.474 515.777L713.909 514.579L708.64 551.805L654.255 561.623L595.983 546.909L581.212 568.501L478.978 569.066L477.66 479.777L451.465 454.35L442.175 380.289L462.995 352.049L440.278 291.489L467.603 272.797L524.86 272.797L590.422 254.106L635.011 267.267L679.601 261.737L703.618 230.585L780.113 230.585L818.131 305.325Z" stroke="#E9FF6B" stroke-width="1.5"/>
<path d="M775.32 325.453L760.14 362.769L760.14 407.926L769.676 437.764L747.596 465.784L739.387 493.671L687.122 494.041L681.326 524.19L637.168 531.784L590.419 523.023L580.571 531.756L512.415 526.471L510.966 460.145L492.932 436.395L482.713 378.214L498.035 357.95L484.333 316.138L506.305 303.677L548.231 303.677L609.063 291.216L639.751 297.594L670.439 291.511L691.467 270.743L747.481 270.743L775.32 325.453Z" stroke="#E9FF6B" stroke-width="1.5"/>
<path d="M732.507 345.58L728.657 371.562L728.657 413.461L726.35 435.12L708.235 455.869L695.298 471.566L660.333 473.503L654.01 496.575L620.079 501.945L584.853 499.137L579.929 495.011L545.851 483.877L544.27 440.514L534.397 418.44L523.249 376.14L533.073 363.851L528.385 340.788L545.004 334.558L571.6 334.558L627.703 328.327L644.489 327.922L661.274 321.286L679.314 310.901L714.847 310.901L732.507 345.58Z" stroke="#E9FF6B" stroke-width="1.5"/>
</g>
<defs>
<clipPath id="clip0_158_199">
<rect width="448" height="707" fill="white" transform="translate(707) rotate(90)"/>
</clipPath>
</defs>
</svg>
